solid OpenSCAD_Model
  facet normal 0 0 -1
    outer loop
      vertex 24.5 8 -3.5
      vertex 17.2853 6.67472 -3.5
      vertex 17.35 7 -3.5
    endloop
  endfacet
  facet normal 0 0 -1
    outer loop
      vertex 17.101 6.39896 -3.5
      vertex 17.7 2.07846 -3.5
      vertex 17.1212 2.31822 -3.5
    endloop
  endfacet
  facet normal 0 0 -1
    outer loop
      vertex 17.7 2.07846 -3.5
      vertex 17.101 6.39896 -3.5
      vertex 17.2853 6.67472 -3.5
    endloop
  endfacet
  facet normal 0 0 -1
    outer loop
      vertex 17.1212 2.31822 -3.5
      vertex 16.8253 6.2147 -3.5
      vertex 17.101 6.39896 -3.5
    endloop
  endfacet
  facet normal 0 0 -1
    outer loop
      vertex 16.5 2.4 -3.5
      vertex 16.8253 6.2147 -3.5
      vertex 17.1212 2.31822 -3.5
    endloop
  endfacet
  facet normal 0 0 -1
    outer loop
      vertex 16.5 2.4 -3.5
      vertex 16.5 6.15 -3.5
      vertex 16.8253 6.2147 -3.5
    endloop
  endfacet
  facet normal 0 0 -1
    outer loop
      vertex 16.5 2.4 -3.5
      vertex 16.1747 6.2147 -3.5
      vertex 16.5 6.15 -3.5
    endloop
  endfacet
  facet normal 0 0 -1
    outer loop
      vertex 15.8788 2.31822 -3.5
      vertex 16.1747 6.2147 -3.5
      vertex 16.5 2.4 -3.5
    endloop
  endfacet
  facet normal -0 0 -1
    outer loop
      vertex 16.1747 6.2147 -3.5
      vertex 15.8788 2.31822 -3.5
      vertex 15.899 6.39896 -3.5
    endloop
  endfacet
  facet normal 0 0 -1
    outer loop
      vertex 15.3 2.07846 -3.5
      vertex 15.899 6.39896 -3.5
      vertex 15.8788 2.31822 -3.5
    endloop
  endfacet
  facet normal -0 0 -1
    outer loop
      vertex 15.899 6.39896 -3.5
      vertex 15.3 2.07846 -3.5
      vertex 15.7147 6.67472 -3.5
    endloop
  endfacet
  facet normal 0 0 -1
    outer loop
      vertex 14.8029 1.69706 -3.5
      vertex 15.7147 6.67472 -3.5
      vertex 15.3 2.07846 -3.5
    endloop
  endfacet
  facet normal 0 0 -1
    outer loop
      vertex 24.5 -8 -3.5
      vertex 18.9 0 -3.5
      vertex 24.5 8 -3.5
    endloop
  endfacet
  facet normal 0 0 -1
    outer loop
      vertex 24.5 -8 -3.5
      vertex 18.8182 -0.621165 -3.5
      vertex 18.9 0 -3.5
    endloop
  endfacet
  facet normal 0 0 -1
    outer loop
      vertex 24.5 -8 -3.5
      vertex 18.5785 -1.2 -3.5
      vertex 18.8182 -0.621165 -3.5
    endloop
  endfacet
  facet normal 0 0 -1
    outer loop
      vertex 24.5 -8 -3.5
      vertex 18.1971 -1.69706 -3.5
      vertex 18.5785 -1.2 -3.5
    endloop
  endfacet
  facet normal 0 0 -1
    outer loop
      vertex 17.2853 -6.67472 -3.5
      vertex 18.1971 -1.69706 -3.5
      vertex 24.5 -8 -3.5
    endloop
  endfacet
  facet normal 0 0 -1
    outer loop
      vertex 17.2853 -6.67472 -3.5
      vertex 24.5 -8 -3.5
      vertex 17.35 -7 -3.5
    endloop
  endfacet
  facet normal 0 0 -1
    outer loop
      vertex 24.5 -8 -3.5
      vertex 17.2853 -7.32528 -3.5
      vertex 17.35 -7 -3.5
    endloop
  endfacet
  facet normal 0 0 -1
    outer loop
      vertex 24.5 -8 -3.5
      vertex 17.101 -7.60104 -3.5
      vertex 17.2853 -7.32528 -3.5
    endloop
  endfacet
  facet normal 0 0 -1
    outer loop
      vertex 24.5 -8 -3.5
      vertex 16.8253 -7.7853 -3.5
      vertex 17.101 -7.60104 -3.5
    endloop
  endfacet
  facet normal 0 0 -1
    outer loop
      vertex 24.5 -8 -3.5
      vertex 16.5 -7.85 -3.5
      vertex 16.8253 -7.7853 -3.5
    endloop
  endfacet
  facet normal 0 0 -1
    outer loop
      vertex 15.7147 -6.67472 -3.5
      vertex 14.8029 -1.69706 -3.5
      vertex 15.3 -2.07846 -3.5
    endloop
  endfacet
  facet normal 0 0 -1
    outer loop
      vertex 15.7147 -6.67472 -3.5
      vertex 14.4215 -1.2 -3.5
      vertex 14.8029 -1.69706 -3.5
    endloop
  endfacet
  facet normal 0 0 -1
    outer loop
      vertex -17.5 -8 -3.5
      vertex 15.65 -7 -3.5
      vertex 15.7147 -7.32528 -3.5
    endloop
  endfacet
  facet normal -0 0 -1
    outer loop
      vertex 15.65 -7 -3.5
      vertex -17.5 -8 -3.5
      vertex 14.4215 -1.2 -3.5
    endloop
  endfacet
  facet normal -0 0 -1
    outer loop
      vertex 14.1818 -0.621165 -3.5
      vertex -17.5 -8 -3.5
      vertex 14.1 0 -3.5
    endloop
  endfacet
  facet normal -0 0 -1
    outer loop
      vertex 14.4215 -1.2 -3.5
      vertex -17.5 -8 -3.5
      vertex 14.1818 -0.621165 -3.5
    endloop
  endfacet
  facet normal -0 0 -1
    outer loop
      vertex 15.899 -7.60104 -3.5
      vertex -17.5 -8 -3.5
      vertex 15.7147 -7.32528 -3.5
    endloop
  endfacet
  facet normal -0 0 -1
    outer loop
      vertex 16.1747 -7.7853 -3.5
      vertex -17.5 -8 -3.5
      vertex 15.899 -7.60104 -3.5
    endloop
  endfacet
  facet normal -0 0 -1
    outer loop
      vertex 16.5 -7.85 -3.5
      vertex -17.5 -8 -3.5
      vertex 16.1747 -7.7853 -3.5
    endloop
  endfacet
  facet normal 0 0 -1
    outer loop
      vertex -17.5 -8 -3.5
      vertex 16.5 -7.85 -3.5
      vertex 24.5 -8 -3.5
    endloop
  endfacet
  facet normal 0 0 -1
    outer loop
      vertex 18.8182 0.621165 -3.5
      vertex 24.5 8 -3.5
      vertex 18.9 0 -3.5
    endloop
  endfacet
  facet normal 0 0 -1
    outer loop
      vertex 18.5785 1.2 -3.5
      vertex 24.5 8 -3.5
      vertex 18.8182 0.621165 -3.5
    endloop
  endfacet
  facet normal 0 0 -1
    outer loop
      vertex 18.1971 1.69706 -3.5
      vertex 24.5 8 -3.5
      vertex 18.5785 1.2 -3.5
    endloop
  endfacet
  facet normal 0 0 -1
    outer loop
      vertex 17.2853 6.67472 -3.5
      vertex 18.1971 1.69706 -3.5
      vertex 17.7 2.07846 -3.5
    endloop
  endfacet
  facet normal 0 0 -1
    outer loop
      vertex 17.2853 6.67472 -3.5
      vertex 24.5 8 -3.5
      vertex 18.1971 1.69706 -3.5
    endloop
  endfacet
  facet normal 0 0 -1
    outer loop
      vertex 17.2853 7.32528 -3.5
      vertex 24.5 8 -3.5
      vertex 17.35 7 -3.5
    endloop
  endfacet
  facet normal 0 0 -1
    outer loop
      vertex 17.101 7.60104 -3.5
      vertex 24.5 8 -3.5
      vertex 17.2853 7.32528 -3.5
    endloop
  endfacet
  facet normal 0 0 -1
    outer loop
      vertex 16.8253 7.7853 -3.5
      vertex 24.5 8 -3.5
      vertex 17.101 7.60104 -3.5
    endloop
  endfacet
  facet normal 0 0 -1
    outer loop
      vertex 16.5 7.85 -3.5
      vertex 24.5 8 -3.5
      vertex 16.8253 7.7853 -3.5
    endloop
  endfacet
  facet normal 0 0 -1
    outer loop
      vertex 14.4215 1.2 -3.5
      vertex 15.7147 6.67472 -3.5
      vertex 14.8029 1.69706 -3.5
    endloop
  endfacet
  facet normal -0 0 -1
    outer loop
      vertex 15.7147 6.67472 -3.5
      vertex 14.4215 1.2 -3.5
      vertex 15.65 7 -3.5
    endloop
  endfacet
  facet normal 0 0 -1
    outer loop
      vertex -17.5 8 -3.5
      vertex 15.65 7 -3.5
      vertex 14.4215 1.2 -3.5
    endloop
  endfacet
  facet normal 0 0 -1
    outer loop
      vertex -17.5 8 -3.5
      vertex 14.4215 1.2 -3.5
      vertex 14.1818 0.621165 -3.5
    endloop
  endfacet
  facet normal 0 0 -1
    outer loop
      vertex -17.5 8 -3.5
      vertex 14.1 0 -3.5
      vertex -17.5 -8 -3.5
    endloop
  endfacet
  facet normal 0 0 -1
    outer loop
      vertex 14.1 0 -3.5
      vertex -17.5 8 -3.5
      vertex 14.1818 0.621165 -3.5
    endloop
  endfacet
  facet normal 0 0 -1
    outer loop
      vertex 15.65 7 -3.5
      vertex -17.5 8 -3.5
      vertex 15.7147 7.32528 -3.5
    endloop
  endfacet
  facet normal 0 0 -1
    outer loop
      vertex 15.7147 7.32528 -3.5
      vertex -17.5 8 -3.5
      vertex 15.899 7.60104 -3.5
    endloop
  endfacet
  facet normal 0 0 -1
    outer loop
      vertex 16.5 7.85 -3.5
      vertex -17.5 8 -3.5
      vertex 24.5 8 -3.5
    endloop
  endfacet
  facet normal 0 0 -1
    outer loop
      vertex 16.1747 7.7853 -3.5
      vertex -17.5 8 -3.5
      vertex 16.5 7.85 -3.5
    endloop
  endfacet
  facet normal 0 0 -1
    outer loop
      vertex 15.899 7.60104 -3.5
      vertex -17.5 8 -3.5
      vertex 16.1747 7.7853 -3.5
    endloop
  endfacet
  facet normal 0 0 -1
    outer loop
      vertex 18.1971 -1.69706 -3.5
      vertex 17.2853 -6.67472 -3.5
      vertex 17.7 -2.07846 -3.5
    endloop
  endfacet
  facet normal 0 0 -1
    outer loop
      vertex 17.101 -6.39896 -3.5
      vertex 17.7 -2.07846 -3.5
      vertex 17.2853 -6.67472 -3.5
    endloop
  endfacet
  facet normal 0 0 -1
    outer loop
      vertex 17.7 -2.07846 -3.5
      vertex 17.101 -6.39896 -3.5
      vertex 17.1212 -2.31822 -3.5
    endloop
  endfacet
  facet normal 0 0 -1
    outer loop
      vertex 16.8253 -6.2147 -3.5
      vertex 17.1212 -2.31822 -3.5
      vertex 17.101 -6.39896 -3.5
    endloop
  endfacet
  facet normal 0 0 -1
    outer loop
      vertex 16.5 -2.4 -3.5
      vertex 16.8253 -6.2147 -3.5
      vertex 16.5 -6.15 -3.5
    endloop
  endfacet
  facet normal 0 0 -1
    outer loop
      vertex 16.8253 -6.2147 -3.5
      vertex 16.5 -2.4 -3.5
      vertex 17.1212 -2.31822 -3.5
    endloop
  endfacet
  facet normal 0 0 -1
    outer loop
      vertex 16.1747 -6.2147 -3.5
      vertex 16.5 -2.4 -3.5
      vertex 16.5 -6.15 -3.5
    endloop
  endfacet
  facet normal 0 0 -1
    outer loop
      vertex 15.8788 -2.31822 -3.5
      vertex 16.1747 -6.2147 -3.5
      vertex 15.899 -6.39896 -3.5
    endloop
  endfacet
  facet normal 0 0 -1
    outer loop
      vertex 16.1747 -6.2147 -3.5
      vertex 15.8788 -2.31822 -3.5
      vertex 16.5 -2.4 -3.5
    endloop
  endfacet
  facet normal 0 0 -1
    outer loop
      vertex 15.3 -2.07846 -3.5
      vertex 15.899 -6.39896 -3.5
      vertex 15.7147 -6.67472 -3.5
    endloop
  endfacet
  facet normal 0 0 -1
    outer loop
      vertex 14.4215 -1.2 -3.5
      vertex 15.7147 -6.67472 -3.5
      vertex 15.65 -7 -3.5
    endloop
  endfacet
  facet normal 0 0 -1
    outer loop
      vertex 15.899 -6.39896 -3.5
      vertex 15.3 -2.07846 -3.5
      vertex 15.8788 -2.31822 -3.5
    endloop
  endfacet
  facet normal 1 -0 0
    outer loop
      vertex 24.5 -8 -1.5
      vertex 24.5 8 -3.5
      vertex 24.5 8 -1.5
    endloop
  endfacet
  facet normal 1 0 0
    outer loop
      vertex 24.5 8 -3.5
      vertex 24.5 -8 -1.5
      vertex 24.5 -8 -3.5
    endloop
  endfacet
  facet normal -1 0 0
    outer loop
      vertex -17.5 -8 -3.5
      vertex -17.5 8 -1.5
      vertex -17.5 8 -3.5
    endloop
  endfacet
  facet normal -1 -0 0
    outer loop
      vertex -17.5 8 -1.5
      vertex -17.5 -8 -3.5
      vertex -17.5 -8 -1.5
    endloop
  endfacet
  facet normal 0 0 1
    outer loop
      vertex 24.5 -8 -1.5
      vertex 17.2853 -6.67472 -1.5
      vertex 17.35 -7 -1.5
    endloop
  endfacet
  facet normal 0 0 1
    outer loop
      vertex 17.101 -6.39896 -1.5
      vertex 17.7 -2.07846 -1.5
      vertex 17.1212 -2.31822 -1.5
    endloop
  endfacet
  facet normal 0 0 1
    outer loop
      vertex 17.7 -2.07846 -1.5
      vertex 17.101 -6.39896 -1.5
      vertex 17.2853 -6.67472 -1.5
    endloop
  endfacet
  facet normal 0 0 1
    outer loop
      vertex 17.1212 -2.31822 -1.5
      vertex 16.8253 -6.2147 -1.5
      vertex 17.101 -6.39896 -1.5
    endloop
  endfacet
  facet normal -0 0 1
    outer loop
      vertex 16.5 -2.4 -1.5
      vertex 16.8253 -6.2147 -1.5
      vertex 17.1212 -2.31822 -1.5
    endloop
  endfacet
  facet normal 0 0 1
    outer loop
      vertex 16.5 -2.4 -1.5
      vertex 16.5 -6.15 -1.5
      vertex 16.8253 -6.2147 -1.5
    endloop
  endfacet
  facet normal 0 0 1
    outer loop
      vertex 16.5 -2.4 -1.5
      vertex 16.1747 -6.2147 -1.5
      vertex 16.5 -6.15 -1.5
    endloop
  endfacet
  facet normal 0 0 1
    outer loop
      vertex 15.8788 -2.31822 -1.5
      vertex 16.1747 -6.2147 -1.5
      vertex 16.5 -2.4 -1.5
    endloop
  endfacet
  facet normal 0 0 1
    outer loop
      vertex 16.1747 -6.2147 -1.5
      vertex 15.8788 -2.31822 -1.5
      vertex 15.899 -6.39896 -1.5
    endloop
  endfacet
  facet normal 0 0 1
    outer loop
      vertex 15.3 -2.07846 -1.5
      vertex 15.899 -6.39896 -1.5
      vertex 15.8788 -2.31822 -1.5
    endloop
  endfacet
  facet normal 0 0 1
    outer loop
      vertex 15.899 -6.39896 -1.5
      vertex 15.3 -2.07846 -1.5
      vertex 15.7147 -6.67472 -1.5
    endloop
  endfacet
  facet normal 0 0 1
    outer loop
      vertex 14.8029 -1.69706 -1.5
      vertex 15.7147 -6.67472 -1.5
      vertex 15.3 -2.07846 -1.5
    endloop
  endfacet
  facet normal 0 0 1
    outer loop
      vertex 24.5 8 -1.5
      vertex 18.9 0 -1.5
      vertex 24.5 -8 -1.5
    endloop
  endfacet
  facet normal 0 0 1
    outer loop
      vertex 24.5 8 -1.5
      vertex 18.8182 0.621165 -1.5
      vertex 18.9 0 -1.5
    endloop
  endfacet
  facet normal 0 0 1
    outer loop
      vertex 24.5 8 -1.5
      vertex 18.5785 1.2 -1.5
      vertex 18.8182 0.621165 -1.5
    endloop
  endfacet
  facet normal 0 0 1
    outer loop
      vertex 24.5 8 -1.5
      vertex 18.1971 1.69706 -1.5
      vertex 18.5785 1.2 -1.5
    endloop
  endfacet
  facet normal -0 0 1
    outer loop
      vertex 17.2853 6.67472 -1.5
      vertex 18.1971 1.69706 -1.5
      vertex 24.5 8 -1.5
    endloop
  endfacet
  facet normal 0 0 1
    outer loop
      vertex 17.2853 6.67472 -1.5
      vertex 24.5 8 -1.5
      vertex 17.35 7 -1.5
    endloop
  endfacet
  facet normal 0 0 1
    outer loop
      vertex 24.5 8 -1.5
      vertex 17.2853 7.32528 -1.5
      vertex 17.35 7 -1.5
    endloop
  endfacet
  facet normal 0 0 1
    outer loop
      vertex 24.5 8 -1.5
      vertex 17.101 7.60104 -1.5
      vertex 17.2853 7.32528 -1.5
    endloop
  endfacet
  facet normal 0 0 1
    outer loop
      vertex 24.5 8 -1.5
      vertex 16.8253 7.7853 -1.5
      vertex 17.101 7.60104 -1.5
    endloop
  endfacet
  facet normal 0 0 1
    outer loop
      vertex 24.5 8 -1.5
      vertex 16.5 7.85 -1.5
      vertex 16.8253 7.7853 -1.5
    endloop
  endfacet
  facet normal 0 0 1
    outer loop
      vertex 15.7147 6.67472 -1.5
      vertex 14.8029 1.69706 -1.5
      vertex 15.3 2.07846 -1.5
    endloop
  endfacet
  facet normal 0 0 1
    outer loop
      vertex 15.7147 6.67472 -1.5
      vertex 14.4215 1.2 -1.5
      vertex 14.8029 1.69706 -1.5
    endloop
  endfacet
  facet normal 0 0 1
    outer loop
      vertex -2.5 8 -1.5
      vertex 15.65 7 -1.5
      vertex 15.7147 7.32528 -1.5
    endloop
  endfacet
  facet normal 0 0 1
    outer loop
      vertex 15.65 7 -1.5
      vertex -2.5 8 -1.5
      vertex 14.4215 1.2 -1.5
    endloop
  endfacet
  facet normal 0 0 1
    outer loop
      vertex 14.1818 0.621165 -1.5
      vertex -2.5 8 -1.5
      vertex 14.1 0 -1.5
    endloop
  endfacet
  facet normal 0 0 1
    outer loop
      vertex 14.4215 1.2 -1.5
      vertex -2.5 8 -1.5
      vertex 14.1818 0.621165 -1.5
    endloop
  endfacet
  facet normal 0 0 1
    outer loop
      vertex 15.899 7.60104 -1.5
      vertex -2.5 8 -1.5
      vertex 15.7147 7.32528 -1.5
    endloop
  endfacet
  facet normal 0 0 1
    outer loop
      vertex 16.1747 7.7853 -1.5
      vertex -2.5 8 -1.5
      vertex 15.899 7.60104 -1.5
    endloop
  endfacet
  facet normal 0 0 1
    outer loop
      vertex 16.5 7.85 -1.5
      vertex -2.5 8 -1.5
      vertex 16.1747 7.7853 -1.5
    endloop
  endfacet
  facet normal -0 0 1
    outer loop
      vertex -2.5 8 -1.5
      vertex 16.5 7.85 -1.5
      vertex 24.5 8 -1.5
    endloop
  endfacet
  facet normal -0 0 1
    outer loop
      vertex 18.8182 -0.621165 -1.5
      vertex 24.5 -8 -1.5
      vertex 18.9 0 -1.5
    endloop
  endfacet
  facet normal -0 0 1
    outer loop
      vertex 18.5785 -1.2 -1.5
      vertex 24.5 -8 -1.5
      vertex 18.8182 -0.621165 -1.5
    endloop
  endfacet
  facet normal -0 0 1
    outer loop
      vertex 18.1971 -1.69706 -1.5
      vertex 24.5 -8 -1.5
      vertex 18.5785 -1.2 -1.5
    endloop
  endfacet
  facet normal 0 0 1
    outer loop
      vertex 17.2853 -6.67472 -1.5
      vertex 18.1971 -1.69706 -1.5
      vertex 17.7 -2.07846 -1.5
    endloop
  endfacet
  facet normal -0 0 1
    outer loop
      vertex 17.2853 -6.67472 -1.5
      vertex 24.5 -8 -1.5
      vertex 18.1971 -1.69706 -1.5
    endloop
  endfacet
  facet normal -0 0 1
    outer loop
      vertex 17.2853 -7.32528 -1.5
      vertex 24.5 -8 -1.5
      vertex 17.35 -7 -1.5
    endloop
  endfacet
  facet normal -0 0 1
    outer loop
      vertex 17.101 -7.60104 -1.5
      vertex 24.5 -8 -1.5
      vertex 17.2853 -7.32528 -1.5
    endloop
  endfacet
  facet normal -0 0 1
    outer loop
      vertex 16.8253 -7.7853 -1.5
      vertex 24.5 -8 -1.5
      vertex 17.101 -7.60104 -1.5
    endloop
  endfacet
  facet normal -0 0 1
    outer loop
      vertex 16.5 -7.85 -1.5
      vertex 24.5 -8 -1.5
      vertex 16.8253 -7.7853 -1.5
    endloop
  endfacet
  facet normal 0 0 1
    outer loop
      vertex 14.4215 -1.2 -1.5
      vertex 15.7147 -6.67472 -1.5
      vertex 14.8029 -1.69706 -1.5
    endloop
  endfacet
  facet normal 0 0 1
    outer loop
      vertex 15.7147 -6.67472 -1.5
      vertex 14.4215 -1.2 -1.5
      vertex 15.65 -7 -1.5
    endloop
  endfacet
  facet normal 0 0 1
    outer loop
      vertex -2.5 -8 -1.5
      vertex 15.65 -7 -1.5
      vertex 14.4215 -1.2 -1.5
    endloop
  endfacet
  facet normal 0 0 1
    outer loop
      vertex -2.5 -8 -1.5
      vertex 14.4215 -1.2 -1.5
      vertex 14.1818 -0.621165 -1.5
    endloop
  endfacet
  facet normal 0 0 1
    outer loop
      vertex -2.5 -8 -1.5
      vertex 14.1 0 -1.5
      vertex -2.5 8 -1.5
    endloop
  endfacet
  facet normal 0 0 1
    outer loop
      vertex 14.1 0 -1.5
      vertex -2.5 -8 -1.5
      vertex 14.1818 -0.621165 -1.5
    endloop
  endfacet
  facet normal 0 0 1
    outer loop
      vertex 15.65 -7 -1.5
      vertex -2.5 -8 -1.5
      vertex 15.7147 -7.32528 -1.5
    endloop
  endfacet
  facet normal 0 0 1
    outer loop
      vertex 16.5 -7.85 -1.5
      vertex -2.5 -8 -1.5
      vertex 24.5 -8 -1.5
    endloop
  endfacet
  facet normal 0 0 1
    outer loop
      vertex 16.1747 -7.7853 -1.5
      vertex -2.5 -8 -1.5
      vertex 16.5 -7.85 -1.5
    endloop
  endfacet
  facet normal 0 0 1
    outer loop
      vertex 15.899 -7.60104 -1.5
      vertex -2.5 -8 -1.5
      vertex 16.1747 -7.7853 -1.5
    endloop
  endfacet
  facet normal 0 0 1
    outer loop
      vertex 15.7147 -7.32528 -1.5
      vertex -2.5 -8 -1.5
      vertex 15.899 -7.60104 -1.5
    endloop
  endfacet
  facet normal 0 0 1
    outer loop
      vertex 18.1971 1.69706 -1.5
      vertex 17.2853 6.67472 -1.5
      vertex 17.7 2.07846 -1.5
    endloop
  endfacet
  facet normal -0 0 1
    outer loop
      vertex 17.101 6.39896 -1.5
      vertex 17.7 2.07846 -1.5
      vertex 17.2853 6.67472 -1.5
    endloop
  endfacet
  facet normal 0 0 1
    outer loop
      vertex 17.7 2.07846 -1.5
      vertex 17.101 6.39896 -1.5
      vertex 17.1212 2.31822 -1.5
    endloop
  endfacet
  facet normal -0 0 1
    outer loop
      vertex 16.8253 6.2147 -1.5
      vertex 17.1212 2.31822 -1.5
      vertex 17.101 6.39896 -1.5
    endloop
  endfacet
  facet normal 0 0 1
    outer loop
      vertex 16.5 2.4 -1.5
      vertex 16.8253 6.2147 -1.5
      vertex 16.5 6.15 -1.5
    endloop
  endfacet
  facet normal 0 0 1
    outer loop
      vertex 16.8253 6.2147 -1.5
      vertex 16.5 2.4 -1.5
      vertex 17.1212 2.31822 -1.5
    endloop
  endfacet
  facet normal 0 0 1
    outer loop
      vertex 16.1747 6.2147 -1.5
      vertex 16.5 2.4 -1.5
      vertex 16.5 6.15 -1.5
    endloop
  endfacet
  facet normal 0 0 1
    outer loop
      vertex 15.8788 2.31822 -1.5
      vertex 16.1747 6.2147 -1.5
      vertex 15.899 6.39896 -1.5
    endloop
  endfacet
  facet normal 0 0 1
    outer loop
      vertex 16.1747 6.2147 -1.5
      vertex 15.8788 2.31822 -1.5
      vertex 16.5 2.4 -1.5
    endloop
  endfacet
  facet normal 0 0 1
    outer loop
      vertex 15.3 2.07846 -1.5
      vertex 15.899 6.39896 -1.5
      vertex 15.7147 6.67472 -1.5
    endloop
  endfacet
  facet normal 0 0 1
    outer loop
      vertex 14.4215 1.2 -1.5
      vertex 15.7147 6.67472 -1.5
      vertex 15.65 7 -1.5
    endloop
  endfacet
  facet normal 0 0 1
    outer loop
      vertex 15.899 6.39896 -1.5
      vertex 15.3 2.07846 -1.5
      vertex 15.8788 2.31822 -1.5
    endloop
  endfacet
  facet normal -0 0 1
    outer loop
      vertex -17.5 8 -1.5
      vertex -4.5 -8 -1.5
      vertex -4.5 8 -1.5
    endloop
  endfacet
  facet normal 0 0 1
    outer loop
      vertex -4.5 -8 -1.5
      vertex -17.5 8 -1.5
      vertex -17.5 -8 -1.5
    endloop
  endfacet
  facet normal 0 1 -0
    outer loop
      vertex 24.5 8 -3.5
      vertex -2.5 8 -1.5
      vertex 24.5 8 -1.5
    endloop
  endfacet
  facet normal 0 1 0
    outer loop
      vertex -17.5 8 -3.5
      vertex -2.5 8 -1.5
      vertex 24.5 8 -3.5
    endloop
  endfacet
  facet normal 0 1 0
    outer loop
      vertex -2.5 8 -1.5
      vertex -17.5 8 -3.5
      vertex -4.5 8 -1.5
    endloop
  endfacet
  facet normal 0 1 0
    outer loop
      vertex -4.5 8 -1.5
      vertex -17.5 8 -3.5
      vertex -17.5 8 -1.5
    endloop
  endfacet
  facet normal 0 1 -0
    outer loop
      vertex -2.5 8 -1.5
      vertex -4.5 8 6.5
      vertex -2.5 8 6.5
    endloop
  endfacet
  facet normal 0 1 0
    outer loop
      vertex -4.5 8 6.5
      vertex -2.5 8 -1.5
      vertex -4.5 8 -1.5
    endloop
  endfacet
  facet normal 0 -1 0
    outer loop
      vertex -17.5 -8 -3.5
      vertex -4.5 -8 -1.5
      vertex -17.5 -8 -1.5
    endloop
  endfacet
  facet normal 0 -1 -0
    outer loop
      vertex -4.5 -8 -1.5
      vertex -17.5 -8 -3.5
      vertex -2.5 -8 -1.5
    endloop
  endfacet
  facet normal 0 -1 0
    outer loop
      vertex 24.5 -8 -3.5
      vertex -2.5 -8 -1.5
      vertex -17.5 -8 -3.5
    endloop
  endfacet
  facet normal 0 -1 0
    outer loop
      vertex -2.5 -8 -1.5
      vertex 24.5 -8 -3.5
      vertex 24.5 -8 -1.5
    endloop
  endfacet
  facet normal 0 -1 0
    outer loop
      vertex -4.5 -8 -1.5
      vertex -2.5 -8 6.5
      vertex -4.5 -8 6.5
    endloop
  endfacet
  facet normal 0 -1 -0
    outer loop
      vertex -2.5 -8 6.5
      vertex -4.5 -8 -1.5
      vertex -2.5 -8 -1.5
    endloop
  endfacet
  facet normal 1 -0 0
    outer loop
      vertex -2.5 -8 6.5
      vertex -2.5 8 -1.5
      vertex -2.5 8 6.5
    endloop
  endfacet
  facet normal 1 0 0
    outer loop
      vertex -2.5 8 -1.5
      vertex -2.5 -8 6.5
      vertex -2.5 -8 -1.5
    endloop
  endfacet
  facet normal -1 0 0
    outer loop
      vertex -4.5 -8 -1.5
      vertex -4.5 8 6.5
      vertex -4.5 8 -1.5
    endloop
  endfacet
  facet normal -1 -0 0
    outer loop
      vertex -4.5 8 6.5
      vertex -4.5 -8 -1.5
      vertex -4.5 -8 6.5
    endloop
  endfacet
  facet normal -0 0 1
    outer loop
      vertex -4.5 8 6.5
      vertex -2.5 -8 6.5
      vertex -2.5 8 6.5
    endloop
  endfacet
  facet normal 0 0 1
    outer loop
      vertex -2.5 -8 6.5
      vertex -4.5 8 6.5
      vertex -4.5 -8 6.5
    endloop
  endfacet
  facet normal -0.923914 -0.3826 0
    outer loop
      vertex 18.8182 0.621165 -3.5
      vertex 18.5785 1.2 -1.5
      vertex 18.5785 1.2 -3.5
    endloop
  endfacet
  facet normal -0.923914 -0.3826 0
    outer loop
      vertex 18.5785 1.2 -1.5
      vertex 18.8182 0.621165 -3.5
      vertex 18.8182 0.621165 -1.5
    endloop
  endfacet
  facet normal 0.793359 -0.608754 0
    outer loop
      vertex 14.4215 1.2 -1.5
      vertex 14.8029 1.69706 -3.5
      vertex 14.8029 1.69706 -1.5
    endloop
  endfacet
  facet normal 0.793359 -0.608754 0
    outer loop
      vertex 14.8029 1.69706 -3.5
      vertex 14.4215 1.2 -1.5
      vertex 14.4215 1.2 -3.5
    endloop
  endfacet
  facet normal 0.130522 0.991445 -0
    outer loop
      vertex 16.5 -2.4 -3.5
      vertex 15.8788 -2.31822 -1.5
      vertex 16.5 -2.4 -1.5
    endloop
  endfacet
  facet normal 0.130522 0.991445 0
    outer loop
      vertex 15.8788 -2.31822 -1.5
      vertex 16.5 -2.4 -3.5
      vertex 15.8788 -2.31822 -3.5
    endloop
  endfacet
  facet normal 0.923914 0.3826 0
    outer loop
      vertex 14.4215 -1.2 -1.5
      vertex 14.1818 -0.621165 -3.5
      vertex 14.1818 -0.621165 -1.5
    endloop
  endfacet
  facet normal 0.923914 0.3826 0
    outer loop
      vertex 14.1818 -0.621165 -3.5
      vertex 14.4215 -1.2 -1.5
      vertex 14.4215 -1.2 -3.5
    endloop
  endfacet
  facet normal 0.99144 -0.130561 0
    outer loop
      vertex 14.1 0 -1.5
      vertex 14.1818 0.621165 -3.5
      vertex 14.1818 0.621165 -1.5
    endloop
  endfacet
  facet normal 0.99144 -0.130561 0
    outer loop
      vertex 14.1818 0.621165 -3.5
      vertex 14.1 0 -1.5
      vertex 14.1 0 -3.5
    endloop
  endfacet
  facet normal 0.130522 -0.991445 0
    outer loop
      vertex 15.8788 2.31822 -3.5
      vertex 16.5 2.4 -1.5
      vertex 15.8788 2.31822 -1.5
    endloop
  endfacet
  facet normal 0.130522 -0.991445 0
    outer loop
      vertex 16.5 2.4 -1.5
      vertex 15.8788 2.31822 -3.5
      vertex 16.5 2.4 -3.5
    endloop
  endfacet
  facet normal 0.793359 0.608754 0
    outer loop
      vertex 14.8029 -1.69706 -1.5
      vertex 14.4215 -1.2 -3.5
      vertex 14.4215 -1.2 -1.5
    endloop
  endfacet
  facet normal 0.793359 0.608754 0
    outer loop
      vertex 14.4215 -1.2 -3.5
      vertex 14.8029 -1.69706 -1.5
      vertex 14.8029 -1.69706 -3.5
    endloop
  endfacet
  facet normal 0.923914 -0.3826 0
    outer loop
      vertex 14.1818 0.621165 -1.5
      vertex 14.4215 1.2 -3.5
      vertex 14.4215 1.2 -1.5
    endloop
  endfacet
  facet normal 0.923914 -0.3826 0
    outer loop
      vertex 14.4215 1.2 -3.5
      vertex 14.1818 0.621165 -1.5
      vertex 14.1818 0.621165 -3.5
    endloop
  endfacet
  facet normal -0.382701 0.923872 0
    outer loop
      vertex 17.7 -2.07846 -3.5
      vertex 17.1212 -2.31822 -1.5
      vertex 17.7 -2.07846 -1.5
    endloop
  endfacet
  facet normal -0.382701 0.923872 0
    outer loop
      vertex 17.1212 -2.31822 -1.5
      vertex 17.7 -2.07846 -3.5
      vertex 17.1212 -2.31822 -3.5
    endloop
  endfacet
  facet normal -0.608723 -0.793383 0
    outer loop
      vertex 17.7 2.07846 -3.5
      vertex 18.1971 1.69706 -1.5
      vertex 17.7 2.07846 -1.5
    endloop
  endfacet
  facet normal -0.608723 -0.793383 -0
    outer loop
      vertex 18.1971 1.69706 -1.5
      vertex 17.7 2.07846 -3.5
      vertex 18.1971 1.69706 -3.5
    endloop
  endfacet
  facet normal 0.608723 0.793383 -0
    outer loop
      vertex 15.3 -2.07846 -3.5
      vertex 14.8029 -1.69706 -1.5
      vertex 15.3 -2.07846 -1.5
    endloop
  endfacet
  facet normal 0.608723 0.793383 0
    outer loop
      vertex 14.8029 -1.69706 -1.5
      vertex 15.3 -2.07846 -3.5
      vertex 14.8029 -1.69706 -3.5
    endloop
  endfacet
  facet normal -0.793359 -0.608754 0
    outer loop
      vertex 18.5785 1.2 -3.5
      vertex 18.1971 1.69706 -1.5
      vertex 18.1971 1.69706 -3.5
    endloop
  endfacet
  facet normal -0.793359 -0.608754 0
    outer loop
      vertex 18.1971 1.69706 -1.5
      vertex 18.5785 1.2 -3.5
      vertex 18.5785 1.2 -1.5
    endloop
  endfacet
  facet normal 0.608723 -0.793383 0
    outer loop
      vertex 14.8029 1.69706 -3.5
      vertex 15.3 2.07846 -1.5
      vertex 14.8029 1.69706 -1.5
    endloop
  endfacet
  facet normal 0.608723 -0.793383 0
    outer loop
      vertex 15.3 2.07846 -1.5
      vertex 14.8029 1.69706 -3.5
      vertex 15.3 2.07846 -3.5
    endloop
  endfacet
  facet normal 0.382701 -0.923872 0
    outer loop
      vertex 15.3 2.07846 -3.5
      vertex 15.8788 2.31822 -1.5
      vertex 15.3 2.07846 -1.5
    endloop
  endfacet
  facet normal 0.382701 -0.923872 0
    outer loop
      vertex 15.8788 2.31822 -1.5
      vertex 15.3 2.07846 -3.5
      vertex 15.8788 2.31822 -3.5
    endloop
  endfacet
  facet normal -0.130522 -0.991445 0
    outer loop
      vertex 16.5 2.4 -3.5
      vertex 17.1212 2.31822 -1.5
      vertex 16.5 2.4 -1.5
    endloop
  endfacet
  facet normal -0.130522 -0.991445 -0
    outer loop
      vertex 17.1212 2.31822 -1.5
      vertex 16.5 2.4 -3.5
      vertex 17.1212 2.31822 -3.5
    endloop
  endfacet
  facet normal -0.382701 -0.923872 0
    outer loop
      vertex 17.1212 2.31822 -3.5
      vertex 17.7 2.07846 -1.5
      vertex 17.1212 2.31822 -1.5
    endloop
  endfacet
  facet normal -0.382701 -0.923872 -0
    outer loop
      vertex 17.7 2.07846 -1.5
      vertex 17.1212 2.31822 -3.5
      vertex 17.7 2.07846 -3.5
    endloop
  endfacet
  facet normal -0.99144 -0.130561 0
    outer loop
      vertex 18.9 0 -3.5
      vertex 18.8182 0.621165 -1.5
      vertex 18.8182 0.621165 -3.5
    endloop
  endfacet
  facet normal -0.99144 -0.130561 0
    outer loop
      vertex 18.8182 0.621165 -1.5
      vertex 18.9 0 -3.5
      vertex 18.9 0 -1.5
    endloop
  endfacet
  facet normal -0.608723 0.793383 0
    outer loop
      vertex 18.1971 -1.69706 -3.5
      vertex 17.7 -2.07846 -1.5
      vertex 18.1971 -1.69706 -1.5
    endloop
  endfacet
  facet normal -0.608723 0.793383 0
    outer loop
      vertex 17.7 -2.07846 -1.5
      vertex 18.1971 -1.69706 -3.5
      vertex 17.7 -2.07846 -3.5
    endloop
  endfacet
  facet normal -0.793359 0.608754 0
    outer loop
      vertex 18.1971 -1.69706 -3.5
      vertex 18.5785 -1.2 -1.5
      vertex 18.5785 -1.2 -3.5
    endloop
  endfacet
  facet normal -0.793359 0.608754 0
    outer loop
      vertex 18.5785 -1.2 -1.5
      vertex 18.1971 -1.69706 -3.5
      vertex 18.1971 -1.69706 -1.5
    endloop
  endfacet
  facet normal -0.99144 0.130561 0
    outer loop
      vertex 18.8182 -0.621165 -3.5
      vertex 18.9 0 -1.5
      vertex 18.9 0 -3.5
    endloop
  endfacet
  facet normal -0.99144 0.130561 0
    outer loop
      vertex 18.9 0 -1.5
      vertex 18.8182 -0.621165 -3.5
      vertex 18.8182 -0.621165 -1.5
    endloop
  endfacet
  facet normal -0.130522 0.991445 0
    outer loop
      vertex 17.1212 -2.31822 -3.5
      vertex 16.5 -2.4 -1.5
      vertex 17.1212 -2.31822 -1.5
    endloop
  endfacet
  facet normal -0.130522 0.991445 0
    outer loop
      vertex 16.5 -2.4 -1.5
      vertex 17.1212 -2.31822 -3.5
      vertex 16.5 -2.4 -3.5
    endloop
  endfacet
  facet normal 0.382701 0.923872 -0
    outer loop
      vertex 15.8788 -2.31822 -3.5
      vertex 15.3 -2.07846 -1.5
      vertex 15.8788 -2.31822 -1.5
    endloop
  endfacet
  facet normal 0.382701 0.923872 0
    outer loop
      vertex 15.3 -2.07846 -1.5
      vertex 15.8788 -2.31822 -3.5
      vertex 15.3 -2.07846 -3.5
    endloop
  endfacet
  facet normal -0.923914 0.3826 0
    outer loop
      vertex 18.5785 -1.2 -3.5
      vertex 18.8182 -0.621165 -1.5
      vertex 18.8182 -0.621165 -3.5
    endloop
  endfacet
  facet normal -0.923914 0.3826 0
    outer loop
      vertex 18.8182 -0.621165 -1.5
      vertex 18.5785 -1.2 -3.5
      vertex 18.5785 -1.2 -1.5
    endloop
  endfacet
  facet normal 0.99144 0.130561 0
    outer loop
      vertex 14.1818 -0.621165 -1.5
      vertex 14.1 0 -3.5
      vertex 14.1 0 -1.5
    endloop
  endfacet
  facet normal 0.99144 0.130561 0
    outer loop
      vertex 14.1 0 -3.5
      vertex 14.1818 -0.621165 -1.5
      vertex 14.1818 -0.621165 -3.5
    endloop
  endfacet
  facet normal 0.55566 -0.831409 0
    outer loop
      vertex 15.899 7.60104 -3.5
      vertex 16.1747 7.7853 -1.5
      vertex 15.899 7.60104 -1.5
    endloop
  endfacet
  facet normal 0.55566 -0.831409 0
    outer loop
      vertex 16.1747 7.7853 -1.5
      vertex 15.899 7.60104 -3.5
      vertex 16.1747 7.7853 -3.5
    endloop
  endfacet
  facet normal -0.980787 0.195084 0
    outer loop
      vertex 17.2853 6.67472 -3.5
      vertex 17.35 7 -1.5
      vertex 17.35 7 -3.5
    endloop
  endfacet
  facet normal -0.980787 0.195084 0
    outer loop
      vertex 17.35 7 -1.5
      vertex 17.2853 6.67472 -3.5
      vertex 17.2853 6.67472 -1.5
    endloop
  endfacet
  facet normal -0.195072 -0.980789 0
    outer loop
      vertex 16.5 7.85 -3.5
      vertex 16.8253 7.7853 -1.5
      vertex 16.5 7.85 -1.5
    endloop
  endfacet
  facet normal -0.195072 -0.980789 -0
    outer loop
      vertex 16.8253 7.7853 -1.5
      vertex 16.5 7.85 -3.5
      vertex 16.8253 7.7853 -3.5
    endloop
  endfacet
  facet normal -0.83141 -0.55566 0
    outer loop
      vertex 17.2853 7.32528 -3.5
      vertex 17.101 7.60104 -1.5
      vertex 17.101 7.60104 -3.5
    endloop
  endfacet
  facet normal -0.83141 -0.55566 0
    outer loop
      vertex 17.101 7.60104 -1.5
      vertex 17.2853 7.32528 -3.5
      vertex 17.2853 7.32528 -1.5
    endloop
  endfacet
  facet normal 0.980787 -0.195084 0
    outer loop
      vertex 15.65 7 -1.5
      vertex 15.7147 7.32528 -3.5
      vertex 15.7147 7.32528 -1.5
    endloop
  endfacet
  facet normal 0.980787 -0.195084 0
    outer loop
      vertex 15.7147 7.32528 -3.5
      vertex 15.65 7 -1.5
      vertex 15.65 7 -3.5
    endloop
  endfacet
  facet normal 0.195072 0.980789 -0
    outer loop
      vertex 16.5 6.15 -3.5
      vertex 16.1747 6.2147 -1.5
      vertex 16.5 6.15 -1.5
    endloop
  endfacet
  facet normal 0.195072 0.980789 0
    outer loop
      vertex 16.1747 6.2147 -1.5
      vertex 16.5 6.15 -3.5
      vertex 16.1747 6.2147 -3.5
    endloop
  endfacet
  facet normal 0.980787 0.195084 0
    outer loop
      vertex 15.7147 6.67472 -1.5
      vertex 15.65 7 -3.5
      vertex 15.65 7 -1.5
    endloop
  endfacet
  facet normal 0.980787 0.195084 0
    outer loop
      vertex 15.65 7 -3.5
      vertex 15.7147 6.67472 -1.5
      vertex 15.7147 6.67472 -3.5
    endloop
  endfacet
  facet normal 0.195072 -0.980789 0
    outer loop
      vertex 16.1747 7.7853 -3.5
      vertex 16.5 7.85 -1.5
      vertex 16.1747 7.7853 -1.5
    endloop
  endfacet
  facet normal 0.195072 -0.980789 0
    outer loop
      vertex 16.5 7.85 -1.5
      vertex 16.1747 7.7853 -3.5
      vertex 16.5 7.85 -3.5
    endloop
  endfacet
  facet normal -0.195072 0.980789 0
    outer loop
      vertex 16.8253 6.2147 -3.5
      vertex 16.5 6.15 -1.5
      vertex 16.8253 6.2147 -1.5
    endloop
  endfacet
  facet normal -0.195072 0.980789 0
    outer loop
      vertex 16.5 6.15 -1.5
      vertex 16.8253 6.2147 -3.5
      vertex 16.5 6.15 -3.5
    endloop
  endfacet
  facet normal 0.83141 -0.55566 0
    outer loop
      vertex 15.7147 7.32528 -1.5
      vertex 15.899 7.60104 -3.5
      vertex 15.899 7.60104 -1.5
    endloop
  endfacet
  facet normal 0.83141 -0.55566 0
    outer loop
      vertex 15.899 7.60104 -3.5
      vertex 15.7147 7.32528 -1.5
      vertex 15.7147 7.32528 -3.5
    endloop
  endfacet
  facet normal 0.55566 0.831409 -0
    outer loop
      vertex 16.1747 6.2147 -3.5
      vertex 15.899 6.39896 -1.5
      vertex 16.1747 6.2147 -1.5
    endloop
  endfacet
  facet normal 0.55566 0.831409 0
    outer loop
      vertex 15.899 6.39896 -1.5
      vertex 16.1747 6.2147 -3.5
      vertex 15.899 6.39896 -3.5
    endloop
  endfacet
  facet normal 0.83141 0.55566 0
    outer loop
      vertex 15.899 6.39896 -1.5
      vertex 15.7147 6.67472 -3.5
      vertex 15.7147 6.67472 -1.5
    endloop
  endfacet
  facet normal 0.83141 0.55566 0
    outer loop
      vertex 15.7147 6.67472 -3.5
      vertex 15.899 6.39896 -1.5
      vertex 15.899 6.39896 -3.5
    endloop
  endfacet
  facet normal -0.83141 0.55566 0
    outer loop
      vertex 17.101 6.39896 -3.5
      vertex 17.2853 6.67472 -1.5
      vertex 17.2853 6.67472 -3.5
    endloop
  endfacet
  facet normal -0.83141 0.55566 0
    outer loop
      vertex 17.2853 6.67472 -1.5
      vertex 17.101 6.39896 -3.5
      vertex 17.101 6.39896 -1.5
    endloop
  endfacet
  facet normal -0.55566 -0.831409 0
    outer loop
      vertex 16.8253 7.7853 -3.5
      vertex 17.101 7.60104 -1.5
      vertex 16.8253 7.7853 -1.5
    endloop
  endfacet
  facet normal -0.55566 -0.831409 -0
    outer loop
      vertex 17.101 7.60104 -1.5
      vertex 16.8253 7.7853 -3.5
      vertex 17.101 7.60104 -3.5
    endloop
  endfacet
  facet normal -0.980787 -0.195084 0
    outer loop
      vertex 17.35 7 -3.5
      vertex 17.2853 7.32528 -1.5
      vertex 17.2853 7.32528 -3.5
    endloop
  endfacet
  facet normal -0.980787 -0.195084 0
    outer loop
      vertex 17.2853 7.32528 -1.5
      vertex 17.35 7 -3.5
      vertex 17.35 7 -1.5
    endloop
  endfacet
  facet normal -0.55566 0.831409 0
    outer loop
      vertex 17.101 6.39896 -3.5
      vertex 16.8253 6.2147 -1.5
      vertex 17.101 6.39896 -1.5
    endloop
  endfacet
  facet normal -0.55566 0.831409 0
    outer loop
      vertex 16.8253 6.2147 -1.5
      vertex 17.101 6.39896 -3.5
      vertex 16.8253 6.2147 -3.5
    endloop
  endfacet
  facet normal 0.195072 -0.980789 0
    outer loop
      vertex 16.1747 -6.2147 -3.5
      vertex 16.5 -6.15 -1.5
      vertex 16.1747 -6.2147 -1.5
    endloop
  endfacet
  facet normal 0.195072 -0.980789 0
    outer loop
      vertex 16.5 -6.15 -1.5
      vertex 16.1747 -6.2147 -3.5
      vertex 16.5 -6.15 -3.5
    endloop
  endfacet
  facet normal 0.83141 0.55566 0
    outer loop
      vertex 15.899 -7.60104 -1.5
      vertex 15.7147 -7.32528 -3.5
      vertex 15.7147 -7.32528 -1.5
    endloop
  endfacet
  facet normal 0.83141 0.55566 0
    outer loop
      vertex 15.7147 -7.32528 -3.5
      vertex 15.899 -7.60104 -1.5
      vertex 15.899 -7.60104 -3.5
    endloop
  endfacet
  facet normal 0.195072 0.980789 -0
    outer loop
      vertex 16.5 -7.85 -3.5
      vertex 16.1747 -7.7853 -1.5
      vertex 16.5 -7.85 -1.5
    endloop
  endfacet
  facet normal 0.195072 0.980789 0
    outer loop
      vertex 16.1747 -7.7853 -1.5
      vertex 16.5 -7.85 -3.5
      vertex 16.1747 -7.7853 -3.5
    endloop
  endfacet
  facet normal 0.83141 -0.55566 0
    outer loop
      vertex 15.7147 -6.67472 -1.5
      vertex 15.899 -6.39896 -3.5
      vertex 15.899 -6.39896 -1.5
    endloop
  endfacet
  facet normal 0.83141 -0.55566 0
    outer loop
      vertex 15.899 -6.39896 -3.5
      vertex 15.7147 -6.67472 -1.5
      vertex 15.7147 -6.67472 -3.5
    endloop
  endfacet
  facet normal -0.980787 -0.195084 0
    outer loop
      vertex 17.35 -7 -3.5
      vertex 17.2853 -6.67472 -1.5
      vertex 17.2853 -6.67472 -3.5
    endloop
  endfacet
  facet normal -0.980787 -0.195084 0
    outer loop
      vertex 17.2853 -6.67472 -1.5
      vertex 17.35 -7 -3.5
      vertex 17.35 -7 -1.5
    endloop
  endfacet
  facet normal 0.980787 -0.195084 0
    outer loop
      vertex 15.65 -7 -1.5
      vertex 15.7147 -6.67472 -3.5
      vertex 15.7147 -6.67472 -1.5
    endloop
  endfacet
  facet normal 0.980787 -0.195084 0
    outer loop
      vertex 15.7147 -6.67472 -3.5
      vertex 15.65 -7 -1.5
      vertex 15.65 -7 -3.5
    endloop
  endfacet
  facet normal 0.55566 0.831409 -0
    outer loop
      vertex 16.1747 -7.7853 -3.5
      vertex 15.899 -7.60104 -1.5
      vertex 16.1747 -7.7853 -1.5
    endloop
  endfacet
  facet normal 0.55566 0.831409 0
    outer loop
      vertex 15.899 -7.60104 -1.5
      vertex 16.1747 -7.7853 -3.5
      vertex 15.899 -7.60104 -3.5
    endloop
  endfacet
  facet normal -0.980787 0.195084 0
    outer loop
      vertex 17.2853 -7.32528 -3.5
      vertex 17.35 -7 -1.5
      vertex 17.35 -7 -3.5
    endloop
  endfacet
  facet normal -0.980787 0.195084 0
    outer loop
      vertex 17.35 -7 -1.5
      vertex 17.2853 -7.32528 -3.5
      vertex 17.2853 -7.32528 -1.5
    endloop
  endfacet
  facet normal 0.55566 -0.831409 0
    outer loop
      vertex 15.899 -6.39896 -3.5
      vertex 16.1747 -6.2147 -1.5
      vertex 15.899 -6.39896 -1.5
    endloop
  endfacet
  facet normal 0.55566 -0.831409 0
    outer loop
      vertex 16.1747 -6.2147 -1.5
      vertex 15.899 -6.39896 -3.5
      vertex 16.1747 -6.2147 -3.5
    endloop
  endfacet
  facet normal -0.55566 0.831409 0
    outer loop
      vertex 17.101 -7.60104 -3.5
      vertex 16.8253 -7.7853 -1.5
      vertex 17.101 -7.60104 -1.5
    endloop
  endfacet
  facet normal -0.55566 0.831409 0
    outer loop
      vertex 16.8253 -7.7853 -1.5
      vertex 17.101 -7.60104 -3.5
      vertex 16.8253 -7.7853 -3.5
    endloop
  endfacet
  facet normal -0.83141 -0.55566 0
    outer loop
      vertex 17.2853 -6.67472 -3.5
      vertex 17.101 -6.39896 -1.5
      vertex 17.101 -6.39896 -3.5
    endloop
  endfacet
  facet normal -0.83141 -0.55566 0
    outer loop
      vertex 17.101 -6.39896 -1.5
      vertex 17.2853 -6.67472 -3.5
      vertex 17.2853 -6.67472 -1.5
    endloop
  endfacet
  facet normal -0.83141 0.55566 0
    outer loop
      vertex 17.101 -7.60104 -3.5
      vertex 17.2853 -7.32528 -1.5
      vertex 17.2853 -7.32528 -3.5
    endloop
  endfacet
  facet normal -0.83141 0.55566 0
    outer loop
      vertex 17.2853 -7.32528 -1.5
      vertex 17.101 -7.60104 -3.5
      vertex 17.101 -7.60104 -1.5
    endloop
  endfacet
  facet normal 0.980787 0.195084 0
    outer loop
      vertex 15.7147 -7.32528 -1.5
      vertex 15.65 -7 -3.5
      vertex 15.65 -7 -1.5
    endloop
  endfacet
  facet normal 0.980787 0.195084 0
    outer loop
      vertex 15.65 -7 -3.5
      vertex 15.7147 -7.32528 -1.5
      vertex 15.7147 -7.32528 -3.5
    endloop
  endfacet
  facet normal -0.55566 -0.831409 0
    outer loop
      vertex 16.8253 -6.2147 -3.5
      vertex 17.101 -6.39896 -1.5
      vertex 16.8253 -6.2147 -1.5
    endloop
  endfacet
  facet normal -0.55566 -0.831409 -0
    outer loop
      vertex 17.101 -6.39896 -1.5
      vertex 16.8253 -6.2147 -3.5
      vertex 17.101 -6.39896 -3.5
    endloop
  endfacet
  facet normal -0.195072 0.980789 0
    outer loop
      vertex 16.8253 -7.7853 -3.5
      vertex 16.5 -7.85 -1.5
      vertex 16.8253 -7.7853 -1.5
    endloop
  endfacet
  facet normal -0.195072 0.980789 0
    outer loop
      vertex 16.5 -7.85 -1.5
      vertex 16.8253 -7.7853 -3.5
      vertex 16.5 -7.85 -3.5
    endloop
  endfacet
  facet normal -0.195072 -0.980789 0
    outer loop
      vertex 16.5 -6.15 -3.5
      vertex 16.8253 -6.2147 -1.5
      vertex 16.5 -6.15 -1.5
    endloop
  endfacet
  facet normal -0.195072 -0.980789 -0
    outer loop
      vertex 16.8253 -6.2147 -1.5
      vertex 16.5 -6.15 -3.5
      vertex 16.8253 -6.2147 -3.5
    endloop
  endfacet
endsolid OpenSCAD_Model
