solid OpenSCAD_Model
  facet normal 1 0 0
    outer loop
      vertex -1.5 8 24.5
      vertex -1.5 7.85 16.5
      vertex -1.5 8 -2.5
    endloop
  endfacet
  facet normal 1 0 0
    outer loop
      vertex -1.5 8 24.5
      vertex -1.5 7.7853 16.8253
      vertex -1.5 7.85 16.5
    endloop
  endfacet
  facet normal 1 0 0
    outer loop
      vertex -1.5 8 24.5
      vertex -1.5 7.60104 17.101
      vertex -1.5 7.7853 16.8253
    endloop
  endfacet
  facet normal 1 0 0
    outer loop
      vertex -1.5 8 24.5
      vertex -1.5 7.32528 17.2853
      vertex -1.5 7.60104 17.101
    endloop
  endfacet
  facet normal 1 0 0
    outer loop
      vertex -1.5 8 24.5
      vertex -1.5 7 17.35
      vertex -1.5 7.32528 17.2853
    endloop
  endfacet
  facet normal 1 0 0
    outer loop
      vertex -1.5 8 24.5
      vertex -1.5 6.67472 17.2853
      vertex -1.5 7 17.35
    endloop
  endfacet
  facet normal 1 -0 0
    outer loop
      vertex -1.5 1.69706 18.1971
      vertex -1.5 6.67472 17.2853
      vertex -1.5 8 24.5
    endloop
  endfacet
  facet normal 1 0 0
    outer loop
      vertex -1.5 6.67472 17.2853
      vertex -1.5 1.69706 18.1971
      vertex -1.5 6.39896 17.101
    endloop
  endfacet
  facet normal 1 0 0
    outer loop
      vertex -1.5 6.2147 16.8253
      vertex -1.5 2.4 16.5
      vertex -1.5 6.15 16.5
    endloop
  endfacet
  facet normal 1 -0 -0
    outer loop
      vertex -1.5 2.07846 17.7
      vertex -1.5 6.39896 17.101
      vertex -1.5 1.69706 18.1971
    endloop
  endfacet
  facet normal 1 0 0
    outer loop
      vertex -1.5 6.2147 16.8253
      vertex -1.5 2.31822 17.1212
      vertex -1.5 2.4 16.5
    endloop
  endfacet
  facet normal 1 0 0
    outer loop
      vertex -1.5 6.39896 17.101
      vertex -1.5 2.31822 17.1212
      vertex -1.5 6.2147 16.8253
    endloop
  endfacet
  facet normal 1 -0 -0
    outer loop
      vertex -1.5 2.31822 17.1212
      vertex -1.5 6.39896 17.101
      vertex -1.5 2.07846 17.7
    endloop
  endfacet
  facet normal 1 0 0
    outer loop
      vertex -1.5 8 24.5
      vertex -1.5 1.2 18.5785
      vertex -1.5 1.69706 18.1971
    endloop
  endfacet
  facet normal 1 0 0
    outer loop
      vertex -1.5 8 24.5
      vertex -1.5 0.621165 18.8182
      vertex -1.5 1.2 18.5785
    endloop
  endfacet
  facet normal 1 0 0
    outer loop
      vertex -1.5 8 24.5
      vertex -1.5 0 18.9
      vertex -1.5 0.621165 18.8182
    endloop
  endfacet
  facet normal 1 -0 0
    outer loop
      vertex -1.5 -8 24.5
      vertex -1.5 0 18.9
      vertex -1.5 8 24.5
    endloop
  endfacet
  facet normal 1 0 0
    outer loop
      vertex -1.5 0 18.9
      vertex -1.5 -8 24.5
      vertex -1.5 -0.621165 18.8182
    endloop
  endfacet
  facet normal 1 -0 0
    outer loop
      vertex -1.5 -6.2147 16.8253
      vertex -1.5 -2.4 16.5
      vertex -1.5 -2.31822 17.1212
    endloop
  endfacet
  facet normal 1 0 0
    outer loop
      vertex -1.5 -6.39896 17.101
      vertex -1.5 -2.31822 17.1212
      vertex -1.5 -2.07846 17.7
    endloop
  endfacet
  facet normal 1 0 0
    outer loop
      vertex -1.5 -6.39896 17.101
      vertex -1.5 -2.07846 17.7
      vertex -1.5 -1.69706 18.1971
    endloop
  endfacet
  facet normal 1 0 0
    outer loop
      vertex -1.5 -8 24.5
      vertex -1.5 -1.69706 18.1971
      vertex -1.5 -1.2 18.5785
    endloop
  endfacet
  facet normal 1 0 0
    outer loop
      vertex -1.5 -0.621165 18.8182
      vertex -1.5 -8 24.5
      vertex -1.5 -1.2 18.5785
    endloop
  endfacet
  facet normal 1 0 0
    outer loop
      vertex -1.5 -2.4 16.5
      vertex -1.5 -6.2147 16.8253
      vertex -1.5 -6.15 16.5
    endloop
  endfacet
  facet normal 1 0 0
    outer loop
      vertex -1.5 -2.31822 17.1212
      vertex -1.5 -6.39896 17.101
      vertex -1.5 -6.2147 16.8253
    endloop
  endfacet
  facet normal 1 0 0
    outer loop
      vertex -1.5 -1.69706 18.1971
      vertex -1.5 -8 24.5
      vertex -1.5 -6.67472 17.2853
    endloop
  endfacet
  facet normal 1 0 0
    outer loop
      vertex -1.5 -1.69706 18.1971
      vertex -1.5 -6.67472 17.2853
      vertex -1.5 -6.39896 17.101
    endloop
  endfacet
  facet normal 1 0 0
    outer loop
      vertex -1.5 -6.67472 17.2853
      vertex -1.5 -8 24.5
      vertex -1.5 -7 17.35
    endloop
  endfacet
  facet normal 1 0 0
    outer loop
      vertex -1.5 -7.7853 16.8253
      vertex -1.5 -8 24.5
      vertex -1.5 -7.85 16.5
    endloop
  endfacet
  facet normal 1 0 0
    outer loop
      vertex -1.5 -7.60104 17.101
      vertex -1.5 -8 24.5
      vertex -1.5 -7.7853 16.8253
    endloop
  endfacet
  facet normal 1 0 0
    outer loop
      vertex -1.5 -7.32528 17.2853
      vertex -1.5 -8 24.5
      vertex -1.5 -7.60104 17.101
    endloop
  endfacet
  facet normal 1 0 0
    outer loop
      vertex -1.5 -7 17.35
      vertex -1.5 -8 24.5
      vertex -1.5 -7.32528 17.2853
    endloop
  endfacet
  facet normal 1 -0 0
    outer loop
      vertex -1.5 7.7853 16.1747
      vertex -1.5 8 -2.5
      vertex -1.5 7.85 16.5
    endloop
  endfacet
  facet normal 1 -0 0
    outer loop
      vertex -1.5 7.60104 15.899
      vertex -1.5 8 -2.5
      vertex -1.5 7.7853 16.1747
    endloop
  endfacet
  facet normal 1 -0 0
    outer loop
      vertex -1.5 7.32528 15.7147
      vertex -1.5 8 -2.5
      vertex -1.5 7.60104 15.899
    endloop
  endfacet
  facet normal 1 -0 0
    outer loop
      vertex -1.5 7 15.65
      vertex -1.5 8 -2.5
      vertex -1.5 7.32528 15.7147
    endloop
  endfacet
  facet normal 1 0 0
    outer loop
      vertex -1.5 1.2 14.4215
      vertex -1.5 7 15.65
      vertex -1.5 6.67472 15.7147
    endloop
  endfacet
  facet normal 1 0 0
    outer loop
      vertex -1.5 1.69706 14.8029
      vertex -1.5 6.67472 15.7147
      vertex -1.5 6.39896 15.899
    endloop
  endfacet
  facet normal 1 0 0
    outer loop
      vertex -1.5 2.31822 15.8788
      vertex -1.5 6.39896 15.899
      vertex -1.5 6.2147 16.1747
    endloop
  endfacet
  facet normal 1 -0 0
    outer loop
      vertex -1.5 2.4 16.5
      vertex -1.5 6.2147 16.1747
      vertex -1.5 6.15 16.5
    endloop
  endfacet
  facet normal 1 0 0
    outer loop
      vertex -1.5 6.2147 16.1747
      vertex -1.5 2.4 16.5
      vertex -1.5 2.31822 15.8788
    endloop
  endfacet
  facet normal 1 0 0
    outer loop
      vertex -1.5 6.39896 15.899
      vertex -1.5 2.31822 15.8788
      vertex -1.5 2.07846 15.3
    endloop
  endfacet
  facet normal 1 0 0
    outer loop
      vertex -1.5 6.39896 15.899
      vertex -1.5 2.07846 15.3
      vertex -1.5 1.69706 14.8029
    endloop
  endfacet
  facet normal 1 0 0
    outer loop
      vertex -1.5 6.67472 15.7147
      vertex -1.5 1.69706 14.8029
      vertex -1.5 1.2 14.4215
    endloop
  endfacet
  facet normal 1 0 0
    outer loop
      vertex -1.5 7 15.65
      vertex -1.5 1.2 14.4215
      vertex -1.5 8 -2.5
    endloop
  endfacet
  facet normal 1 -0 0
    outer loop
      vertex -1.5 0.621165 14.1818
      vertex -1.5 8 -2.5
      vertex -1.5 1.2 14.4215
    endloop
  endfacet
  facet normal 1 -0 0
    outer loop
      vertex -1.5 0 14.1
      vertex -1.5 8 -2.5
      vertex -1.5 0.621165 14.1818
    endloop
  endfacet
  facet normal 1 0 0
    outer loop
      vertex -1.5 -8 -2.5
      vertex -1.5 0 14.1
      vertex -1.5 -0.621165 14.1818
    endloop
  endfacet
  facet normal 1 0 0
    outer loop
      vertex -1.5 -8 -2.5
      vertex -1.5 -0.621165 14.1818
      vertex -1.5 -1.2 14.4215
    endloop
  endfacet
  facet normal 1 0 0
    outer loop
      vertex -1.5 -6.67472 15.7147
      vertex -1.5 -1.2 14.4215
      vertex -1.5 -1.69706 14.8029
    endloop
  endfacet
  facet normal 1 0 0
    outer loop
      vertex -1.5 -6.67472 15.7147
      vertex -1.5 -1.69706 14.8029
      vertex -1.5 -2.07846 15.3
    endloop
  endfacet
  facet normal 1 0 0
    outer loop
      vertex -1.5 -6.2147 16.1747
      vertex -1.5 -2.4 16.5
      vertex -1.5 -6.15 16.5
    endloop
  endfacet
  facet normal 1 0 0
    outer loop
      vertex -1.5 -2.4 16.5
      vertex -1.5 -6.2147 16.1747
      vertex -1.5 -2.31822 15.8788
    endloop
  endfacet
  facet normal 1 -0 0
    outer loop
      vertex -1.5 -6.39896 15.899
      vertex -1.5 -2.31822 15.8788
      vertex -1.5 -6.2147 16.1747
    endloop
  endfacet
  facet normal 1 0 0
    outer loop
      vertex -1.5 -2.31822 15.8788
      vertex -1.5 -6.39896 15.899
      vertex -1.5 -2.07846 15.3
    endloop
  endfacet
  facet normal 1 -0 0
    outer loop
      vertex -1.5 -6.67472 15.7147
      vertex -1.5 -2.07846 15.3
      vertex -1.5 -6.39896 15.899
    endloop
  endfacet
  facet normal 1 0 0
    outer loop
      vertex -1.5 -1.2 14.4215
      vertex -1.5 -6.67472 15.7147
      vertex -1.5 -7 15.65
    endloop
  endfacet
  facet normal 1 0 0
    outer loop
      vertex -1.5 -1.2 14.4215
      vertex -1.5 -7 15.65
      vertex -1.5 -8 -2.5
    endloop
  endfacet
  facet normal 1 0 0
    outer loop
      vertex -1.5 -8 -2.5
      vertex -1.5 -7 15.65
      vertex -1.5 -7.32528 15.7147
    endloop
  endfacet
  facet normal 1 0 0
    outer loop
      vertex -1.5 -8 -2.5
      vertex -1.5 -7.32528 15.7147
      vertex -1.5 -7.60104 15.899
    endloop
  endfacet
  facet normal 1 0 0
    outer loop
      vertex -1.5 0 14.1
      vertex -1.5 -8 -2.5
      vertex -1.5 8 -2.5
    endloop
  endfacet
  facet normal 1 0 0
    outer loop
      vertex -1.5 -7.7853 16.1747
      vertex -1.5 -8 -2.5
      vertex -1.5 -7.60104 15.899
    endloop
  endfacet
  facet normal 1 0 0
    outer loop
      vertex -1.5 -7.85 16.5
      vertex -1.5 -8 -2.5
      vertex -1.5 -7.7853 16.1747
    endloop
  endfacet
  facet normal 1 0 0
    outer loop
      vertex -1.5 -8 -2.5
      vertex -1.5 -7.85 16.5
      vertex -1.5 -8 24.5
    endloop
  endfacet
  facet normal 1 -0 0
    outer loop
      vertex -1.5 -8 -4.5
      vertex -1.5 8 -17.5
      vertex -1.5 8 -4.5
    endloop
  endfacet
  facet normal 1 0 0
    outer loop
      vertex -1.5 8 -17.5
      vertex -1.5 -8 -4.5
      vertex -1.5 -8 -17.5
    endloop
  endfacet
  facet normal -0 0 1
    outer loop
      vertex -3.5 8 24.5
      vertex -1.5 -8 24.5
      vertex -1.5 8 24.5
    endloop
  endfacet
  facet normal 0 0 1
    outer loop
      vertex -1.5 -8 24.5
      vertex -3.5 8 24.5
      vertex -3.5 -8 24.5
    endloop
  endfacet
  facet normal 0 0 -1
    outer loop
      vertex -3.5 -8 -17.5
      vertex -1.5 8 -17.5
      vertex -1.5 -8 -17.5
    endloop
  endfacet
  facet normal -0 0 -1
    outer loop
      vertex -1.5 8 -17.5
      vertex -3.5 -8 -17.5
      vertex -3.5 8 -17.5
    endloop
  endfacet
  facet normal -1 0 0
    outer loop
      vertex -3.5 8 -17.5
      vertex -3.5 7.85 16.5
      vertex -3.5 8 24.5
    endloop
  endfacet
  facet normal -1 0 0
    outer loop
      vertex -3.5 8 -17.5
      vertex -3.5 7.7853 16.1747
      vertex -3.5 7.85 16.5
    endloop
  endfacet
  facet normal -1 0 0
    outer loop
      vertex -3.5 8 -17.5
      vertex -3.5 7.60104 15.899
      vertex -3.5 7.7853 16.1747
    endloop
  endfacet
  facet normal -1 0 0
    outer loop
      vertex -3.5 8 -17.5
      vertex -3.5 7.32528 15.7147
      vertex -3.5 7.60104 15.899
    endloop
  endfacet
  facet normal -1 0 0
    outer loop
      vertex -3.5 8 -17.5
      vertex -3.5 7 15.65
      vertex -3.5 7.32528 15.7147
    endloop
  endfacet
  facet normal -1 0 0
    outer loop
      vertex -3.5 1.2 14.4215
      vertex -3.5 7 15.65
      vertex -3.5 8 -17.5
    endloop
  endfacet
  facet normal -1 -0 0
    outer loop
      vertex -3.5 7 15.65
      vertex -3.5 1.2 14.4215
      vertex -3.5 6.67472 15.7147
    endloop
  endfacet
  facet normal -1 0 -0
    outer loop
      vertex -3.5 1.69706 14.8029
      vertex -3.5 6.67472 15.7147
      vertex -3.5 1.2 14.4215
    endloop
  endfacet
  facet normal -1 -0 0
    outer loop
      vertex -3.5 6.67472 15.7147
      vertex -3.5 1.69706 14.8029
      vertex -3.5 6.39896 15.899
    endloop
  endfacet
  facet normal -1 0 -0
    outer loop
      vertex -3.5 2.07846 15.3
      vertex -3.5 6.39896 15.899
      vertex -3.5 1.69706 14.8029
    endloop
  endfacet
  facet normal -1 0 0
    outer loop
      vertex -3.5 6.2147 16.1747
      vertex -3.5 2.4 16.5
      vertex -3.5 6.15 16.5
    endloop
  endfacet
  facet normal -1 0 -0
    outer loop
      vertex -3.5 2.4 16.5
      vertex -3.5 6.2147 16.1747
      vertex -3.5 2.31822 15.8788
    endloop
  endfacet
  facet normal -1 -0 0
    outer loop
      vertex -3.5 6.39896 15.899
      vertex -3.5 2.31822 15.8788
      vertex -3.5 6.2147 16.1747
    endloop
  endfacet
  facet normal -1 0 -0
    outer loop
      vertex -3.5 2.31822 15.8788
      vertex -3.5 6.39896 15.899
      vertex -3.5 2.07846 15.3
    endloop
  endfacet
  facet normal -1 0 0
    outer loop
      vertex -3.5 8 -17.5
      vertex -3.5 0.621165 14.1818
      vertex -3.5 1.2 14.4215
    endloop
  endfacet
  facet normal -1 0 0
    outer loop
      vertex -3.5 8 -17.5
      vertex -3.5 0 14.1
      vertex -3.5 0.621165 14.1818
    endloop
  endfacet
  facet normal -1 0 0
    outer loop
      vertex -3.5 -8 -17.5
      vertex -3.5 0 14.1
      vertex -3.5 8 -17.5
    endloop
  endfacet
  facet normal -1 -0 0
    outer loop
      vertex -3.5 0 14.1
      vertex -3.5 -8 -17.5
      vertex -3.5 -0.621165 14.1818
    endloop
  endfacet
  facet normal -1 -0 0
    outer loop
      vertex -3.5 -0.621165 14.1818
      vertex -3.5 -8 -17.5
      vertex -3.5 -1.2 14.4215
    endloop
  endfacet
  facet normal -1 0 -0
    outer loop
      vertex -3.5 -7 15.65
      vertex -3.5 -1.2 14.4215
      vertex -3.5 -8 -17.5
    endloop
  endfacet
  facet normal -1 0 -0
    outer loop
      vertex -3.5 -6.67472 15.7147
      vertex -3.5 -1.2 14.4215
      vertex -3.5 -7 15.65
    endloop
  endfacet
  facet normal -1 0 0
    outer loop
      vertex -3.5 -6.2147 16.1747
      vertex -3.5 -2.4 16.5
      vertex -3.5 -2.31822 15.8788
    endloop
  endfacet
  facet normal -1 0 0
    outer loop
      vertex -3.5 -1.2 14.4215
      vertex -3.5 -6.67472 15.7147
      vertex -3.5 -1.69706 14.8029
    endloop
  endfacet
  facet normal -1 -0 0
    outer loop
      vertex -3.5 -2.4 16.5
      vertex -3.5 -6.2147 16.1747
      vertex -3.5 -6.15 16.5
    endloop
  endfacet
  facet normal -1 0 0
    outer loop
      vertex -3.5 -2.31822 15.8788
      vertex -3.5 -6.39896 15.899
      vertex -3.5 -6.2147 16.1747
    endloop
  endfacet
  facet normal -1 0 0
    outer loop
      vertex -3.5 -2.07846 15.3
      vertex -3.5 -6.39896 15.899
      vertex -3.5 -2.31822 15.8788
    endloop
  endfacet
  facet normal -1 0 0
    outer loop
      vertex -3.5 -1.69706 14.8029
      vertex -3.5 -6.67472 15.7147
      vertex -3.5 -2.07846 15.3
    endloop
  endfacet
  facet normal -1 0 -0
    outer loop
      vertex -3.5 -6.39896 15.899
      vertex -3.5 -2.07846 15.3
      vertex -3.5 -6.67472 15.7147
    endloop
  endfacet
  facet normal -1 -0 0
    outer loop
      vertex -3.5 -7 15.65
      vertex -3.5 -8 -17.5
      vertex -3.5 -7.32528 15.7147
    endloop
  endfacet
  facet normal -1 -0 0
    outer loop
      vertex -3.5 -7.32528 15.7147
      vertex -3.5 -8 -17.5
      vertex -3.5 -7.60104 15.899
    endloop
  endfacet
  facet normal -1 -0 0
    outer loop
      vertex -3.5 -7.7853 16.1747
      vertex -3.5 -8 -17.5
      vertex -3.5 -7.85 16.5
    endloop
  endfacet
  facet normal -1 -0 0
    outer loop
      vertex -3.5 -7.60104 15.899
      vertex -3.5 -8 -17.5
      vertex -3.5 -7.7853 16.1747
    endloop
  endfacet
  facet normal -1 0 0
    outer loop
      vertex -3.5 7.7853 16.8253
      vertex -3.5 8 24.5
      vertex -3.5 7.85 16.5
    endloop
  endfacet
  facet normal -1 0 0
    outer loop
      vertex -3.5 7.60104 17.101
      vertex -3.5 8 24.5
      vertex -3.5 7.7853 16.8253
    endloop
  endfacet
  facet normal -1 0 0
    outer loop
      vertex -3.5 7.32528 17.2853
      vertex -3.5 8 24.5
      vertex -3.5 7.60104 17.101
    endloop
  endfacet
  facet normal -1 0 0
    outer loop
      vertex -3.5 7 17.35
      vertex -3.5 8 24.5
      vertex -3.5 7.32528 17.2853
    endloop
  endfacet
  facet normal -1 0 0
    outer loop
      vertex -3.5 6.67472 17.2853
      vertex -3.5 8 24.5
      vertex -3.5 7 17.35
    endloop
  endfacet
  facet normal -1 0 0
    outer loop
      vertex -3.5 1.69706 18.1971
      vertex -3.5 6.67472 17.2853
      vertex -3.5 6.39896 17.101
    endloop
  endfacet
  facet normal -1 0 0
    outer loop
      vertex -3.5 2.31822 17.1212
      vertex -3.5 6.39896 17.101
      vertex -3.5 6.2147 16.8253
    endloop
  endfacet
  facet normal -1 0 0
    outer loop
      vertex -3.5 2.4 16.5
      vertex -3.5 6.2147 16.8253
      vertex -3.5 6.15 16.5
    endloop
  endfacet
  facet normal -1 0 0
    outer loop
      vertex -3.5 2.31822 17.1212
      vertex -3.5 6.2147 16.8253
      vertex -3.5 2.4 16.5
    endloop
  endfacet
  facet normal -1 0 0
    outer loop
      vertex -3.5 6.39896 17.101
      vertex -3.5 2.31822 17.1212
      vertex -3.5 2.07846 17.7
    endloop
  endfacet
  facet normal -1 0 0
    outer loop
      vertex -3.5 6.39896 17.101
      vertex -3.5 2.07846 17.7
      vertex -3.5 1.69706 18.1971
    endloop
  endfacet
  facet normal -1 0 0
    outer loop
      vertex -3.5 6.67472 17.2853
      vertex -3.5 1.69706 18.1971
      vertex -3.5 8 24.5
    endloop
  endfacet
  facet normal -1 0 0
    outer loop
      vertex -3.5 1.2 18.5785
      vertex -3.5 8 24.5
      vertex -3.5 1.69706 18.1971
    endloop
  endfacet
  facet normal -1 0 0
    outer loop
      vertex -3.5 0.621165 18.8182
      vertex -3.5 8 24.5
      vertex -3.5 1.2 18.5785
    endloop
  endfacet
  facet normal -1 0 0
    outer loop
      vertex -3.5 0 18.9
      vertex -3.5 8 24.5
      vertex -3.5 0.621165 18.8182
    endloop
  endfacet
  facet normal -1 0 0
    outer loop
      vertex -3.5 -8 24.5
      vertex -3.5 0 18.9
      vertex -3.5 -0.621165 18.8182
    endloop
  endfacet
  facet normal -1 0 0
    outer loop
      vertex -3.5 -8 24.5
      vertex -3.5 -0.621165 18.8182
      vertex -3.5 -1.2 18.5785
    endloop
  endfacet
  facet normal -1 0 0
    outer loop
      vertex -3.5 -6.2147 16.8253
      vertex -3.5 -2.4 16.5
      vertex -3.5 -6.15 16.5
    endloop
  endfacet
  facet normal -1 0 0
    outer loop
      vertex -3.5 -2.4 16.5
      vertex -3.5 -6.2147 16.8253
      vertex -3.5 -2.31822 17.1212
    endloop
  endfacet
  facet normal -1 0 0
    outer loop
      vertex -3.5 -6.39896 17.101
      vertex -3.5 -2.31822 17.1212
      vertex -3.5 -6.2147 16.8253
    endloop
  endfacet
  facet normal -1 -0 0
    outer loop
      vertex -3.5 -2.31822 17.1212
      vertex -3.5 -6.39896 17.101
      vertex -3.5 -2.07846 17.7
    endloop
  endfacet
  facet normal -1 -0 0
    outer loop
      vertex -3.5 -2.07846 17.7
      vertex -3.5 -6.39896 17.101
      vertex -3.5 -1.69706 18.1971
    endloop
  endfacet
  facet normal -1 0 0
    outer loop
      vertex -3.5 -6.67472 17.2853
      vertex -3.5 -1.69706 18.1971
      vertex -3.5 -6.39896 17.101
    endloop
  endfacet
  facet normal -1 0 0
    outer loop
      vertex -3.5 -8 24.5
      vertex -3.5 -1.69706 18.1971
      vertex -3.5 -6.67472 17.2853
    endloop
  endfacet
  facet normal -1 0 0
    outer loop
      vertex -3.5 -1.69706 18.1971
      vertex -3.5 -8 24.5
      vertex -3.5 -1.2 18.5785
    endloop
  endfacet
  facet normal -1 0 0
    outer loop
      vertex -3.5 -8 24.5
      vertex -3.5 -6.67472 17.2853
      vertex -3.5 -7 17.35
    endloop
  endfacet
  facet normal -1 0 0
    outer loop
      vertex -3.5 -8 24.5
      vertex -3.5 -7 17.35
      vertex -3.5 -7.32528 17.2853
    endloop
  endfacet
  facet normal -1 0 0
    outer loop
      vertex -3.5 0 18.9
      vertex -3.5 -8 24.5
      vertex -3.5 8 24.5
    endloop
  endfacet
  facet normal -1 0 0
    outer loop
      vertex -3.5 -7.60104 17.101
      vertex -3.5 -8 24.5
      vertex -3.5 -7.32528 17.2853
    endloop
  endfacet
  facet normal -1 0 0
    outer loop
      vertex -3.5 -7.7853 16.8253
      vertex -3.5 -8 24.5
      vertex -3.5 -7.60104 17.101
    endloop
  endfacet
  facet normal -1 0 0
    outer loop
      vertex -3.5 -7.85 16.5
      vertex -3.5 -8 24.5
      vertex -3.5 -7.7853 16.8253
    endloop
  endfacet
  facet normal -1 0 0
    outer loop
      vertex -3.5 -8 24.5
      vertex -3.5 -7.85 16.5
      vertex -3.5 -8 -17.5
    endloop
  endfacet
  facet normal 0 1 0
    outer loop
      vertex 6.5 8 -2.5
      vertex 6.5 8 -4.5
      vertex -1.5 8 -2.5
    endloop
  endfacet
  facet normal 0 1 -0
    outer loop
      vertex -1.5 8 -2.5
      vertex -3.5 8 24.5
      vertex -1.5 8 24.5
    endloop
  endfacet
  facet normal 0 1 0
    outer loop
      vertex -1.5 8 -4.5
      vertex -1.5 8 -2.5
      vertex 6.5 8 -4.5
    endloop
  endfacet
  facet normal 0 1 0
    outer loop
      vertex -3.5 8 -17.5
      vertex -1.5 8 -2.5
      vertex -1.5 8 -4.5
    endloop
  endfacet
  facet normal 0 1 0
    outer loop
      vertex -3.5 8 -17.5
      vertex -1.5 8 -4.5
      vertex -1.5 8 -17.5
    endloop
  endfacet
  facet normal 0 1 0
    outer loop
      vertex -1.5 8 -2.5
      vertex -3.5 8 -17.5
      vertex -3.5 8 24.5
    endloop
  endfacet
  facet normal 0 -1 0
    outer loop
      vertex -3.5 -8 24.5
      vertex -1.5 -8 -2.5
      vertex -1.5 -8 24.5
    endloop
  endfacet
  facet normal 0 -1 0
    outer loop
      vertex -1.5 -8 -2.5
      vertex -1.5 -8 -4.5
      vertex 6.5 -8 -2.5
    endloop
  endfacet
  facet normal 0 -1 0
    outer loop
      vertex -3.5 -8 -17.5
      vertex -1.5 -8 -2.5
      vertex -3.5 -8 24.5
    endloop
  endfacet
  facet normal 0 -1 -0
    outer loop
      vertex -1.5 -8 -2.5
      vertex -3.5 -8 -17.5
      vertex -1.5 -8 -4.5
    endloop
  endfacet
  facet normal 0 -1 -0
    outer loop
      vertex -1.5 -8 -4.5
      vertex -3.5 -8 -17.5
      vertex -1.5 -8 -17.5
    endloop
  endfacet
  facet normal 0 -1 -0
    outer loop
      vertex 6.5 -8 -2.5
      vertex -1.5 -8 -4.5
      vertex 6.5 -8 -4.5
    endloop
  endfacet
  facet normal 1 -0 0
    outer loop
      vertex 6.5 -8 -2.5
      vertex 6.5 8 -4.5
      vertex 6.5 8 -2.5
    endloop
  endfacet
  facet normal 1 0 0
    outer loop
      vertex 6.5 8 -4.5
      vertex 6.5 -8 -2.5
      vertex 6.5 -8 -4.5
    endloop
  endfacet
  facet normal -0 0 1
    outer loop
      vertex -1.5 8 -2.5
      vertex 6.5 -8 -2.5
      vertex 6.5 8 -2.5
    endloop
  endfacet
  facet normal 0 0 1
    outer loop
      vertex 6.5 -8 -2.5
      vertex -1.5 8 -2.5
      vertex -1.5 -8 -2.5
    endloop
  endfacet
  facet normal 0 0 -1
    outer loop
      vertex -1.5 -8 -4.5
      vertex 6.5 8 -4.5
      vertex 6.5 -8 -4.5
    endloop
  endfacet
  facet normal -0 0 -1
    outer loop
      vertex 6.5 8 -4.5
      vertex -1.5 -8 -4.5
      vertex -1.5 8 -4.5
    endloop
  endfacet
  facet normal 0 -0.3826 -0.923914
    outer loop
      vertex -3.5 0.621165 18.8182
      vertex -1.5 1.2 18.5785
      vertex -1.5 0.621165 18.8182
    endloop
  endfacet
  facet normal -0 -0.3826 -0.923914
    outer loop
      vertex -1.5 1.2 18.5785
      vertex -3.5 0.621165 18.8182
      vertex -3.5 1.2 18.5785
    endloop
  endfacet
  facet normal 0 -0.608754 0.793359
    outer loop
      vertex -3.5 1.69706 14.8029
      vertex -1.5 1.2 14.4215
      vertex -1.5 1.69706 14.8029
    endloop
  endfacet
  facet normal 0 -0.608754 0.793359
    outer loop
      vertex -1.5 1.2 14.4215
      vertex -3.5 1.69706 14.8029
      vertex -3.5 1.2 14.4215
    endloop
  endfacet
  facet normal 0 0.991445 0.130522
    outer loop
      vertex -1.5 -2.31822 15.8788
      vertex -3.5 -2.4 16.5
      vertex -1.5 -2.4 16.5
    endloop
  endfacet
  facet normal 0 0.991445 0.130522
    outer loop
      vertex -3.5 -2.4 16.5
      vertex -1.5 -2.31822 15.8788
      vertex -3.5 -2.31822 15.8788
    endloop
  endfacet
  facet normal -0 0.3826 0.923914
    outer loop
      vertex -3.5 -0.621165 14.1818
      vertex -1.5 -1.2 14.4215
      vertex -1.5 -0.621165 14.1818
    endloop
  endfacet
  facet normal 0 0.3826 0.923914
    outer loop
      vertex -1.5 -1.2 14.4215
      vertex -3.5 -0.621165 14.1818
      vertex -3.5 -1.2 14.4215
    endloop
  endfacet
  facet normal 0 -0.130561 0.99144
    outer loop
      vertex -3.5 0.621165 14.1818
      vertex -1.5 0 14.1
      vertex -1.5 0.621165 14.1818
    endloop
  endfacet
  facet normal 0 -0.130561 0.99144
    outer loop
      vertex -1.5 0 14.1
      vertex -3.5 0.621165 14.1818
      vertex -3.5 0 14.1
    endloop
  endfacet
  facet normal 0 -0.991445 0.130522
    outer loop
      vertex -3.5 2.31822 15.8788
      vertex -1.5 2.4 16.5
      vertex -3.5 2.4 16.5
    endloop
  endfacet
  facet normal 0 -0.991445 0.130522
    outer loop
      vertex -1.5 2.4 16.5
      vertex -3.5 2.31822 15.8788
      vertex -1.5 2.31822 15.8788
    endloop
  endfacet
  facet normal -0 0.608754 0.793359
    outer loop
      vertex -3.5 -1.2 14.4215
      vertex -1.5 -1.69706 14.8029
      vertex -1.5 -1.2 14.4215
    endloop
  endfacet
  facet normal 0 0.608754 0.793359
    outer loop
      vertex -1.5 -1.69706 14.8029
      vertex -3.5 -1.2 14.4215
      vertex -3.5 -1.69706 14.8029
    endloop
  endfacet
  facet normal 0 -0.3826 0.923914
    outer loop
      vertex -3.5 1.2 14.4215
      vertex -1.5 0.621165 14.1818
      vertex -1.5 1.2 14.4215
    endloop
  endfacet
  facet normal 0 -0.3826 0.923914
    outer loop
      vertex -1.5 0.621165 14.1818
      vertex -3.5 1.2 14.4215
      vertex -3.5 0.621165 14.1818
    endloop
  endfacet
  facet normal 0 0.923872 -0.382701
    outer loop
      vertex -1.5 -2.31822 17.1212
      vertex -3.5 -2.07846 17.7
      vertex -1.5 -2.07846 17.7
    endloop
  endfacet
  facet normal 0 0.923872 -0.382701
    outer loop
      vertex -3.5 -2.07846 17.7
      vertex -1.5 -2.31822 17.1212
      vertex -3.5 -2.31822 17.1212
    endloop
  endfacet
  facet normal 0 -0.793383 -0.608723
    outer loop
      vertex -3.5 2.07846 17.7
      vertex -1.5 1.69706 18.1971
      vertex -3.5 1.69706 18.1971
    endloop
  endfacet
  facet normal 0 -0.793383 -0.608723
    outer loop
      vertex -1.5 1.69706 18.1971
      vertex -3.5 2.07846 17.7
      vertex -1.5 2.07846 17.7
    endloop
  endfacet
  facet normal 0 0.793383 0.608723
    outer loop
      vertex -1.5 -1.69706 14.8029
      vertex -3.5 -2.07846 15.3
      vertex -1.5 -2.07846 15.3
    endloop
  endfacet
  facet normal 0 0.793383 0.608723
    outer loop
      vertex -3.5 -2.07846 15.3
      vertex -1.5 -1.69706 14.8029
      vertex -3.5 -1.69706 14.8029
    endloop
  endfacet
  facet normal 0 -0.608754 -0.793359
    outer loop
      vertex -3.5 1.2 18.5785
      vertex -1.5 1.69706 18.1971
      vertex -1.5 1.2 18.5785
    endloop
  endfacet
  facet normal -0 -0.608754 -0.793359
    outer loop
      vertex -1.5 1.69706 18.1971
      vertex -3.5 1.2 18.5785
      vertex -3.5 1.69706 18.1971
    endloop
  endfacet
  facet normal 0 -0.793383 0.608723
    outer loop
      vertex -3.5 1.69706 14.8029
      vertex -1.5 2.07846 15.3
      vertex -3.5 2.07846 15.3
    endloop
  endfacet
  facet normal 0 -0.793383 0.608723
    outer loop
      vertex -1.5 2.07846 15.3
      vertex -3.5 1.69706 14.8029
      vertex -1.5 1.69706 14.8029
    endloop
  endfacet
  facet normal 0 -0.923872 0.382701
    outer loop
      vertex -3.5 2.07846 15.3
      vertex -1.5 2.31822 15.8788
      vertex -3.5 2.31822 15.8788
    endloop
  endfacet
  facet normal 0 -0.923872 0.382701
    outer loop
      vertex -1.5 2.31822 15.8788
      vertex -3.5 2.07846 15.3
      vertex -1.5 2.07846 15.3
    endloop
  endfacet
  facet normal 0 -0.991445 -0.130522
    outer loop
      vertex -3.5 2.4 16.5
      vertex -1.5 2.31822 17.1212
      vertex -3.5 2.31822 17.1212
    endloop
  endfacet
  facet normal 0 -0.991445 -0.130522
    outer loop
      vertex -1.5 2.31822 17.1212
      vertex -3.5 2.4 16.5
      vertex -1.5 2.4 16.5
    endloop
  endfacet
  facet normal 0 -0.923872 -0.382701
    outer loop
      vertex -3.5 2.31822 17.1212
      vertex -1.5 2.07846 17.7
      vertex -3.5 2.07846 17.7
    endloop
  endfacet
  facet normal 0 -0.923872 -0.382701
    outer loop
      vertex -1.5 2.07846 17.7
      vertex -3.5 2.31822 17.1212
      vertex -1.5 2.31822 17.1212
    endloop
  endfacet
  facet normal 0 -0.130561 -0.99144
    outer loop
      vertex -3.5 0 18.9
      vertex -1.5 0.621165 18.8182
      vertex -1.5 0 18.9
    endloop
  endfacet
  facet normal -0 -0.130561 -0.99144
    outer loop
      vertex -1.5 0.621165 18.8182
      vertex -3.5 0 18.9
      vertex -3.5 0.621165 18.8182
    endloop
  endfacet
  facet normal 0 0.793383 -0.608723
    outer loop
      vertex -1.5 -2.07846 17.7
      vertex -3.5 -1.69706 18.1971
      vertex -1.5 -1.69706 18.1971
    endloop
  endfacet
  facet normal 0 0.793383 -0.608723
    outer loop
      vertex -3.5 -1.69706 18.1971
      vertex -1.5 -2.07846 17.7
      vertex -3.5 -2.07846 17.7
    endloop
  endfacet
  facet normal 0 0.608754 -0.793359
    outer loop
      vertex -3.5 -1.69706 18.1971
      vertex -1.5 -1.2 18.5785
      vertex -1.5 -1.69706 18.1971
    endloop
  endfacet
  facet normal 0 0.608754 -0.793359
    outer loop
      vertex -1.5 -1.2 18.5785
      vertex -3.5 -1.69706 18.1971
      vertex -3.5 -1.2 18.5785
    endloop
  endfacet
  facet normal 0 0.130561 -0.99144
    outer loop
      vertex -3.5 -0.621165 18.8182
      vertex -1.5 0 18.9
      vertex -1.5 -0.621165 18.8182
    endloop
  endfacet
  facet normal 0 0.130561 -0.99144
    outer loop
      vertex -1.5 0 18.9
      vertex -3.5 -0.621165 18.8182
      vertex -3.5 0 18.9
    endloop
  endfacet
  facet normal 0 0.991445 -0.130522
    outer loop
      vertex -1.5 -2.4 16.5
      vertex -3.5 -2.31822 17.1212
      vertex -1.5 -2.31822 17.1212
    endloop
  endfacet
  facet normal 0 0.991445 -0.130522
    outer loop
      vertex -3.5 -2.31822 17.1212
      vertex -1.5 -2.4 16.5
      vertex -3.5 -2.4 16.5
    endloop
  endfacet
  facet normal 0 0.923872 0.382701
    outer loop
      vertex -1.5 -2.07846 15.3
      vertex -3.5 -2.31822 15.8788
      vertex -1.5 -2.31822 15.8788
    endloop
  endfacet
  facet normal 0 0.923872 0.382701
    outer loop
      vertex -3.5 -2.31822 15.8788
      vertex -1.5 -2.07846 15.3
      vertex -3.5 -2.07846 15.3
    endloop
  endfacet
  facet normal 0 0.3826 -0.923914
    outer loop
      vertex -3.5 -1.2 18.5785
      vertex -1.5 -0.621165 18.8182
      vertex -1.5 -1.2 18.5785
    endloop
  endfacet
  facet normal 0 0.3826 -0.923914
    outer loop
      vertex -1.5 -0.621165 18.8182
      vertex -3.5 -1.2 18.5785
      vertex -3.5 -0.621165 18.8182
    endloop
  endfacet
  facet normal -0 0.130561 0.99144
    outer loop
      vertex -3.5 0 14.1
      vertex -1.5 -0.621165 14.1818
      vertex -1.5 0 14.1
    endloop
  endfacet
  facet normal 0 0.130561 0.99144
    outer loop
      vertex -1.5 -0.621165 14.1818
      vertex -3.5 0 14.1
      vertex -3.5 -0.621165 14.1818
    endloop
  endfacet
  facet normal 0 -0.55566 0.83141
    outer loop
      vertex -3.5 7.60104 15.899
      vertex -1.5 7.32528 15.7147
      vertex -1.5 7.60104 15.899
    endloop
  endfacet
  facet normal 0 -0.55566 0.83141
    outer loop
      vertex -1.5 7.32528 15.7147
      vertex -3.5 7.60104 15.899
      vertex -3.5 7.32528 15.7147
    endloop
  endfacet
  facet normal 0 -0.831409 -0.55566
    outer loop
      vertex -3.5 7.7853 16.8253
      vertex -1.5 7.60104 17.101
      vertex -3.5 7.60104 17.101
    endloop
  endfacet
  facet normal 0 -0.831409 -0.55566
    outer loop
      vertex -1.5 7.60104 17.101
      vertex -3.5 7.7853 16.8253
      vertex -1.5 7.7853 16.8253
    endloop
  endfacet
  facet normal 0 -0.980789 0.195072
    outer loop
      vertex -3.5 7.7853 16.1747
      vertex -1.5 7.85 16.5
      vertex -3.5 7.85 16.5
    endloop
  endfacet
  facet normal 0 -0.980789 0.195072
    outer loop
      vertex -1.5 7.85 16.5
      vertex -3.5 7.7853 16.1747
      vertex -1.5 7.7853 16.1747
    endloop
  endfacet
  facet normal 0 -0.195084 0.980787
    outer loop
      vertex -3.5 7.32528 15.7147
      vertex -1.5 7 15.65
      vertex -1.5 7.32528 15.7147
    endloop
  endfacet
  facet normal 0 -0.195084 0.980787
    outer loop
      vertex -1.5 7 15.65
      vertex -3.5 7.32528 15.7147
      vertex -3.5 7 15.65
    endloop
  endfacet
  facet normal -0 0.55566 0.83141
    outer loop
      vertex -3.5 6.67472 15.7147
      vertex -1.5 6.39896 15.899
      vertex -1.5 6.67472 15.7147
    endloop
  endfacet
  facet normal 0 0.55566 0.83141
    outer loop
      vertex -1.5 6.39896 15.899
      vertex -3.5 6.67472 15.7147
      vertex -3.5 6.39896 15.899
    endloop
  endfacet
  facet normal 0 -0.195084 -0.980787
    outer loop
      vertex -3.5 7 17.35
      vertex -1.5 7.32528 17.2853
      vertex -1.5 7 17.35
    endloop
  endfacet
  facet normal -0 -0.195084 -0.980787
    outer loop
      vertex -1.5 7.32528 17.2853
      vertex -3.5 7 17.35
      vertex -3.5 7.32528 17.2853
    endloop
  endfacet
  facet normal 0 0.195084 -0.980787
    outer loop
      vertex -3.5 6.67472 17.2853
      vertex -1.5 7 17.35
      vertex -1.5 6.67472 17.2853
    endloop
  endfacet
  facet normal 0 0.195084 -0.980787
    outer loop
      vertex -1.5 7 17.35
      vertex -3.5 6.67472 17.2853
      vertex -3.5 7 17.35
    endloop
  endfacet
  facet normal 0 -0.831409 0.55566
    outer loop
      vertex -3.5 7.60104 15.899
      vertex -1.5 7.7853 16.1747
      vertex -3.5 7.7853 16.1747
    endloop
  endfacet
  facet normal 0 -0.831409 0.55566
    outer loop
      vertex -1.5 7.7853 16.1747
      vertex -3.5 7.60104 15.899
      vertex -1.5 7.60104 15.899
    endloop
  endfacet
  facet normal 0 0.831409 -0.55566
    outer loop
      vertex -1.5 6.2147 16.8253
      vertex -3.5 6.39896 17.101
      vertex -1.5 6.39896 17.101
    endloop
  endfacet
  facet normal 0 0.831409 -0.55566
    outer loop
      vertex -3.5 6.39896 17.101
      vertex -1.5 6.2147 16.8253
      vertex -3.5 6.2147 16.8253
    endloop
  endfacet
  facet normal 0 0.55566 -0.83141
    outer loop
      vertex -3.5 6.39896 17.101
      vertex -1.5 6.67472 17.2853
      vertex -1.5 6.39896 17.101
    endloop
  endfacet
  facet normal 0 0.55566 -0.83141
    outer loop
      vertex -1.5 6.67472 17.2853
      vertex -3.5 6.39896 17.101
      vertex -3.5 6.67472 17.2853
    endloop
  endfacet
  facet normal 0 0.831409 0.55566
    outer loop
      vertex -1.5 6.39896 15.899
      vertex -3.5 6.2147 16.1747
      vertex -1.5 6.2147 16.1747
    endloop
  endfacet
  facet normal 0 0.831409 0.55566
    outer loop
      vertex -3.5 6.2147 16.1747
      vertex -1.5 6.39896 15.899
      vertex -3.5 6.39896 15.899
    endloop
  endfacet
  facet normal -0 0.195084 0.980787
    outer loop
      vertex -3.5 7 15.65
      vertex -1.5 6.67472 15.7147
      vertex -1.5 7 15.65
    endloop
  endfacet
  facet normal 0 0.195084 0.980787
    outer loop
      vertex -1.5 6.67472 15.7147
      vertex -3.5 7 15.65
      vertex -3.5 6.67472 15.7147
    endloop
  endfacet
  facet normal 0 -0.980789 -0.195072
    outer loop
      vertex -3.5 7.85 16.5
      vertex -1.5 7.7853 16.8253
      vertex -3.5 7.7853 16.8253
    endloop
  endfacet
  facet normal 0 -0.980789 -0.195072
    outer loop
      vertex -1.5 7.7853 16.8253
      vertex -3.5 7.85 16.5
      vertex -1.5 7.85 16.5
    endloop
  endfacet
  facet normal 0 0.980789 -0.195072
    outer loop
      vertex -1.5 6.15 16.5
      vertex -3.5 6.2147 16.8253
      vertex -1.5 6.2147 16.8253
    endloop
  endfacet
  facet normal 0 0.980789 -0.195072
    outer loop
      vertex -3.5 6.2147 16.8253
      vertex -1.5 6.15 16.5
      vertex -3.5 6.15 16.5
    endloop
  endfacet
  facet normal 0 0.980789 0.195072
    outer loop
      vertex -1.5 6.2147 16.1747
      vertex -3.5 6.15 16.5
      vertex -1.5 6.15 16.5
    endloop
  endfacet
  facet normal 0 0.980789 0.195072
    outer loop
      vertex -3.5 6.15 16.5
      vertex -1.5 6.2147 16.1747
      vertex -3.5 6.2147 16.1747
    endloop
  endfacet
  facet normal 0 -0.55566 -0.83141
    outer loop
      vertex -3.5 7.32528 17.2853
      vertex -1.5 7.60104 17.101
      vertex -1.5 7.32528 17.2853
    endloop
  endfacet
  facet normal -0 -0.55566 -0.83141
    outer loop
      vertex -1.5 7.60104 17.101
      vertex -3.5 7.32528 17.2853
      vertex -3.5 7.60104 17.101
    endloop
  endfacet
  facet normal 0 -0.980789 0.195072
    outer loop
      vertex -3.5 -6.2147 16.1747
      vertex -1.5 -6.15 16.5
      vertex -3.5 -6.15 16.5
    endloop
  endfacet
  facet normal 0 -0.980789 0.195072
    outer loop
      vertex -1.5 -6.15 16.5
      vertex -3.5 -6.2147 16.1747
      vertex -1.5 -6.2147 16.1747
    endloop
  endfacet
  facet normal -0 0.55566 0.83141
    outer loop
      vertex -3.5 -7.32528 15.7147
      vertex -1.5 -7.60104 15.899
      vertex -1.5 -7.32528 15.7147
    endloop
  endfacet
  facet normal 0 0.55566 0.83141
    outer loop
      vertex -1.5 -7.60104 15.899
      vertex -3.5 -7.32528 15.7147
      vertex -3.5 -7.60104 15.899
    endloop
  endfacet
  facet normal 0 0.980789 0.195072
    outer loop
      vertex -1.5 -7.7853 16.1747
      vertex -3.5 -7.85 16.5
      vertex -1.5 -7.85 16.5
    endloop
  endfacet
  facet normal 0 0.980789 0.195072
    outer loop
      vertex -3.5 -7.85 16.5
      vertex -1.5 -7.7853 16.1747
      vertex -3.5 -7.7853 16.1747
    endloop
  endfacet
  facet normal 0 -0.55566 0.83141
    outer loop
      vertex -3.5 -6.39896 15.899
      vertex -1.5 -6.67472 15.7147
      vertex -1.5 -6.39896 15.899
    endloop
  endfacet
  facet normal 0 -0.55566 0.83141
    outer loop
      vertex -1.5 -6.67472 15.7147
      vertex -3.5 -6.39896 15.899
      vertex -3.5 -6.67472 15.7147
    endloop
  endfacet
  facet normal 0 -0.195084 -0.980787
    outer loop
      vertex -3.5 -7 17.35
      vertex -1.5 -6.67472 17.2853
      vertex -1.5 -7 17.35
    endloop
  endfacet
  facet normal -0 -0.195084 -0.980787
    outer loop
      vertex -1.5 -6.67472 17.2853
      vertex -3.5 -7 17.35
      vertex -3.5 -6.67472 17.2853
    endloop
  endfacet
  facet normal 0 -0.195084 0.980787
    outer loop
      vertex -3.5 -6.67472 15.7147
      vertex -1.5 -7 15.65
      vertex -1.5 -6.67472 15.7147
    endloop
  endfacet
  facet normal 0 -0.195084 0.980787
    outer loop
      vertex -1.5 -7 15.65
      vertex -3.5 -6.67472 15.7147
      vertex -3.5 -7 15.65
    endloop
  endfacet
  facet normal 0 0.831409 0.55566
    outer loop
      vertex -1.5 -7.60104 15.899
      vertex -3.5 -7.7853 16.1747
      vertex -1.5 -7.7853 16.1747
    endloop
  endfacet
  facet normal 0 0.831409 0.55566
    outer loop
      vertex -3.5 -7.7853 16.1747
      vertex -1.5 -7.60104 15.899
      vertex -3.5 -7.60104 15.899
    endloop
  endfacet
  facet normal 0 0.195084 -0.980787
    outer loop
      vertex -3.5 -7.32528 17.2853
      vertex -1.5 -7 17.35
      vertex -1.5 -7.32528 17.2853
    endloop
  endfacet
  facet normal 0 0.195084 -0.980787
    outer loop
      vertex -1.5 -7 17.35
      vertex -3.5 -7.32528 17.2853
      vertex -3.5 -7 17.35
    endloop
  endfacet
  facet normal 0 -0.831409 0.55566
    outer loop
      vertex -3.5 -6.39896 15.899
      vertex -1.5 -6.2147 16.1747
      vertex -3.5 -6.2147 16.1747
    endloop
  endfacet
  facet normal 0 -0.831409 0.55566
    outer loop
      vertex -1.5 -6.2147 16.1747
      vertex -3.5 -6.39896 15.899
      vertex -1.5 -6.39896 15.899
    endloop
  endfacet
  facet normal 0 0.831409 -0.55566
    outer loop
      vertex -1.5 -7.7853 16.8253
      vertex -3.5 -7.60104 17.101
      vertex -1.5 -7.60104 17.101
    endloop
  endfacet
  facet normal 0 0.831409 -0.55566
    outer loop
      vertex -3.5 -7.60104 17.101
      vertex -1.5 -7.7853 16.8253
      vertex -3.5 -7.7853 16.8253
    endloop
  endfacet
  facet normal 0 -0.55566 -0.83141
    outer loop
      vertex -3.5 -6.67472 17.2853
      vertex -1.5 -6.39896 17.101
      vertex -1.5 -6.67472 17.2853
    endloop
  endfacet
  facet normal -0 -0.55566 -0.83141
    outer loop
      vertex -1.5 -6.39896 17.101
      vertex -3.5 -6.67472 17.2853
      vertex -3.5 -6.39896 17.101
    endloop
  endfacet
  facet normal 0 0.55566 -0.83141
    outer loop
      vertex -3.5 -7.60104 17.101
      vertex -1.5 -7.32528 17.2853
      vertex -1.5 -7.60104 17.101
    endloop
  endfacet
  facet normal 0 0.55566 -0.83141
    outer loop
      vertex -1.5 -7.32528 17.2853
      vertex -3.5 -7.60104 17.101
      vertex -3.5 -7.32528 17.2853
    endloop
  endfacet
  facet normal -0 0.195084 0.980787
    outer loop
      vertex -3.5 -7 15.65
      vertex -1.5 -7.32528 15.7147
      vertex -1.5 -7 15.65
    endloop
  endfacet
  facet normal 0 0.195084 0.980787
    outer loop
      vertex -1.5 -7.32528 15.7147
      vertex -3.5 -7 15.65
      vertex -3.5 -7.32528 15.7147
    endloop
  endfacet
  facet normal 0 -0.831409 -0.55566
    outer loop
      vertex -3.5 -6.2147 16.8253
      vertex -1.5 -6.39896 17.101
      vertex -3.5 -6.39896 17.101
    endloop
  endfacet
  facet normal 0 -0.831409 -0.55566
    outer loop
      vertex -1.5 -6.39896 17.101
      vertex -3.5 -6.2147 16.8253
      vertex -1.5 -6.2147 16.8253
    endloop
  endfacet
  facet normal 0 0.980789 -0.195072
    outer loop
      vertex -1.5 -7.85 16.5
      vertex -3.5 -7.7853 16.8253
      vertex -1.5 -7.7853 16.8253
    endloop
  endfacet
  facet normal 0 0.980789 -0.195072
    outer loop
      vertex -3.5 -7.7853 16.8253
      vertex -1.5 -7.85 16.5
      vertex -3.5 -7.85 16.5
    endloop
  endfacet
  facet normal 0 -0.980789 -0.195072
    outer loop
      vertex -3.5 -6.15 16.5
      vertex -1.5 -6.2147 16.8253
      vertex -3.5 -6.2147 16.8253
    endloop
  endfacet
  facet normal 0 -0.980789 -0.195072
    outer loop
      vertex -1.5 -6.2147 16.8253
      vertex -3.5 -6.15 16.5
      vertex -1.5 -6.15 16.5
    endloop
  endfacet
endsolid OpenSCAD_Model
