solid OpenSCAD_Model
  facet normal 0 0 -1
    outer loop
      vertex 2.1 -6 -1
      vertex 0.849999 0 -1
      vertex 2.1 6 -1
    endloop
  endfacet
  facet normal 0 0 -1
    outer loop
      vertex 2.1 -6 -1
      vertex 0.785297 -0.32528 -1
      vertex 0.849999 0 -1
    endloop
  endfacet
  facet normal 0 0 -1
    outer loop
      vertex 2.1 -6 -1
      vertex 0.60104 -0.60104 -1
      vertex 0.785297 -0.32528 -1
    endloop
  endfacet
  facet normal 0 0 -1
    outer loop
      vertex 2.1 -6 -1
      vertex 0.32528 -0.785297 -1
      vertex 0.60104 -0.60104 -1
    endloop
  endfacet
  facet normal 0 0 -1
    outer loop
      vertex 2.1 -6 -1
      vertex 0 -0.849999 -1
      vertex 0.32528 -0.785297 -1
    endloop
  endfacet
  facet normal 0 0 -1
    outer loop
      vertex -2.1 -6 -1
      vertex 0 -0.849999 -1
      vertex 2.1 -6 -1
    endloop
  endfacet
  facet normal -0 0 -1
    outer loop
      vertex 0 -0.849999 -1
      vertex -2.1 -6 -1
      vertex -0.32528 -0.785297 -1
    endloop
  endfacet
  facet normal -0 0 -1
    outer loop
      vertex -0.32528 -0.785297 -1
      vertex -2.1 -6 -1
      vertex -0.60104 -0.60104 -1
    endloop
  endfacet
  facet normal -0 0 -1
    outer loop
      vertex -0.785297 -0.32528 -1
      vertex -2.1 -6 -1
      vertex -0.849999 0 -1
    endloop
  endfacet
  facet normal -0 0 -1
    outer loop
      vertex -0.60104 -0.60104 -1
      vertex -2.1 -6 -1
      vertex -0.785297 -0.32528 -1
    endloop
  endfacet
  facet normal 0 0 -1
    outer loop
      vertex 0.785297 0.32528 -1
      vertex 2.1 6 -1
      vertex 0.849999 0 -1
    endloop
  endfacet
  facet normal 0 0 -1
    outer loop
      vertex 0.60104 0.60104 -1
      vertex 2.1 6 -1
      vertex 0.785297 0.32528 -1
    endloop
  endfacet
  facet normal 0 0 -1
    outer loop
      vertex 0.32528 0.785297 -1
      vertex 2.1 6 -1
      vertex 0.60104 0.60104 -1
    endloop
  endfacet
  facet normal 0 0 -1
    outer loop
      vertex 0 0.849999 -1
      vertex 2.1 6 -1
      vertex 0.32528 0.785297 -1
    endloop
  endfacet
  facet normal 0 0 -1
    outer loop
      vertex -2.1 6 -1
      vertex 0 0.849999 -1
      vertex -0.32528 0.785297 -1
    endloop
  endfacet
  facet normal 0 0 -1
    outer loop
      vertex -2.1 6 -1
      vertex -0.32528 0.785297 -1
      vertex -0.60104 0.60104 -1
    endloop
  endfacet
  facet normal 0 0 -1
    outer loop
      vertex -2.1 6 -1
      vertex -0.60104 0.60104 -1
      vertex -0.785297 0.32528 -1
    endloop
  endfacet
  facet normal 0 0 -1
    outer loop
      vertex -2.1 6 -1
      vertex -0.849999 0 -1
      vertex -2.1 -6 -1
    endloop
  endfacet
  facet normal 0 0 -1
    outer loop
      vertex 0 0.849999 -1
      vertex -2.1 6 -1
      vertex 2.1 6 -1
    endloop
  endfacet
  facet normal 0 0 -1
    outer loop
      vertex -0.849999 0 -1
      vertex -2.1 6 -1
      vertex -0.785297 0.32528 -1
    endloop
  endfacet
  facet normal 1 -0 0
    outer loop
      vertex 2.1 -6 1
      vertex 2.1 6 -1
      vertex 2.1 6 1
    endloop
  endfacet
  facet normal 1 0 0
    outer loop
      vertex 2.1 6 -1
      vertex 2.1 -6 1
      vertex 2.1 -6 -1
    endloop
  endfacet
  facet normal -1 0 0
    outer loop
      vertex -2.1 -6 -1
      vertex -2.1 6 1
      vertex -2.1 6 -1
    endloop
  endfacet
  facet normal -1 -0 0
    outer loop
      vertex -2.1 6 1
      vertex -2.1 -6 -1
      vertex -2.1 -6 1
    endloop
  endfacet
  facet normal 0 0 1
    outer loop
      vertex 2.1 6 1
      vertex 0.849999 0 1
      vertex 2.1 -6 1
    endloop
  endfacet
  facet normal 0 0 1
    outer loop
      vertex 2.1 6 1
      vertex 0.785297 0.32528 1
      vertex 0.849999 0 1
    endloop
  endfacet
  facet normal 0 0 1
    outer loop
      vertex 2.1 6 1
      vertex 0.60104 0.60104 1
      vertex 0.785297 0.32528 1
    endloop
  endfacet
  facet normal 0 0 1
    outer loop
      vertex 2.1 6 1
      vertex 0.32528 0.785297 1
      vertex 0.60104 0.60104 1
    endloop
  endfacet
  facet normal 0 0 1
    outer loop
      vertex 2.1 6 1
      vertex 0 0.849999 1
      vertex 0.32528 0.785297 1
    endloop
  endfacet
  facet normal -0 0 1
    outer loop
      vertex -2.1 6 1
      vertex 0 0.849999 1
      vertex 2.1 6 1
    endloop
  endfacet
  facet normal 0 0 1
    outer loop
      vertex 0 0.849999 1
      vertex -2.1 6 1
      vertex -0.32528 0.785297 1
    endloop
  endfacet
  facet normal 0 0 1
    outer loop
      vertex -0.32528 0.785297 1
      vertex -2.1 6 1
      vertex -0.60104 0.60104 1
    endloop
  endfacet
  facet normal 0 0 1
    outer loop
      vertex -0.785297 0.32528 1
      vertex -2.1 6 1
      vertex -0.849999 0 1
    endloop
  endfacet
  facet normal 0 0 1
    outer loop
      vertex -0.60104 0.60104 1
      vertex -2.1 6 1
      vertex -0.785297 0.32528 1
    endloop
  endfacet
  facet normal -0 0 1
    outer loop
      vertex 0.785297 -0.32528 1
      vertex 2.1 -6 1
      vertex 0.849999 0 1
    endloop
  endfacet
  facet normal -0 0 1
    outer loop
      vertex 0.60104 -0.60104 1
      vertex 2.1 -6 1
      vertex 0.785297 -0.32528 1
    endloop
  endfacet
  facet normal -0 0 1
    outer loop
      vertex 0.32528 -0.785297 1
      vertex 2.1 -6 1
      vertex 0.60104 -0.60104 1
    endloop
  endfacet
  facet normal -0 0 1
    outer loop
      vertex 0 -0.849999 1
      vertex 2.1 -6 1
      vertex 0.32528 -0.785297 1
    endloop
  endfacet
  facet normal 0 0 1
    outer loop
      vertex -2.1 -6 1
      vertex 0 -0.849999 1
      vertex -0.32528 -0.785297 1
    endloop
  endfacet
  facet normal 0 0 1
    outer loop
      vertex -2.1 -6 1
      vertex -0.32528 -0.785297 1
      vertex -0.60104 -0.60104 1
    endloop
  endfacet
  facet normal 0 0 1
    outer loop
      vertex -2.1 -6 1
      vertex -0.60104 -0.60104 1
      vertex -0.785297 -0.32528 1
    endloop
  endfacet
  facet normal 0 0 1
    outer loop
      vertex -2.1 -6 1
      vertex -0.849999 0 1
      vertex -2.1 6 1
    endloop
  endfacet
  facet normal 0 0 1
    outer loop
      vertex 0 -0.849999 1
      vertex -2.1 -6 1
      vertex 2.1 -6 1
    endloop
  endfacet
  facet normal 0 0 1
    outer loop
      vertex -0.849999 0 1
      vertex -2.1 -6 1
      vertex -0.785297 -0.32528 1
    endloop
  endfacet
  facet normal 0 1 -0
    outer loop
      vertex 2.1 6 -1
      vertex -2.1 6 1
      vertex 2.1 6 1
    endloop
  endfacet
  facet normal 0 1 0
    outer loop
      vertex -2.1 6 1
      vertex 2.1 6 -1
      vertex -2.1 6 -1
    endloop
  endfacet
  facet normal 0 -1 0
    outer loop
      vertex -2.1 -6 -1
      vertex 2.1 -6 1
      vertex -2.1 -6 1
    endloop
  endfacet
  facet normal 0 -1 -0
    outer loop
      vertex 2.1 -6 1
      vertex -2.1 -6 -1
      vertex 2.1 -6 -1
    endloop
  endfacet
  facet normal -0.19509 0.980785 0
    outer loop
      vertex 0.32528 -0.785297 -1
      vertex 0 -0.849999 1
      vertex 0.32528 -0.785297 1
    endloop
  endfacet
  facet normal -0.19509 0.980785 0
    outer loop
      vertex 0 -0.849999 1
      vertex 0.32528 -0.785297 -1
      vertex 0 -0.849999 -1
    endloop
  endfacet
  facet normal 0.55557 -0.83147 0
    outer loop
      vertex -0.60104 0.60104 -1
      vertex -0.32528 0.785297 1
      vertex -0.60104 0.60104 1
    endloop
  endfacet
  facet normal 0.55557 -0.83147 0
    outer loop
      vertex -0.32528 0.785297 1
      vertex -0.60104 0.60104 -1
      vertex -0.32528 0.785297 -1
    endloop
  endfacet
  facet normal 0.83147 0.55557 0
    outer loop
      vertex -0.60104 -0.60104 1
      vertex -0.785297 -0.32528 -1
      vertex -0.785297 -0.32528 1
    endloop
  endfacet
  facet normal 0.83147 0.55557 0
    outer loop
      vertex -0.785297 -0.32528 -1
      vertex -0.60104 -0.60104 1
      vertex -0.60104 -0.60104 -1
    endloop
  endfacet
  facet normal 0.55557 0.83147 -0
    outer loop
      vertex -0.32528 -0.785297 -1
      vertex -0.60104 -0.60104 1
      vertex -0.32528 -0.785297 1
    endloop
  endfacet
  facet normal 0.55557 0.83147 0
    outer loop
      vertex -0.60104 -0.60104 1
      vertex -0.32528 -0.785297 -1
      vertex -0.60104 -0.60104 -1
    endloop
  endfacet
  facet normal -0.980785 -0.19509 0
    outer loop
      vertex 0.849999 0 -1
      vertex 0.785297 0.32528 1
      vertex 0.785297 0.32528 -1
    endloop
  endfacet
  facet normal -0.980785 -0.19509 0
    outer loop
      vertex 0.785297 0.32528 1
      vertex 0.849999 0 -1
      vertex 0.849999 0 1
    endloop
  endfacet
  facet normal 0.980785 -0.19509 0
    outer loop
      vertex -0.849999 0 1
      vertex -0.785297 0.32528 -1
      vertex -0.785297 0.32528 1
    endloop
  endfacet
  facet normal 0.980785 -0.19509 0
    outer loop
      vertex -0.785297 0.32528 -1
      vertex -0.849999 0 1
      vertex -0.849999 0 -1
    endloop
  endfacet
  facet normal -0.55557 -0.83147 0
    outer loop
      vertex 0.32528 0.785297 -1
      vertex 0.60104 0.60104 1
      vertex 0.32528 0.785297 1
    endloop
  endfacet
  facet normal -0.55557 -0.83147 -0
    outer loop
      vertex 0.60104 0.60104 1
      vertex 0.32528 0.785297 -1
      vertex 0.60104 0.60104 -1
    endloop
  endfacet
  facet normal 0.980785 0.19509 0
    outer loop
      vertex -0.785297 -0.32528 1
      vertex -0.849999 0 -1
      vertex -0.849999 0 1
    endloop
  endfacet
  facet normal 0.980785 0.19509 0
    outer loop
      vertex -0.849999 0 -1
      vertex -0.785297 -0.32528 1
      vertex -0.785297 -0.32528 -1
    endloop
  endfacet
  facet normal -0.980785 0.19509 0
    outer loop
      vertex 0.785297 -0.32528 -1
      vertex 0.849999 0 1
      vertex 0.849999 0 -1
    endloop
  endfacet
  facet normal -0.980785 0.19509 0
    outer loop
      vertex 0.849999 0 1
      vertex 0.785297 -0.32528 -1
      vertex 0.785297 -0.32528 1
    endloop
  endfacet
  facet normal -0.19509 -0.980785 0
    outer loop
      vertex 0 0.849999 -1
      vertex 0.32528 0.785297 1
      vertex 0 0.849999 1
    endloop
  endfacet
  facet normal -0.19509 -0.980785 -0
    outer loop
      vertex 0.32528 0.785297 1
      vertex 0 0.849999 -1
      vertex 0.32528 0.785297 -1
    endloop
  endfacet
  facet normal 0.83147 -0.55557 0
    outer loop
      vertex -0.785297 0.32528 1
      vertex -0.60104 0.60104 -1
      vertex -0.60104 0.60104 1
    endloop
  endfacet
  facet normal 0.83147 -0.55557 0
    outer loop
      vertex -0.60104 0.60104 -1
      vertex -0.785297 0.32528 1
      vertex -0.785297 0.32528 -1
    endloop
  endfacet
  facet normal -0.83147 0.55557 0
    outer loop
      vertex 0.60104 -0.60104 -1
      vertex 0.785297 -0.32528 1
      vertex 0.785297 -0.32528 -1
    endloop
  endfacet
  facet normal -0.83147 0.55557 0
    outer loop
      vertex 0.785297 -0.32528 1
      vertex 0.60104 -0.60104 -1
      vertex 0.60104 -0.60104 1
    endloop
  endfacet
  facet normal -0.83147 -0.55557 0
    outer loop
      vertex 0.785297 0.32528 -1
      vertex 0.60104 0.60104 1
      vertex 0.60104 0.60104 -1
    endloop
  endfacet
  facet normal -0.83147 -0.55557 0
    outer loop
      vertex 0.60104 0.60104 1
      vertex 0.785297 0.32528 -1
      vertex 0.785297 0.32528 1
    endloop
  endfacet
  facet normal 0.19509 -0.980785 0
    outer loop
      vertex -0.32528 0.785297 -1
      vertex 0 0.849999 1
      vertex -0.32528 0.785297 1
    endloop
  endfacet
  facet normal 0.19509 -0.980785 0
    outer loop
      vertex 0 0.849999 1
      vertex -0.32528 0.785297 -1
      vertex 0 0.849999 -1
    endloop
  endfacet
  facet normal 0.19509 0.980785 -0
    outer loop
      vertex 0 -0.849999 -1
      vertex -0.32528 -0.785297 1
      vertex 0 -0.849999 1
    endloop
  endfacet
  facet normal 0.19509 0.980785 0
    outer loop
      vertex -0.32528 -0.785297 1
      vertex 0 -0.849999 -1
      vertex -0.32528 -0.785297 -1
    endloop
  endfacet
  facet normal -0.55557 0.83147 0
    outer loop
      vertex 0.60104 -0.60104 -1
      vertex 0.32528 -0.785297 1
      vertex 0.60104 -0.60104 1
    endloop
  endfacet
  facet normal -0.55557 0.83147 0
    outer loop
      vertex 0.32528 -0.785297 1
      vertex 0.60104 -0.60104 -1
      vertex 0.32528 -0.785297 -1
    endloop
  endfacet
endsolid OpenSCAD_Model
