solid OpenSCAD_Model
  facet normal 1 0 0
    outer loop
      vertex 2.8 37.5353 2.09472
      vertex 2.8 44.75 4.43
      vertex 2.8 37.6 2.42
    endloop
  endfacet
  facet normal 1 0 0
    outer loop
      vertex 2.8 44.75 4.43
      vertex 2.8 37.5353 2.74528
      vertex 2.8 37.6 2.42
    endloop
  endfacet
  facet normal 1 0 0
    outer loop
      vertex 2.8 44.75 4.43
      vertex 2.8 37.351 3.02104
      vertex 2.8 37.5353 2.74528
    endloop
  endfacet
  facet normal 1 0 0
    outer loop
      vertex 2.8 44.75 4.43
      vertex 2.8 37.0753 3.2053
      vertex 2.8 37.351 3.02104
    endloop
  endfacet
  facet normal 1 0 0
    outer loop
      vertex 2.8 44.75 4.43
      vertex 2.8 36.75 3.27
      vertex 2.8 37.0753 3.2053
    endloop
  endfacet
  facet normal 1 0 0
    outer loop
      vertex 2.8 28.75 4.43
      vertex 2.8 35.9 2.42
      vertex 2.8 35.9647 2.74528
    endloop
  endfacet
  facet normal 1 0 0
    outer loop
      vertex 2.8 28.75 4.43
      vertex 2.8 35.9647 2.74528
      vertex 2.8 36.149 3.02104
    endloop
  endfacet
  facet normal 1 -0 0
    outer loop
      vertex 2.8 28.75 4.43
      vertex 2.8 36.75 3.27
      vertex 2.8 44.75 4.43
    endloop
  endfacet
  facet normal 1 0 0
    outer loop
      vertex 2.8 28.75 4.43
      vertex 2.8 36.4247 3.2053
      vertex 2.8 36.75 3.27
    endloop
  endfacet
  facet normal 1 0 0
    outer loop
      vertex 2.8 28.75 4.43
      vertex 2.8 36.149 3.02104
      vertex 2.8 36.4247 3.2053
    endloop
  endfacet
  facet normal 1 0 0
    outer loop
      vertex 2.8 35.9 2.42
      vertex 2.8 28.75 4.43
      vertex 2.8 32.75 -0.879999
    endloop
  endfacet
  facet normal 1 0 0
    outer loop
      vertex 2.8 32.75 -0.879999
      vertex 2.8 28.75 4.43
      vertex 2.8 28.75 -0.879999
    endloop
  endfacet
  facet normal 1 0 0
    outer loop
      vertex 2.8 44.75 4.43
      vertex 2.8 37.5353 2.09472
      vertex 2.8 44.75 -1.67
    endloop
  endfacet
  facet normal 1 -0 0
    outer loop
      vertex 2.8 37.351 1.81896
      vertex 2.8 44.75 -1.67
      vertex 2.8 37.5353 2.09472
    endloop
  endfacet
  facet normal 1 -0 0
    outer loop
      vertex 2.8 37.0753 1.6347
      vertex 2.8 44.75 -1.67
      vertex 2.8 37.351 1.81896
    endloop
  endfacet
  facet normal 1 0 0
    outer loop
      vertex 2.8 32.75 -1.67
      vertex 2.8 37.0753 1.6347
      vertex 2.8 36.75 1.57
    endloop
  endfacet
  facet normal 1 0 0
    outer loop
      vertex 2.8 32.75 -1.67
      vertex 2.8 36.75 1.57
      vertex 2.8 36.4247 1.6347
    endloop
  endfacet
  facet normal 1 0 0
    outer loop
      vertex 2.8 32.75 -0.879999
      vertex 2.8 35.9647 2.09472
      vertex 2.8 35.9 2.42
    endloop
  endfacet
  facet normal 1 0 0
    outer loop
      vertex 2.8 32.75 -0.879999
      vertex 2.8 36.149 1.81896
      vertex 2.8 35.9647 2.09472
    endloop
  endfacet
  facet normal 1 0 0
    outer loop
      vertex 2.8 32.75 -0.879999
      vertex 2.8 36.4247 1.6347
      vertex 2.8 36.149 1.81896
    endloop
  endfacet
  facet normal 1 0 0
    outer loop
      vertex 2.8 32.75 -1.67
      vertex 2.8 36.4247 1.6347
      vertex 2.8 32.75 -0.879999
    endloop
  endfacet
  facet normal 1 0 0
    outer loop
      vertex 2.8 37.0753 1.6347
      vertex 2.8 32.75 -1.67
      vertex 2.8 44.75 -1.67
    endloop
  endfacet
  facet normal 0 -1 0
    outer loop
      vertex 0.799999 28.75 -0.879999
      vertex 2.8 28.75 4.43
      vertex 0.799999 28.75 4.43
    endloop
  endfacet
  facet normal 0 -1 -0
    outer loop
      vertex 2.8 28.75 4.43
      vertex 0.799999 28.75 -0.879999
      vertex 2.8 28.75 -0.879999
    endloop
  endfacet
  facet normal 0 1 -0
    outer loop
      vertex 2.8 44.75 -1.67
      vertex 0.799999 44.75 4.43
      vertex 2.8 44.75 4.43
    endloop
  endfacet
  facet normal 0 1 0
    outer loop
      vertex 0.799999 44.75 4.43
      vertex 2.8 44.75 -1.67
      vertex 0.799999 44.75 -1.67
    endloop
  endfacet
  facet normal -1 0 0
    outer loop
      vertex 0.799999 37.5353 2.09472
      vertex 0.799999 44.75 4.43
      vertex 0.799999 44.75 -1.67
    endloop
  endfacet
  facet normal -1 0 0
    outer loop
      vertex 0.799999 44.75 4.43
      vertex 0.799999 37.5353 2.09472
      vertex 0.799999 37.6 2.42
    endloop
  endfacet
  facet normal -1 0 0
    outer loop
      vertex 0.799999 44.75 -1.67
      vertex 0.799999 37.351 1.81896
      vertex 0.799999 37.5353 2.09472
    endloop
  endfacet
  facet normal -1 0 0
    outer loop
      vertex 0.799999 44.75 -1.67
      vertex 0.799999 37.0753 1.6347
      vertex 0.799999 37.351 1.81896
    endloop
  endfacet
  facet normal -1 0 0
    outer loop
      vertex 0.799999 32.75 -1.67
      vertex 0.799999 37.0753 1.6347
      vertex 0.799999 44.75 -1.67
    endloop
  endfacet
  facet normal -1 0 0
    outer loop
      vertex 0.799999 37.0753 1.6347
      vertex 0.799999 32.75 -1.67
      vertex 0.799999 36.75 1.57
    endloop
  endfacet
  facet normal -1 -0 0
    outer loop
      vertex 0.799999 36.149 1.81896
      vertex 0.799999 32.75 -0.879999
      vertex 0.799999 35.9647 2.09472
    endloop
  endfacet
  facet normal -1 -0 0
    outer loop
      vertex 0.799999 36.4247 1.6347
      vertex 0.799999 32.75 -0.879999
      vertex 0.799999 36.149 1.81896
    endloop
  endfacet
  facet normal -1 0 0
    outer loop
      vertex 0.799999 32.75 -0.879999
      vertex 0.799999 36.4247 1.6347
      vertex 0.799999 32.75 -1.67
    endloop
  endfacet
  facet normal -1 -0 0
    outer loop
      vertex 0.799999 36.75 1.57
      vertex 0.799999 32.75 -1.67
      vertex 0.799999 36.4247 1.6347
    endloop
  endfacet
  facet normal -1 0 0
    outer loop
      vertex 0.799999 37.5353 2.74528
      vertex 0.799999 44.75 4.43
      vertex 0.799999 37.6 2.42
    endloop
  endfacet
  facet normal -1 0 0
    outer loop
      vertex 0.799999 37.351 3.02104
      vertex 0.799999 44.75 4.43
      vertex 0.799999 37.5353 2.74528
    endloop
  endfacet
  facet normal -1 0 0
    outer loop
      vertex 0.799999 37.0753 3.2053
      vertex 0.799999 44.75 4.43
      vertex 0.799999 37.351 3.02104
    endloop
  endfacet
  facet normal -1 0 0
    outer loop
      vertex 0.799999 36.75 3.27
      vertex 0.799999 44.75 4.43
      vertex 0.799999 37.0753 3.2053
    endloop
  endfacet
  facet normal -1 -0 0
    outer loop
      vertex 0.799999 35.9647 2.09472
      vertex 0.799999 32.75 -0.879999
      vertex 0.799999 35.9 2.42
    endloop
  endfacet
  facet normal -1 0 0
    outer loop
      vertex 0.799999 28.75 4.43
      vertex 0.799999 35.9 2.42
      vertex 0.799999 32.75 -0.879999
    endloop
  endfacet
  facet normal -1 0 0
    outer loop
      vertex 0.799999 35.9 2.42
      vertex 0.799999 28.75 4.43
      vertex 0.799999 35.9647 2.74528
    endloop
  endfacet
  facet normal -1 0 0
    outer loop
      vertex 0.799999 28.75 4.43
      vertex 0.799999 32.75 -0.879999
      vertex 0.799999 28.75 -0.879999
    endloop
  endfacet
  facet normal -1 0 0
    outer loop
      vertex 0.799999 35.9647 2.74528
      vertex 0.799999 28.75 4.43
      vertex 0.799999 36.149 3.02104
    endloop
  endfacet
  facet normal -1 0 0
    outer loop
      vertex 0.799999 36.75 3.27
      vertex 0.799999 28.75 4.43
      vertex 0.799999 44.75 4.43
    endloop
  endfacet
  facet normal -1 0 0
    outer loop
      vertex 0.799999 36.4247 3.2053
      vertex 0.799999 28.75 4.43
      vertex 0.799999 36.75 3.27
    endloop
  endfacet
  facet normal -1 0 0
    outer loop
      vertex 0.799999 36.149 3.02104
      vertex 0.799999 28.75 4.43
      vertex 0.799999 36.4247 3.2053
    endloop
  endfacet
  facet normal -0 0 1
    outer loop
      vertex 0.799999 44.75 4.43
      vertex 2.8 28.75 4.43
      vertex 2.8 44.75 4.43
    endloop
  endfacet
  facet normal 0 0 1
    outer loop
      vertex 2.8 28.75 4.43
      vertex 0.799999 44.75 4.43
      vertex 0.799999 28.75 4.43
    endloop
  endfacet
  facet normal 0 0 -1
    outer loop
      vertex 0.799999 32.75 -1.67
      vertex 2.8 44.75 -1.67
      vertex 2.8 32.75 -1.67
    endloop
  endfacet
  facet normal -0 0 -1
    outer loop
      vertex 2.8 44.75 -1.67
      vertex 0.799999 32.75 -1.67
      vertex 0.799999 44.75 -1.67
    endloop
  endfacet
  facet normal 1 0 0
    outer loop
      vertex 19.4 -26.45 21.92
      vertex 19.4 -31.25 21.92
      vertex 19.4 -26.45 -0.879999
    endloop
  endfacet
  facet normal 1 -0 0
    outer loop
      vertex 19.4 -26.45 -0.879999
      vertex 19.4 32.75 -3.48
      vertex 19.4 32.75 -0.879999
    endloop
  endfacet
  facet normal 1 0 0
    outer loop
      vertex 19.4 -26.45 -0.879999
      vertex 19.4 -31.25 -3.48
      vertex 19.4 32.75 -3.48
    endloop
  endfacet
  facet normal 1 0 0
    outer loop
      vertex 19.4 -31.25 -3.48
      vertex 19.4 -26.45 -0.879999
      vertex 19.4 -31.25 21.92
    endloop
  endfacet
  facet normal 0 -1 0
    outer loop
      vertex -20.6 -31.25 -3.48
      vertex 19.4 -31.25 21.92
      vertex -20.6 -31.25 21.92
    endloop
  endfacet
  facet normal 0 -1 -0
    outer loop
      vertex 19.4 -31.25 21.92
      vertex -20.6 -31.25 -3.48
      vertex 19.4 -31.25 -3.48
    endloop
  endfacet
  facet normal 0 1 0
    outer loop
      vertex 19.4 32.75 -0.879999
      vertex 2.8 32.75 -1.67
      vertex 2.8 32.75 -0.879999
    endloop
  endfacet
  facet normal 0 1 0
    outer loop
      vertex 2.8 32.75 -1.67
      vertex 19.4 32.75 -3.48
      vertex 0.799999 32.75 -1.67
    endloop
  endfacet
  facet normal 0 1 -0
    outer loop
      vertex 19.4 32.75 -3.48
      vertex 2.8 32.75 -1.67
      vertex 19.4 32.75 -0.879999
    endloop
  endfacet
  facet normal 0 1 -0
    outer loop
      vertex 0.799999 32.75 -1.67
      vertex -20.6 32.75 -0.879999
      vertex 0.799999 32.75 -0.879999
    endloop
  endfacet
  facet normal 0 1 0
    outer loop
      vertex -20.6 32.75 -3.48
      vertex 0.799999 32.75 -1.67
      vertex 19.4 32.75 -3.48
    endloop
  endfacet
  facet normal 0 1 0
    outer loop
      vertex 0.799999 32.75 -1.67
      vertex -20.6 32.75 -3.48
      vertex -20.6 32.75 -0.879999
    endloop
  endfacet
  facet normal -1 0 0
    outer loop
      vertex -20.6 32.75 -3.48
      vertex -20.6 -26.45 -0.879999
      vertex -20.6 32.75 -0.879999
    endloop
  endfacet
  facet normal -1 0 0
    outer loop
      vertex -20.6 -31.25 -3.48
      vertex -20.6 -26.45 -0.879999
      vertex -20.6 32.75 -3.48
    endloop
  endfacet
  facet normal -1 0 0
    outer loop
      vertex -20.6 -31.25 21.92
      vertex -20.6 -26.45 -0.879999
      vertex -20.6 -31.25 -3.48
    endloop
  endfacet
  facet normal -1 0 0
    outer loop
      vertex -20.6 -26.45 -0.879999
      vertex -20.6 -31.25 21.92
      vertex -20.6 -26.45 21.92
    endloop
  endfacet
  facet normal 0 0 1
    outer loop
      vertex 0.799999 32.75 -0.879999
      vertex -20.6 32.75 -0.879999
      vertex 0.799999 28.75 -0.879999
    endloop
  endfacet
  facet normal 0 0 1
    outer loop
      vertex 2.8 28.75 -0.879999
      vertex 19.4 32.75 -0.879999
      vertex 2.8 32.75 -0.879999
    endloop
  endfacet
  facet normal 0 0 1
    outer loop
      vertex 19.4 32.75 -0.879999
      vertex 2.8 28.75 -0.879999
      vertex 19.4 -26.45 -0.879999
    endloop
  endfacet
  facet normal -0 0 1
    outer loop
      vertex 0.799999 28.75 -0.879999
      vertex 19.4 -26.45 -0.879999
      vertex 2.8 28.75 -0.879999
    endloop
  endfacet
  facet normal 0 0 1
    outer loop
      vertex -20.6 -26.45 -0.879999
      vertex 0.799999 28.75 -0.879999
      vertex -20.6 32.75 -0.879999
    endloop
  endfacet
  facet normal 0 0 1
    outer loop
      vertex 0.799999 28.75 -0.879999
      vertex -20.6 -26.45 -0.879999
      vertex 19.4 -26.45 -0.879999
    endloop
  endfacet
  facet normal 0 0 -1
    outer loop
      vertex 4.4 12.75 -3.48
      vertex 19.4 -31.25 -3.48
      vertex 4.4 -27.25 -3.48
    endloop
  endfacet
  facet normal 0 0 -1
    outer loop
      vertex 19.4 -31.25 -3.48
      vertex -5.6 -27.25 -3.48
      vertex 4.4 -27.25 -3.48
    endloop
  endfacet
  facet normal -0 0 -1
    outer loop
      vertex -5.6 -27.25 -3.48
      vertex -20.6 -31.25 -3.48
      vertex -5.6 12.75 -3.48
    endloop
  endfacet
  facet normal 0 0 -1
    outer loop
      vertex -20.6 -31.25 -3.48
      vertex -5.6 -27.25 -3.48
      vertex 19.4 -31.25 -3.48
    endloop
  endfacet
  facet normal 0 0 -1
    outer loop
      vertex 19.4 -31.25 -3.48
      vertex 4.4 12.75 -3.48
      vertex 19.4 32.75 -3.48
    endloop
  endfacet
  facet normal 0 0 -1
    outer loop
      vertex -5.6 12.75 -3.48
      vertex 19.4 32.75 -3.48
      vertex 4.4 12.75 -3.48
    endloop
  endfacet
  facet normal 0 0 -1
    outer loop
      vertex -5.6 12.75 -3.48
      vertex -20.6 32.75 -3.48
      vertex 19.4 32.75 -3.48
    endloop
  endfacet
  facet normal 0 0 -1
    outer loop
      vertex -20.6 32.75 -3.48
      vertex -5.6 12.75 -3.48
      vertex -20.6 -31.25 -3.48
    endloop
  endfacet
  facet normal 0 1 -0
    outer loop
      vertex 19.4 -26.45 -0.879999
      vertex -20.6 -26.45 21.92
      vertex 19.4 -26.45 21.92
    endloop
  endfacet
  facet normal 0 1 0
    outer loop
      vertex -20.6 -26.45 21.92
      vertex 19.4 -26.45 -0.879999
      vertex -20.6 -26.45 -0.879999
    endloop
  endfacet
  facet normal -0 0 1
    outer loop
      vertex -20.6 -26.45 21.92
      vertex 19.4 -31.25 21.92
      vertex 19.4 -26.45 21.92
    endloop
  endfacet
  facet normal 0 0 1
    outer loop
      vertex 19.4 -31.25 21.92
      vertex -20.6 -26.45 21.92
      vertex -20.6 -31.25 21.92
    endloop
  endfacet
  facet normal 1 -0 0
    outer loop
      vertex 4.4 -27.25 -3.48
      vertex 4.4 12.75 -15.78
      vertex 4.4 12.75 -3.48
    endloop
  endfacet
  facet normal 1 0 0
    outer loop
      vertex 4.4 12.75 -15.78
      vertex 4.4 -27.25 -3.48
      vertex 4.4 -27.25 -15.78
    endloop
  endfacet
  facet normal 0 -1 0
    outer loop
      vertex -5.6 -27.25 -15.78
      vertex 4.4 -27.25 -3.48
      vertex -5.6 -27.25 -3.48
    endloop
  endfacet
  facet normal 0 -1 -0
    outer loop
      vertex 4.4 -27.25 -3.48
      vertex -5.6 -27.25 -15.78
      vertex 4.4 -27.25 -15.78
    endloop
  endfacet
  facet normal 0 1 -0
    outer loop
      vertex 4.4 12.75 -15.78
      vertex -5.6 12.75 -3.48
      vertex 4.4 12.75 -3.48
    endloop
  endfacet
  facet normal 0 1 0
    outer loop
      vertex -5.6 12.75 -3.48
      vertex 4.4 12.75 -15.78
      vertex -5.6 12.75 -15.78
    endloop
  endfacet
  facet normal -1 0 0
    outer loop
      vertex -5.6 -27.25 -15.78
      vertex -5.6 12.75 -3.48
      vertex -5.6 12.75 -15.78
    endloop
  endfacet
  facet normal -1 -0 0
    outer loop
      vertex -5.6 12.75 -3.48
      vertex -5.6 -27.25 -15.78
      vertex -5.6 -27.25 -3.48
    endloop
  endfacet
  facet normal 0 0 -1
    outer loop
      vertex -5.6 -27.25 -15.78
      vertex 4.4 12.75 -15.78
      vertex 4.4 -27.25 -15.78
    endloop
  endfacet
  facet normal -0 0 -1
    outer loop
      vertex 4.4 12.75 -15.78
      vertex -5.6 -27.25 -15.78
      vertex -5.6 12.75 -15.78
    endloop
  endfacet
  facet normal 0 0.55566 -0.831409
    outer loop
      vertex 0.799999 36.149 3.02104
      vertex 2.8 36.4247 3.2053
      vertex 2.8 36.149 3.02104
    endloop
  endfacet
  facet normal 0 0.55566 -0.831409
    outer loop
      vertex 2.8 36.4247 3.2053
      vertex 0.799999 36.149 3.02104
      vertex 0.799999 36.4247 3.2053
    endloop
  endfacet
  facet normal 0 -0.55566 0.831409
    outer loop
      vertex 0.799999 37.351 1.81896
      vertex 2.8 37.0753 1.6347
      vertex 2.8 37.351 1.81896
    endloop
  endfacet
  facet normal 0 -0.55566 0.831409
    outer loop
      vertex 2.8 37.0753 1.6347
      vertex 0.799999 37.351 1.81896
      vertex 0.799999 37.0753 1.6347
    endloop
  endfacet
  facet normal 0 0.980787 -0.195084
    outer loop
      vertex 2.8 35.9 2.42
      vertex 0.799999 35.9647 2.74528
      vertex 2.8 35.9647 2.74528
    endloop
  endfacet
  facet normal 0 0.980787 -0.195084
    outer loop
      vertex 0.799999 35.9647 2.74528
      vertex 2.8 35.9 2.42
      vertex 0.799999 35.9 2.42
    endloop
  endfacet
  facet normal 0 -0.980787 -0.195084
    outer loop
      vertex 0.799999 37.6 2.42
      vertex 2.8 37.5353 2.74528
      vertex 0.799999 37.5353 2.74528
    endloop
  endfacet
  facet normal 0 -0.980787 -0.195084
    outer loop
      vertex 2.8 37.5353 2.74528
      vertex 0.799999 37.6 2.42
      vertex 2.8 37.6 2.42
    endloop
  endfacet
  facet normal 0 0.195072 -0.980789
    outer loop
      vertex 0.799999 36.4247 3.2053
      vertex 2.8 36.75 3.27
      vertex 2.8 36.4247 3.2053
    endloop
  endfacet
  facet normal 0 0.195072 -0.980789
    outer loop
      vertex 2.8 36.75 3.27
      vertex 0.799999 36.4247 3.2053
      vertex 0.799999 36.75 3.27
    endloop
  endfacet
  facet normal 0 -0.195072 0.980789
    outer loop
      vertex 0.799999 37.0753 1.6347
      vertex 2.8 36.75 1.57
      vertex 2.8 37.0753 1.6347
    endloop
  endfacet
  facet normal 0 -0.195072 0.980789
    outer loop
      vertex 2.8 36.75 1.57
      vertex 0.799999 37.0753 1.6347
      vertex 0.799999 36.75 1.57
    endloop
  endfacet
  facet normal 0 -0.83141 -0.55566
    outer loop
      vertex 0.799999 37.5353 2.74528
      vertex 2.8 37.351 3.02104
      vertex 0.799999 37.351 3.02104
    endloop
  endfacet
  facet normal 0 -0.83141 -0.55566
    outer loop
      vertex 2.8 37.351 3.02104
      vertex 0.799999 37.5353 2.74528
      vertex 2.8 37.5353 2.74528
    endloop
  endfacet
  facet normal 0 -0.55566 -0.831409
    outer loop
      vertex 0.799999 37.0753 3.2053
      vertex 2.8 37.351 3.02104
      vertex 2.8 37.0753 3.2053
    endloop
  endfacet
  facet normal -0 -0.55566 -0.831409
    outer loop
      vertex 2.8 37.351 3.02104
      vertex 0.799999 37.0753 3.2053
      vertex 0.799999 37.351 3.02104
    endloop
  endfacet
  facet normal 0 -0.195072 -0.980789
    outer loop
      vertex 0.799999 36.75 3.27
      vertex 2.8 37.0753 3.2053
      vertex 2.8 36.75 3.27
    endloop
  endfacet
  facet normal -0 -0.195072 -0.980789
    outer loop
      vertex 2.8 37.0753 3.2053
      vertex 0.799999 36.75 3.27
      vertex 0.799999 37.0753 3.2053
    endloop
  endfacet
  facet normal 0 0.83141 -0.55566
    outer loop
      vertex 2.8 35.9647 2.74528
      vertex 0.799999 36.149 3.02104
      vertex 2.8 36.149 3.02104
    endloop
  endfacet
  facet normal 0 0.83141 -0.55566
    outer loop
      vertex 0.799999 36.149 3.02104
      vertex 2.8 35.9647 2.74528
      vertex 0.799999 35.9647 2.74528
    endloop
  endfacet
  facet normal -0 0.55566 0.831409
    outer loop
      vertex 0.799999 36.4247 1.6347
      vertex 2.8 36.149 1.81896
      vertex 2.8 36.4247 1.6347
    endloop
  endfacet
  facet normal 0 0.55566 0.831409
    outer loop
      vertex 2.8 36.149 1.81896
      vertex 0.799999 36.4247 1.6347
      vertex 0.799999 36.149 1.81896
    endloop
  endfacet
  facet normal -0 0.195072 0.980789
    outer loop
      vertex 0.799999 36.75 1.57
      vertex 2.8 36.4247 1.6347
      vertex 2.8 36.75 1.57
    endloop
  endfacet
  facet normal 0 0.195072 0.980789
    outer loop
      vertex 2.8 36.4247 1.6347
      vertex 0.799999 36.75 1.57
      vertex 0.799999 36.4247 1.6347
    endloop
  endfacet
  facet normal 0 -0.83141 0.55566
    outer loop
      vertex 0.799999 37.351 1.81896
      vertex 2.8 37.5353 2.09472
      vertex 0.799999 37.5353 2.09472
    endloop
  endfacet
  facet normal 0 -0.83141 0.55566
    outer loop
      vertex 2.8 37.5353 2.09472
      vertex 0.799999 37.351 1.81896
      vertex 2.8 37.351 1.81896
    endloop
  endfacet
  facet normal 0 -0.980787 0.195084
    outer loop
      vertex 0.799999 37.5353 2.09472
      vertex 2.8 37.6 2.42
      vertex 0.799999 37.6 2.42
    endloop
  endfacet
  facet normal 0 -0.980787 0.195084
    outer loop
      vertex 2.8 37.6 2.42
      vertex 0.799999 37.5353 2.09472
      vertex 2.8 37.5353 2.09472
    endloop
  endfacet
  facet normal 0 0.980787 0.195084
    outer loop
      vertex 2.8 35.9647 2.09472
      vertex 0.799999 35.9 2.42
      vertex 2.8 35.9 2.42
    endloop
  endfacet
  facet normal 0 0.980787 0.195084
    outer loop
      vertex 0.799999 35.9 2.42
      vertex 2.8 35.9647 2.09472
      vertex 0.799999 35.9647 2.09472
    endloop
  endfacet
  facet normal 0 0.83141 0.55566
    outer loop
      vertex 2.8 36.149 1.81896
      vertex 0.799999 35.9647 2.09472
      vertex 2.8 35.9647 2.09472
    endloop
  endfacet
  facet normal 0 0.83141 0.55566
    outer loop
      vertex 0.799999 35.9647 2.09472
      vertex 2.8 36.149 1.81896
      vertex 0.799999 36.149 1.81896
    endloop
  endfacet
endsolid OpenSCAD_Model
