solid OpenSCAD_Model
  facet normal 1 -0 0
    outer loop
      vertex 8 -1 12
      vertex 8 1 -12
      vertex 8 1 12
    endloop
  endfacet
  facet normal 1 0 0
    outer loop
      vertex 8 1 -12
      vertex 8 -1 12
      vertex 8 -1 -12
    endloop
  endfacet
  facet normal -0 0 1
    outer loop
      vertex -8 1 12
      vertex 8 -1 12
      vertex 8 1 12
    endloop
  endfacet
  facet normal 0 0 1
    outer loop
      vertex 8 -1 12
      vertex -8 1 12
      vertex -8 -1 12
    endloop
  endfacet
  facet normal 0 0 -1
    outer loop
      vertex -8 -1 -12
      vertex 8 1 -12
      vertex 8 -1 -12
    endloop
  endfacet
  facet normal -0 0 -1
    outer loop
      vertex 8 1 -12
      vertex -8 -1 -12
      vertex -8 1 -12
    endloop
  endfacet
  facet normal -1 0 0
    outer loop
      vertex -8 -1 -12
      vertex -8 1 12
      vertex -8 1 -12
    endloop
  endfacet
  facet normal -1 -0 0
    outer loop
      vertex -8 1 12
      vertex -8 -1 -12
      vertex -8 -1 12
    endloop
  endfacet
  facet normal 0 1 0
    outer loop
      vertex -8 1 12
      vertex -6.67472 1 0.785297
      vertex -7 1 0.849999
    endloop
  endfacet
  facet normal 0 1 0
    outer loop
      vertex -6.39896 1 0.60104
      vertex -2.07846 1 1.2
      vertex -2.31822 1 0.621165
    endloop
  endfacet
  facet normal 0 1 0
    outer loop
      vertex -2.07846 1 1.2
      vertex -6.39896 1 0.60104
      vertex -6.67472 1 0.785297
    endloop
  endfacet
  facet normal 0 1 0
    outer loop
      vertex -2.31822 1 0.621165
      vertex -6.2147 1 0.32528
      vertex -6.39896 1 0.60104
    endloop
  endfacet
  facet normal 0 1 -0
    outer loop
      vertex -2.4 1 0
      vertex -6.2147 1 0.32528
      vertex -2.31822 1 0.621165
    endloop
  endfacet
  facet normal 0 1 0
    outer loop
      vertex -2.4 1 0
      vertex -6.15 1 0
      vertex -6.2147 1 0.32528
    endloop
  endfacet
  facet normal 0 1 0
    outer loop
      vertex -2.4 1 0
      vertex -6.2147 1 -0.32528
      vertex -6.15 1 0
    endloop
  endfacet
  facet normal 0 1 0
    outer loop
      vertex -2.31822 1 -0.621165
      vertex -6.2147 1 -0.32528
      vertex -2.4 1 0
    endloop
  endfacet
  facet normal 0 1 0
    outer loop
      vertex -6.2147 1 -0.32528
      vertex -2.31822 1 -0.621165
      vertex -6.39896 1 -0.60104
    endloop
  endfacet
  facet normal 0 1 0
    outer loop
      vertex -2.07846 1 -1.2
      vertex -6.39896 1 -0.60104
      vertex -2.31822 1 -0.621165
    endloop
  endfacet
  facet normal 0 1 0
    outer loop
      vertex -6.39896 1 -0.60104
      vertex -2.07846 1 -1.2
      vertex -6.67472 1 -0.785297
    endloop
  endfacet
  facet normal 0 1 0
    outer loop
      vertex -1.69706 1 -1.69706
      vertex -6.67472 1 -0.785297
      vertex -2.07846 1 -1.2
    endloop
  endfacet
  facet normal 0 1 0
    outer loop
      vertex 8 1 12
      vertex 0 1 2.4
      vertex -8 1 12
    endloop
  endfacet
  facet normal 0 1 0
    outer loop
      vertex 8 1 12
      vertex 0.621165 1 2.31822
      vertex 0 1 2.4
    endloop
  endfacet
  facet normal 0 1 0
    outer loop
      vertex 8 1 12
      vertex 1.2 1 2.07846
      vertex 0.621165 1 2.31822
    endloop
  endfacet
  facet normal 0 1 0
    outer loop
      vertex 8 1 12
      vertex 1.69706 1 1.69706
      vertex 1.2 1 2.07846
    endloop
  endfacet
  facet normal 0 1 -0
    outer loop
      vertex 6.67472 1 0.785297
      vertex 1.69706 1 1.69706
      vertex 8 1 12
    endloop
  endfacet
  facet normal 0 1 0
    outer loop
      vertex 6.67472 1 0.785297
      vertex 8 1 12
      vertex 7 1 0.849999
    endloop
  endfacet
  facet normal 0 1 0
    outer loop
      vertex 8 1 12
      vertex 7.32528 1 0.785297
      vertex 7 1 0.849999
    endloop
  endfacet
  facet normal 0 1 0
    outer loop
      vertex 8 1 12
      vertex 7.60104 1 0.60104
      vertex 7.32528 1 0.785297
    endloop
  endfacet
  facet normal 0 1 0
    outer loop
      vertex 8 1 12
      vertex 7.7853 1 0.32528
      vertex 7.60104 1 0.60104
    endloop
  endfacet
  facet normal 0 1 0
    outer loop
      vertex 8 1 12
      vertex 7.85 1 0
      vertex 7.7853 1 0.32528
    endloop
  endfacet
  facet normal 0 1 0
    outer loop
      vertex 6.67472 1 -0.785297
      vertex 1.69706 1 -1.69706
      vertex 2.07846 1 -1.2
    endloop
  endfacet
  facet normal 0 1 0
    outer loop
      vertex 6.67472 1 -0.785297
      vertex 8 1 -12
      vertex 1.69706 1 -1.69706
    endloop
  endfacet
  facet normal 0 1 0
    outer loop
      vertex 8 1 -12
      vertex 7 1 -0.849999
      vertex 7.32528 1 -0.785297
    endloop
  endfacet
  facet normal 0 1 0
    outer loop
      vertex 1.69706 1 -1.69706
      vertex 8 1 -12
      vertex 1.2 1 -2.07846
    endloop
  endfacet
  facet normal 0 1 0
    outer loop
      vertex 0.621165 1 -2.31822
      vertex 8 1 -12
      vertex 0 1 -2.4
    endloop
  endfacet
  facet normal 0 1 0
    outer loop
      vertex 1.2 1 -2.07846
      vertex 8 1 -12
      vertex 0.621165 1 -2.31822
    endloop
  endfacet
  facet normal 0 1 0
    outer loop
      vertex 7.60104 1 -0.60104
      vertex 8 1 -12
      vertex 7.32528 1 -0.785297
    endloop
  endfacet
  facet normal 0 1 0
    outer loop
      vertex 7.7853 1 -0.32528
      vertex 8 1 -12
      vertex 7.60104 1 -0.60104
    endloop
  endfacet
  facet normal 0 1 0
    outer loop
      vertex 7.85 1 0
      vertex 8 1 -12
      vertex 7.7853 1 -0.32528
    endloop
  endfacet
  facet normal 0 1 -0
    outer loop
      vertex 8 1 -12
      vertex 7.85 1 0
      vertex 8 1 12
    endloop
  endfacet
  facet normal 0 1 -0
    outer loop
      vertex -0.621165 1 2.31822
      vertex -8 1 12
      vertex 0 1 2.4
    endloop
  endfacet
  facet normal 0 1 -0
    outer loop
      vertex -1.2 1 2.07846
      vertex -8 1 12
      vertex -0.621165 1 2.31822
    endloop
  endfacet
  facet normal 0 1 -0
    outer loop
      vertex -1.69706 1 1.69706
      vertex -8 1 12
      vertex -1.2 1 2.07846
    endloop
  endfacet
  facet normal 0 1 0
    outer loop
      vertex -6.67472 1 0.785297
      vertex -1.69706 1 1.69706
      vertex -2.07846 1 1.2
    endloop
  endfacet
  facet normal 0 1 -0
    outer loop
      vertex -6.67472 1 0.785297
      vertex -8 1 12
      vertex -1.69706 1 1.69706
    endloop
  endfacet
  facet normal 0 1 -0
    outer loop
      vertex -7.32528 1 0.785297
      vertex -8 1 12
      vertex -7 1 0.849999
    endloop
  endfacet
  facet normal 0 1 -0
    outer loop
      vertex -7.60104 1 0.60104
      vertex -8 1 12
      vertex -7.32528 1 0.785297
    endloop
  endfacet
  facet normal 0 1 -0
    outer loop
      vertex -7.7853 1 0.32528
      vertex -8 1 12
      vertex -7.60104 1 0.60104
    endloop
  endfacet
  facet normal 0 1 -0
    outer loop
      vertex -7.85 1 0
      vertex -8 1 12
      vertex -7.7853 1 0.32528
    endloop
  endfacet
  facet normal 0 1 0
    outer loop
      vertex -8 1 -12
      vertex -6.67472 1 -0.785297
      vertex -1.69706 1 -1.69706
    endloop
  endfacet
  facet normal 0 1 0
    outer loop
      vertex -8 1 -12
      vertex -1.69706 1 -1.69706
      vertex -1.2 1 -2.07846
    endloop
  endfacet
  facet normal 0 1 0
    outer loop
      vertex -6.67472 1 -0.785297
      vertex -8 1 -12
      vertex -7 1 -0.849999
    endloop
  endfacet
  facet normal 0 1 0
    outer loop
      vertex -8 1 -12
      vertex -1.2 1 -2.07846
      vertex -0.621165 1 -2.31822
    endloop
  endfacet
  facet normal 0 1 0
    outer loop
      vertex -8 1 -12
      vertex 0 1 -2.4
      vertex 8 1 -12
    endloop
  endfacet
  facet normal 0 1 0
    outer loop
      vertex 0 1 -2.4
      vertex -8 1 -12
      vertex -0.621165 1 -2.31822
    endloop
  endfacet
  facet normal 0 1 0
    outer loop
      vertex -7 1 -0.849999
      vertex -8 1 -12
      vertex -7.32528 1 -0.785297
    endloop
  endfacet
  facet normal 0 1 0
    outer loop
      vertex -7.85 1 0
      vertex -8 1 -12
      vertex -8 1 12
    endloop
  endfacet
  facet normal 0 1 0
    outer loop
      vertex -7.7853 1 -0.32528
      vertex -8 1 -12
      vertex -7.85 1 0
    endloop
  endfacet
  facet normal 0 1 0
    outer loop
      vertex -7.60104 1 -0.60104
      vertex -8 1 -12
      vertex -7.7853 1 -0.32528
    endloop
  endfacet
  facet normal 0 1 0
    outer loop
      vertex -7.32528 1 -0.785297
      vertex -8 1 -12
      vertex -7.60104 1 -0.60104
    endloop
  endfacet
  facet normal 0 1 0
    outer loop
      vertex 1.69706 1 1.69706
      vertex 6.67472 1 0.785297
      vertex 2.07846 1 1.2
    endloop
  endfacet
  facet normal 0 1 -0
    outer loop
      vertex 6.39896 1 0.60104
      vertex 2.07846 1 1.2
      vertex 6.67472 1 0.785297
    endloop
  endfacet
  facet normal 0 1 0
    outer loop
      vertex 2.07846 1 1.2
      vertex 6.39896 1 0.60104
      vertex 2.31822 1 0.621165
    endloop
  endfacet
  facet normal 0 1 -0
    outer loop
      vertex 6.2147 1 0.32528
      vertex 2.31822 1 0.621165
      vertex 6.39896 1 0.60104
    endloop
  endfacet
  facet normal 0 1 0
    outer loop
      vertex 2.4 1 0
      vertex 6.2147 1 0.32528
      vertex 6.15 1 0
    endloop
  endfacet
  facet normal 0 1 0
    outer loop
      vertex 6.2147 1 0.32528
      vertex 2.4 1 0
      vertex 2.31822 1 0.621165
    endloop
  endfacet
  facet normal 0 1 0
    outer loop
      vertex 6.2147 1 -0.32528
      vertex 2.4 1 0
      vertex 6.15 1 0
    endloop
  endfacet
  facet normal 0 1 0
    outer loop
      vertex 2.31822 1 -0.621165
      vertex 6.2147 1 -0.32528
      vertex 6.39896 1 -0.60104
    endloop
  endfacet
  facet normal 0 1 0
    outer loop
      vertex 6.2147 1 -0.32528
      vertex 2.31822 1 -0.621165
      vertex 2.4 1 0
    endloop
  endfacet
  facet normal 0 1 0
    outer loop
      vertex 2.07846 1 -1.2
      vertex 6.39896 1 -0.60104
      vertex 6.67472 1 -0.785297
    endloop
  endfacet
  facet normal 0 1 0
    outer loop
      vertex 8 1 -12
      vertex 6.67472 1 -0.785297
      vertex 7 1 -0.849999
    endloop
  endfacet
  facet normal 0 1 0
    outer loop
      vertex 6.39896 1 -0.60104
      vertex 2.07846 1 -1.2
      vertex 2.31822 1 -0.621165
    endloop
  endfacet
  facet normal 0 -1 0
    outer loop
      vertex 8 -1 12
      vertex 6.67472 -1 0.785297
      vertex 7 -1 0.849999
    endloop
  endfacet
  facet normal 0 -1 0
    outer loop
      vertex 6.39896 -1 0.60104
      vertex 2.07846 -1 1.2
      vertex 2.31822 -1 0.621165
    endloop
  endfacet
  facet normal 0 -1 0
    outer loop
      vertex 2.07846 -1 1.2
      vertex 6.39896 -1 0.60104
      vertex 6.67472 -1 0.785297
    endloop
  endfacet
  facet normal 0 -1 0
    outer loop
      vertex 2.31822 -1 0.621165
      vertex 6.2147 -1 0.32528
      vertex 6.39896 -1 0.60104
    endloop
  endfacet
  facet normal 0 -1 0
    outer loop
      vertex 2.4 -1 0
      vertex 6.2147 -1 0.32528
      vertex 2.31822 -1 0.621165
    endloop
  endfacet
  facet normal 0 -1 0
    outer loop
      vertex 2.4 -1 0
      vertex 6.15 -1 0
      vertex 6.2147 -1 0.32528
    endloop
  endfacet
  facet normal 0 -1 0
    outer loop
      vertex 2.4 -1 0
      vertex 6.2147 -1 -0.32528
      vertex 6.15 -1 0
    endloop
  endfacet
  facet normal 0 -1 0
    outer loop
      vertex 2.31822 -1 -0.621165
      vertex 6.2147 -1 -0.32528
      vertex 2.4 -1 0
    endloop
  endfacet
  facet normal 0 -1 -0
    outer loop
      vertex 6.2147 -1 -0.32528
      vertex 2.31822 -1 -0.621165
      vertex 6.39896 -1 -0.60104
    endloop
  endfacet
  facet normal 0 -1 0
    outer loop
      vertex 2.07846 -1 -1.2
      vertex 6.39896 -1 -0.60104
      vertex 2.31822 -1 -0.621165
    endloop
  endfacet
  facet normal 0 -1 -0
    outer loop
      vertex 6.39896 -1 -0.60104
      vertex 2.07846 -1 -1.2
      vertex 6.67472 -1 -0.785297
    endloop
  endfacet
  facet normal 0 -1 0
    outer loop
      vertex 1.69706 -1 -1.69706
      vertex 6.67472 -1 -0.785297
      vertex 2.07846 -1 -1.2
    endloop
  endfacet
  facet normal 0 -1 0
    outer loop
      vertex -8 -1 12
      vertex 0 -1 2.4
      vertex 8 -1 12
    endloop
  endfacet
  facet normal 0 -1 0
    outer loop
      vertex -8 -1 12
      vertex -0.621165 -1 2.31822
      vertex 0 -1 2.4
    endloop
  endfacet
  facet normal 0 -1 0
    outer loop
      vertex -8 -1 12
      vertex -1.2 -1 2.07846
      vertex -0.621165 -1 2.31822
    endloop
  endfacet
  facet normal 0 -1 0
    outer loop
      vertex -8 -1 12
      vertex -1.69706 -1 1.69706
      vertex -1.2 -1 2.07846
    endloop
  endfacet
  facet normal 0 -1 0
    outer loop
      vertex -6.67472 -1 0.785297
      vertex -1.69706 -1 1.69706
      vertex -8 -1 12
    endloop
  endfacet
  facet normal 0 -1 0
    outer loop
      vertex -6.67472 -1 0.785297
      vertex -8 -1 12
      vertex -7 -1 0.849999
    endloop
  endfacet
  facet normal 0 -1 0
    outer loop
      vertex -8 -1 12
      vertex -7.32528 -1 0.785297
      vertex -7 -1 0.849999
    endloop
  endfacet
  facet normal 0 -1 0
    outer loop
      vertex -8 -1 12
      vertex -7.60104 -1 0.60104
      vertex -7.32528 -1 0.785297
    endloop
  endfacet
  facet normal 0 -1 0
    outer loop
      vertex -8 -1 12
      vertex -7.7853 -1 0.32528
      vertex -7.60104 -1 0.60104
    endloop
  endfacet
  facet normal 0 -1 0
    outer loop
      vertex -8 -1 12
      vertex -7.85 -1 0
      vertex -7.7853 -1 0.32528
    endloop
  endfacet
  facet normal 0 -1 0
    outer loop
      vertex -6.67472 -1 -0.785297
      vertex -1.69706 -1 -1.69706
      vertex -2.07846 -1 -1.2
    endloop
  endfacet
  facet normal 0 -1 -0
    outer loop
      vertex -6.67472 -1 -0.785297
      vertex -8 -1 -12
      vertex -1.69706 -1 -1.69706
    endloop
  endfacet
  facet normal 0 -1 0
    outer loop
      vertex -8 -1 -12
      vertex -7 -1 -0.849999
      vertex -7.32528 -1 -0.785297
    endloop
  endfacet
  facet normal 0 -1 -0
    outer loop
      vertex -1.69706 -1 -1.69706
      vertex -8 -1 -12
      vertex -1.2 -1 -2.07846
    endloop
  endfacet
  facet normal 0 -1 -0
    outer loop
      vertex -0.621165 -1 -2.31822
      vertex -8 -1 -12
      vertex 0 -1 -2.4
    endloop
  endfacet
  facet normal 0 -1 -0
    outer loop
      vertex -1.2 -1 -2.07846
      vertex -8 -1 -12
      vertex -0.621165 -1 -2.31822
    endloop
  endfacet
  facet normal 0 -1 -0
    outer loop
      vertex -7.60104 -1 -0.60104
      vertex -8 -1 -12
      vertex -7.32528 -1 -0.785297
    endloop
  endfacet
  facet normal 0 -1 -0
    outer loop
      vertex -7.7853 -1 -0.32528
      vertex -8 -1 -12
      vertex -7.60104 -1 -0.60104
    endloop
  endfacet
  facet normal 0 -1 -0
    outer loop
      vertex -7.85 -1 0
      vertex -8 -1 -12
      vertex -7.7853 -1 -0.32528
    endloop
  endfacet
  facet normal 0 -1 0
    outer loop
      vertex -8 -1 -12
      vertex -7.85 -1 0
      vertex -8 -1 12
    endloop
  endfacet
  facet normal 0 -1 0
    outer loop
      vertex 0.621165 -1 2.31822
      vertex 8 -1 12
      vertex 0 -1 2.4
    endloop
  endfacet
  facet normal 0 -1 0
    outer loop
      vertex 1.2 -1 2.07846
      vertex 8 -1 12
      vertex 0.621165 -1 2.31822
    endloop
  endfacet
  facet normal 0 -1 0
    outer loop
      vertex 1.69706 -1 1.69706
      vertex 8 -1 12
      vertex 1.2 -1 2.07846
    endloop
  endfacet
  facet normal 0 -1 0
    outer loop
      vertex 6.67472 -1 0.785297
      vertex 1.69706 -1 1.69706
      vertex 2.07846 -1 1.2
    endloop
  endfacet
  facet normal 0 -1 0
    outer loop
      vertex 6.67472 -1 0.785297
      vertex 8 -1 12
      vertex 1.69706 -1 1.69706
    endloop
  endfacet
  facet normal 0 -1 0
    outer loop
      vertex 7.32528 -1 0.785297
      vertex 8 -1 12
      vertex 7 -1 0.849999
    endloop
  endfacet
  facet normal 0 -1 0
    outer loop
      vertex 7.60104 -1 0.60104
      vertex 8 -1 12
      vertex 7.32528 -1 0.785297
    endloop
  endfacet
  facet normal 0 -1 0
    outer loop
      vertex 7.7853 -1 0.32528
      vertex 8 -1 12
      vertex 7.60104 -1 0.60104
    endloop
  endfacet
  facet normal 0 -1 0
    outer loop
      vertex 7.85 -1 0
      vertex 8 -1 12
      vertex 7.7853 -1 0.32528
    endloop
  endfacet
  facet normal 0 -1 0
    outer loop
      vertex 8 -1 -12
      vertex 6.67472 -1 -0.785297
      vertex 1.69706 -1 -1.69706
    endloop
  endfacet
  facet normal 0 -1 0
    outer loop
      vertex 8 -1 -12
      vertex 1.69706 -1 -1.69706
      vertex 1.2 -1 -2.07846
    endloop
  endfacet
  facet normal 0 -1 0
    outer loop
      vertex 6.67472 -1 -0.785297
      vertex 8 -1 -12
      vertex 7 -1 -0.849999
    endloop
  endfacet
  facet normal 0 -1 0
    outer loop
      vertex 8 -1 -12
      vertex 1.2 -1 -2.07846
      vertex 0.621165 -1 -2.31822
    endloop
  endfacet
  facet normal 0 -1 0
    outer loop
      vertex 8 -1 -12
      vertex 0 -1 -2.4
      vertex -8 -1 -12
    endloop
  endfacet
  facet normal 0 -1 0
    outer loop
      vertex 0 -1 -2.4
      vertex 8 -1 -12
      vertex 0.621165 -1 -2.31822
    endloop
  endfacet
  facet normal 0 -1 0
    outer loop
      vertex 7 -1 -0.849999
      vertex 8 -1 -12
      vertex 7.32528 -1 -0.785297
    endloop
  endfacet
  facet normal 0 -1 0
    outer loop
      vertex 7.85 -1 0
      vertex 8 -1 -12
      vertex 8 -1 12
    endloop
  endfacet
  facet normal 0 -1 0
    outer loop
      vertex 7.7853 -1 -0.32528
      vertex 8 -1 -12
      vertex 7.85 -1 0
    endloop
  endfacet
  facet normal 0 -1 0
    outer loop
      vertex 7.60104 -1 -0.60104
      vertex 8 -1 -12
      vertex 7.7853 -1 -0.32528
    endloop
  endfacet
  facet normal 0 -1 0
    outer loop
      vertex 7.32528 -1 -0.785297
      vertex 8 -1 -12
      vertex 7.60104 -1 -0.60104
    endloop
  endfacet
  facet normal 0 -1 0
    outer loop
      vertex -1.69706 -1 1.69706
      vertex -6.67472 -1 0.785297
      vertex -2.07846 -1 1.2
    endloop
  endfacet
  facet normal 0 -1 0
    outer loop
      vertex -6.39896 -1 0.60104
      vertex -2.07846 -1 1.2
      vertex -6.67472 -1 0.785297
    endloop
  endfacet
  facet normal 0 -1 0
    outer loop
      vertex -2.07846 -1 1.2
      vertex -6.39896 -1 0.60104
      vertex -2.31822 -1 0.621165
    endloop
  endfacet
  facet normal 0 -1 0
    outer loop
      vertex -6.2147 -1 0.32528
      vertex -2.31822 -1 0.621165
      vertex -6.39896 -1 0.60104
    endloop
  endfacet
  facet normal 0 -1 0
    outer loop
      vertex -2.4 -1 0
      vertex -6.2147 -1 0.32528
      vertex -6.15 -1 0
    endloop
  endfacet
  facet normal 0 -1 0
    outer loop
      vertex -6.2147 -1 0.32528
      vertex -2.4 -1 0
      vertex -2.31822 -1 0.621165
    endloop
  endfacet
  facet normal 0 -1 0
    outer loop
      vertex -6.2147 -1 -0.32528
      vertex -2.4 -1 0
      vertex -6.15 -1 0
    endloop
  endfacet
  facet normal 0 -1 0
    outer loop
      vertex -2.31822 -1 -0.621165
      vertex -6.2147 -1 -0.32528
      vertex -6.39896 -1 -0.60104
    endloop
  endfacet
  facet normal 0 -1 0
    outer loop
      vertex -6.2147 -1 -0.32528
      vertex -2.31822 -1 -0.621165
      vertex -2.4 -1 0
    endloop
  endfacet
  facet normal 0 -1 0
    outer loop
      vertex -2.07846 -1 -1.2
      vertex -6.39896 -1 -0.60104
      vertex -6.67472 -1 -0.785297
    endloop
  endfacet
  facet normal 0 -1 0
    outer loop
      vertex -8 -1 -12
      vertex -6.67472 -1 -0.785297
      vertex -7 -1 -0.849999
    endloop
  endfacet
  facet normal 0 -1 0
    outer loop
      vertex -6.39896 -1 -0.60104
      vertex -2.07846 -1 -1.2
      vertex -2.31822 -1 -0.621165
    endloop
  endfacet
  facet normal 0.130529 0 0.991444
    outer loop
      vertex -0.621165 1 -2.31822
      vertex 0 -1 -2.4
      vertex 0 1 -2.4
    endloop
  endfacet
  facet normal 0.130529 0 0.991444
    outer loop
      vertex 0 -1 -2.4
      vertex -0.621165 1 -2.31822
      vertex -0.621165 -1 -2.31822
    endloop
  endfacet
  facet normal -0.92388 0 -0.382682
    outer loop
      vertex 2.31822 -1 0.621165
      vertex 2.07846 1 1.2
      vertex 2.31822 1 0.621165
    endloop
  endfacet
  facet normal -0.92388 -0 -0.382682
    outer loop
      vertex 2.07846 1 1.2
      vertex 2.31822 -1 0.621165
      vertex 2.07846 -1 1.2
    endloop
  endfacet
  facet normal -0.991444 0 -0.130529
    outer loop
      vertex 2.4 -1 0
      vertex 2.31822 1 0.621165
      vertex 2.4 1 0
    endloop
  endfacet
  facet normal -0.991444 -0 -0.130529
    outer loop
      vertex 2.31822 1 0.621165
      vertex 2.4 -1 0
      vertex 2.31822 -1 0.621165
    endloop
  endfacet
  facet normal 0.608754 0 -0.793359
    outer loop
      vertex -1.69706 -1 1.69706
      vertex -1.2 1 2.07846
      vertex -1.2 -1 2.07846
    endloop
  endfacet
  facet normal 0.608754 0 -0.793359
    outer loop
      vertex -1.2 1 2.07846
      vertex -1.69706 -1 1.69706
      vertex -1.69706 1 1.69706
    endloop
  endfacet
  facet normal 0.382682 0 -0.92388
    outer loop
      vertex -1.2 -1 2.07846
      vertex -0.621165 1 2.31822
      vertex -0.621165 -1 2.31822
    endloop
  endfacet
  facet normal 0.382682 0 -0.92388
    outer loop
      vertex -0.621165 1 2.31822
      vertex -1.2 -1 2.07846
      vertex -1.2 1 2.07846
    endloop
  endfacet
  facet normal -0.608754 0 -0.793359
    outer loop
      vertex 1.2 -1 2.07846
      vertex 1.69706 1 1.69706
      vertex 1.69706 -1 1.69706
    endloop
  endfacet
  facet normal -0.608754 0 -0.793359
    outer loop
      vertex 1.69706 1 1.69706
      vertex 1.2 -1 2.07846
      vertex 1.2 1 2.07846
    endloop
  endfacet
  facet normal -0.608754 0 0.793359
    outer loop
      vertex 1.2 1 -2.07846
      vertex 1.69706 -1 -1.69706
      vertex 1.69706 1 -1.69706
    endloop
  endfacet
  facet normal -0.608754 0 0.793359
    outer loop
      vertex 1.69706 -1 -1.69706
      vertex 1.2 1 -2.07846
      vertex 1.2 -1 -2.07846
    endloop
  endfacet
  facet normal -0.130529 0 -0.991444
    outer loop
      vertex 0 -1 2.4
      vertex 0.621165 1 2.31822
      vertex 0.621165 -1 2.31822
    endloop
  endfacet
  facet normal -0.130529 0 -0.991444
    outer loop
      vertex 0.621165 1 2.31822
      vertex 0 -1 2.4
      vertex 0 1 2.4
    endloop
  endfacet
  facet normal 0.608754 0 0.793359
    outer loop
      vertex -1.69706 1 -1.69706
      vertex -1.2 -1 -2.07846
      vertex -1.2 1 -2.07846
    endloop
  endfacet
  facet normal 0.608754 0 0.793359
    outer loop
      vertex -1.2 -1 -2.07846
      vertex -1.69706 1 -1.69706
      vertex -1.69706 -1 -1.69706
    endloop
  endfacet
  facet normal -0.793359 0 -0.608754
    outer loop
      vertex 2.07846 -1 1.2
      vertex 1.69706 1 1.69706
      vertex 2.07846 1 1.2
    endloop
  endfacet
  facet normal -0.793359 -0 -0.608754
    outer loop
      vertex 1.69706 1 1.69706
      vertex 2.07846 -1 1.2
      vertex 1.69706 -1 1.69706
    endloop
  endfacet
  facet normal -0.130529 0 0.991444
    outer loop
      vertex 0 1 -2.4
      vertex 0.621165 -1 -2.31822
      vertex 0.621165 1 -2.31822
    endloop
  endfacet
  facet normal -0.130529 0 0.991444
    outer loop
      vertex 0.621165 -1 -2.31822
      vertex 0 1 -2.4
      vertex 0 -1 -2.4
    endloop
  endfacet
  facet normal -0.793359 0 0.608754
    outer loop
      vertex 1.69706 -1 -1.69706
      vertex 2.07846 1 -1.2
      vertex 1.69706 1 -1.69706
    endloop
  endfacet
  facet normal -0.793359 0 0.608754
    outer loop
      vertex 2.07846 1 -1.2
      vertex 1.69706 -1 -1.69706
      vertex 2.07846 -1 -1.2
    endloop
  endfacet
  facet normal -0.382682 0 0.92388
    outer loop
      vertex 0.621165 1 -2.31822
      vertex 1.2 -1 -2.07846
      vertex 1.2 1 -2.07846
    endloop
  endfacet
  facet normal -0.382682 0 0.92388
    outer loop
      vertex 1.2 -1 -2.07846
      vertex 0.621165 1 -2.31822
      vertex 0.621165 -1 -2.31822
    endloop
  endfacet
  facet normal 0.793359 0 -0.608754
    outer loop
      vertex -1.69706 -1 1.69706
      vertex -2.07846 1 1.2
      vertex -1.69706 1 1.69706
    endloop
  endfacet
  facet normal 0.793359 0 -0.608754
    outer loop
      vertex -2.07846 1 1.2
      vertex -1.69706 -1 1.69706
      vertex -2.07846 -1 1.2
    endloop
  endfacet
  facet normal 0.991444 -0 0.130529
    outer loop
      vertex -2.4 -1 0
      vertex -2.31822 1 -0.621165
      vertex -2.4 1 0
    endloop
  endfacet
  facet normal 0.991444 0 0.130529
    outer loop
      vertex -2.31822 1 -0.621165
      vertex -2.4 -1 0
      vertex -2.31822 -1 -0.621165
    endloop
  endfacet
  facet normal -0.382682 0 -0.92388
    outer loop
      vertex 0.621165 -1 2.31822
      vertex 1.2 1 2.07846
      vertex 1.2 -1 2.07846
    endloop
  endfacet
  facet normal -0.382682 0 -0.92388
    outer loop
      vertex 1.2 1 2.07846
      vertex 0.621165 -1 2.31822
      vertex 0.621165 1 2.31822
    endloop
  endfacet
  facet normal 0.793359 -0 0.608754
    outer loop
      vertex -2.07846 -1 -1.2
      vertex -1.69706 1 -1.69706
      vertex -2.07846 1 -1.2
    endloop
  endfacet
  facet normal 0.793359 0 0.608754
    outer loop
      vertex -1.69706 1 -1.69706
      vertex -2.07846 -1 -1.2
      vertex -1.69706 -1 -1.69706
    endloop
  endfacet
  facet normal -0.991444 0 0.130529
    outer loop
      vertex 2.31822 -1 -0.621165
      vertex 2.4 1 0
      vertex 2.31822 1 -0.621165
    endloop
  endfacet
  facet normal -0.991444 0 0.130529
    outer loop
      vertex 2.4 1 0
      vertex 2.31822 -1 -0.621165
      vertex 2.4 -1 0
    endloop
  endfacet
  facet normal 0.92388 -0 0.382682
    outer loop
      vertex -2.31822 -1 -0.621165
      vertex -2.07846 1 -1.2
      vertex -2.31822 1 -0.621165
    endloop
  endfacet
  facet normal 0.92388 0 0.382682
    outer loop
      vertex -2.07846 1 -1.2
      vertex -2.31822 -1 -0.621165
      vertex -2.07846 -1 -1.2
    endloop
  endfacet
  facet normal 0.130529 0 -0.991444
    outer loop
      vertex -0.621165 -1 2.31822
      vertex 0 1 2.4
      vertex 0 -1 2.4
    endloop
  endfacet
  facet normal 0.130529 0 -0.991444
    outer loop
      vertex 0 1 2.4
      vertex -0.621165 -1 2.31822
      vertex -0.621165 1 2.31822
    endloop
  endfacet
  facet normal -0.92388 0 0.382682
    outer loop
      vertex 2.07846 -1 -1.2
      vertex 2.31822 1 -0.621165
      vertex 2.07846 1 -1.2
    endloop
  endfacet
  facet normal -0.92388 0 0.382682
    outer loop
      vertex 2.31822 1 -0.621165
      vertex 2.07846 -1 -1.2
      vertex 2.31822 -1 -0.621165
    endloop
  endfacet
  facet normal 0.382682 0 0.92388
    outer loop
      vertex -1.2 1 -2.07846
      vertex -0.621165 -1 -2.31822
      vertex -0.621165 1 -2.31822
    endloop
  endfacet
  facet normal 0.382682 0 0.92388
    outer loop
      vertex -0.621165 -1 -2.31822
      vertex -1.2 1 -2.07846
      vertex -1.2 -1 -2.07846
    endloop
  endfacet
  facet normal 0.92388 0 -0.382682
    outer loop
      vertex -2.07846 -1 1.2
      vertex -2.31822 1 0.621165
      vertex -2.07846 1 1.2
    endloop
  endfacet
  facet normal 0.92388 0 -0.382682
    outer loop
      vertex -2.31822 1 0.621165
      vertex -2.07846 -1 1.2
      vertex -2.31822 -1 0.621165
    endloop
  endfacet
  facet normal 0.991444 0 -0.130529
    outer loop
      vertex -2.31822 -1 0.621165
      vertex -2.4 1 0
      vertex -2.31822 1 0.621165
    endloop
  endfacet
  facet normal 0.991444 0 -0.130529
    outer loop
      vertex -2.4 1 0
      vertex -2.31822 -1 0.621165
      vertex -2.4 -1 0
    endloop
  endfacet
  facet normal 0.831465 0 -0.555577
    outer loop
      vertex 6.39896 -1 0.60104
      vertex 6.2147 1 0.32528
      vertex 6.39896 1 0.60104
    endloop
  endfacet
  facet normal 0.831465 0 -0.555577
    outer loop
      vertex 6.2147 1 0.32528
      vertex 6.39896 -1 0.60104
      vertex 6.2147 -1 0.32528
    endloop
  endfacet
  facet normal -0.980787 0 -0.195084
    outer loop
      vertex 7.85 -1 0
      vertex 7.7853 1 0.32528
      vertex 7.85 1 0
    endloop
  endfacet
  facet normal -0.980787 -0 -0.195084
    outer loop
      vertex 7.7853 1 0.32528
      vertex 7.85 -1 0
      vertex 7.7853 -1 0.32528
    endloop
  endfacet
  facet normal -0.831465 0 -0.555577
    outer loop
      vertex 7.7853 -1 0.32528
      vertex 7.60104 1 0.60104
      vertex 7.7853 1 0.32528
    endloop
  endfacet
  facet normal -0.831465 -0 -0.555577
    outer loop
      vertex 7.60104 1 0.60104
      vertex 7.7853 -1 0.32528
      vertex 7.60104 -1 0.60104
    endloop
  endfacet
  facet normal 0.980787 0 -0.195084
    outer loop
      vertex 6.2147 -1 0.32528
      vertex 6.15 1 0
      vertex 6.2147 1 0.32528
    endloop
  endfacet
  facet normal 0.980787 0 -0.195084
    outer loop
      vertex 6.15 1 0
      vertex 6.2147 -1 0.32528
      vertex 6.15 -1 0
    endloop
  endfacet
  facet normal -0.55557 0 0.83147
    outer loop
      vertex 7.32528 1 -0.785297
      vertex 7.60104 -1 -0.60104
      vertex 7.60104 1 -0.60104
    endloop
  endfacet
  facet normal -0.55557 0 0.83147
    outer loop
      vertex 7.60104 -1 -0.60104
      vertex 7.32528 1 -0.785297
      vertex 7.32528 -1 -0.785297
    endloop
  endfacet
  facet normal 0.55557 0 -0.83147
    outer loop
      vertex 6.39896 -1 0.60104
      vertex 6.67472 1 0.785297
      vertex 6.67472 -1 0.785297
    endloop
  endfacet
  facet normal 0.55557 0 -0.83147
    outer loop
      vertex 6.67472 1 0.785297
      vertex 6.39896 -1 0.60104
      vertex 6.39896 1 0.60104
    endloop
  endfacet
  facet normal 0.19509 0 0.980785
    outer loop
      vertex 6.67472 1 -0.785297
      vertex 7 -1 -0.849999
      vertex 7 1 -0.849999
    endloop
  endfacet
  facet normal 0.19509 0 0.980785
    outer loop
      vertex 7 -1 -0.849999
      vertex 6.67472 1 -0.785297
      vertex 6.67472 -1 -0.785297
    endloop
  endfacet
  facet normal -0.19509 0 0.980785
    outer loop
      vertex 7 1 -0.849999
      vertex 7.32528 -1 -0.785297
      vertex 7.32528 1 -0.785297
    endloop
  endfacet
  facet normal -0.19509 0 0.980785
    outer loop
      vertex 7.32528 -1 -0.785297
      vertex 7 1 -0.849999
      vertex 7 -1 -0.849999
    endloop
  endfacet
  facet normal -0.831465 0 0.555577
    outer loop
      vertex 7.60104 -1 -0.60104
      vertex 7.7853 1 -0.32528
      vertex 7.60104 1 -0.60104
    endloop
  endfacet
  facet normal -0.831465 0 0.555577
    outer loop
      vertex 7.7853 1 -0.32528
      vertex 7.60104 -1 -0.60104
      vertex 7.7853 -1 -0.32528
    endloop
  endfacet
  facet normal -0.55557 0 -0.83147
    outer loop
      vertex 7.32528 -1 0.785297
      vertex 7.60104 1 0.60104
      vertex 7.60104 -1 0.60104
    endloop
  endfacet
  facet normal -0.55557 0 -0.83147
    outer loop
      vertex 7.60104 1 0.60104
      vertex 7.32528 -1 0.785297
      vertex 7.32528 1 0.785297
    endloop
  endfacet
  facet normal 0.831465 -0 0.555577
    outer loop
      vertex 6.2147 -1 -0.32528
      vertex 6.39896 1 -0.60104
      vertex 6.2147 1 -0.32528
    endloop
  endfacet
  facet normal 0.831465 0 0.555577
    outer loop
      vertex 6.39896 1 -0.60104
      vertex 6.2147 -1 -0.32528
      vertex 6.39896 -1 -0.60104
    endloop
  endfacet
  facet normal 0.980787 -0 0.195084
    outer loop
      vertex 6.15 -1 0
      vertex 6.2147 1 -0.32528
      vertex 6.15 1 0
    endloop
  endfacet
  facet normal 0.980787 0 0.195084
    outer loop
      vertex 6.2147 1 -0.32528
      vertex 6.15 -1 0
      vertex 6.2147 -1 -0.32528
    endloop
  endfacet
  facet normal -0.19509 0 -0.980785
    outer loop
      vertex 7 -1 0.849999
      vertex 7.32528 1 0.785297
      vertex 7.32528 -1 0.785297
    endloop
  endfacet
  facet normal -0.19509 0 -0.980785
    outer loop
      vertex 7.32528 1 0.785297
      vertex 7 -1 0.849999
      vertex 7 1 0.849999
    endloop
  endfacet
  facet normal 0.19509 0 -0.980785
    outer loop
      vertex 6.67472 -1 0.785297
      vertex 7 1 0.849999
      vertex 7 -1 0.849999
    endloop
  endfacet
  facet normal 0.19509 0 -0.980785
    outer loop
      vertex 7 1 0.849999
      vertex 6.67472 -1 0.785297
      vertex 6.67472 1 0.785297
    endloop
  endfacet
  facet normal -0.980787 0 0.195084
    outer loop
      vertex 7.7853 -1 -0.32528
      vertex 7.85 1 0
      vertex 7.7853 1 -0.32528
    endloop
  endfacet
  facet normal -0.980787 0 0.195084
    outer loop
      vertex 7.85 1 0
      vertex 7.7853 -1 -0.32528
      vertex 7.85 -1 0
    endloop
  endfacet
  facet normal 0.55557 0 0.83147
    outer loop
      vertex 6.39896 1 -0.60104
      vertex 6.67472 -1 -0.785297
      vertex 6.67472 1 -0.785297
    endloop
  endfacet
  facet normal 0.55557 0 0.83147
    outer loop
      vertex 6.67472 -1 -0.785297
      vertex 6.39896 1 -0.60104
      vertex 6.39896 -1 -0.60104
    endloop
  endfacet
  facet normal -0.831465 0 0.555577
    outer loop
      vertex -6.39896 -1 -0.60104
      vertex -6.2147 1 -0.32528
      vertex -6.39896 1 -0.60104
    endloop
  endfacet
  facet normal -0.831465 0 0.555577
    outer loop
      vertex -6.2147 1 -0.32528
      vertex -6.39896 -1 -0.60104
      vertex -6.2147 -1 -0.32528
    endloop
  endfacet
  facet normal -0.980787 0 -0.195084
    outer loop
      vertex -6.15 -1 0
      vertex -6.2147 1 0.32528
      vertex -6.15 1 0
    endloop
  endfacet
  facet normal -0.980787 -0 -0.195084
    outer loop
      vertex -6.2147 1 0.32528
      vertex -6.15 -1 0
      vertex -6.2147 -1 0.32528
    endloop
  endfacet
  facet normal -0.980787 0 0.195084
    outer loop
      vertex -6.2147 -1 -0.32528
      vertex -6.15 1 0
      vertex -6.2147 1 -0.32528
    endloop
  endfacet
  facet normal -0.980787 0 0.195084
    outer loop
      vertex -6.15 1 0
      vertex -6.2147 -1 -0.32528
      vertex -6.15 -1 0
    endloop
  endfacet
  facet normal -0.19509 0 0.980785
    outer loop
      vertex -7 1 -0.849999
      vertex -6.67472 -1 -0.785297
      vertex -6.67472 1 -0.785297
    endloop
  endfacet
  facet normal -0.19509 0 0.980785
    outer loop
      vertex -6.67472 -1 -0.785297
      vertex -7 1 -0.849999
      vertex -7 -1 -0.849999
    endloop
  endfacet
  facet normal 0.980787 0 -0.195084
    outer loop
      vertex -7.7853 -1 0.32528
      vertex -7.85 1 0
      vertex -7.7853 1 0.32528
    endloop
  endfacet
  facet normal 0.980787 0 -0.195084
    outer loop
      vertex -7.85 1 0
      vertex -7.7853 -1 0.32528
      vertex -7.85 -1 0
    endloop
  endfacet
  facet normal -0.55557 0 -0.83147
    outer loop
      vertex -6.67472 -1 0.785297
      vertex -6.39896 1 0.60104
      vertex -6.39896 -1 0.60104
    endloop
  endfacet
  facet normal -0.55557 0 -0.83147
    outer loop
      vertex -6.39896 1 0.60104
      vertex -6.67472 -1 0.785297
      vertex -6.67472 1 0.785297
    endloop
  endfacet
  facet normal 0.831465 -0 0.555577
    outer loop
      vertex -7.7853 -1 -0.32528
      vertex -7.60104 1 -0.60104
      vertex -7.7853 1 -0.32528
    endloop
  endfacet
  facet normal 0.831465 0 0.555577
    outer loop
      vertex -7.60104 1 -0.60104
      vertex -7.7853 -1 -0.32528
      vertex -7.60104 -1 -0.60104
    endloop
  endfacet
  facet normal -0.55557 0 0.83147
    outer loop
      vertex -6.67472 1 -0.785297
      vertex -6.39896 -1 -0.60104
      vertex -6.39896 1 -0.60104
    endloop
  endfacet
  facet normal -0.55557 0 0.83147
    outer loop
      vertex -6.39896 -1 -0.60104
      vertex -6.67472 1 -0.785297
      vertex -6.67472 -1 -0.785297
    endloop
  endfacet
  facet normal -0.831465 0 -0.555577
    outer loop
      vertex -6.2147 -1 0.32528
      vertex -6.39896 1 0.60104
      vertex -6.2147 1 0.32528
    endloop
  endfacet
  facet normal -0.831465 -0 -0.555577
    outer loop
      vertex -6.39896 1 0.60104
      vertex -6.2147 -1 0.32528
      vertex -6.39896 -1 0.60104
    endloop
  endfacet
  facet normal 0.831465 0 -0.555577
    outer loop
      vertex -7.60104 -1 0.60104
      vertex -7.7853 1 0.32528
      vertex -7.60104 1 0.60104
    endloop
  endfacet
  facet normal 0.831465 0 -0.555577
    outer loop
      vertex -7.7853 1 0.32528
      vertex -7.60104 -1 0.60104
      vertex -7.7853 -1 0.32528
    endloop
  endfacet
  facet normal 0.55557 0 -0.83147
    outer loop
      vertex -7.60104 -1 0.60104
      vertex -7.32528 1 0.785297
      vertex -7.32528 -1 0.785297
    endloop
  endfacet
  facet normal 0.55557 0 -0.83147
    outer loop
      vertex -7.32528 1 0.785297
      vertex -7.60104 -1 0.60104
      vertex -7.60104 1 0.60104
    endloop
  endfacet
  facet normal 0.19509 0 0.980785
    outer loop
      vertex -7.32528 1 -0.785297
      vertex -7 -1 -0.849999
      vertex -7 1 -0.849999
    endloop
  endfacet
  facet normal 0.19509 0 0.980785
    outer loop
      vertex -7 -1 -0.849999
      vertex -7.32528 1 -0.785297
      vertex -7.32528 -1 -0.785297
    endloop
  endfacet
  facet normal 0.19509 0 -0.980785
    outer loop
      vertex -7.32528 -1 0.785297
      vertex -7 1 0.849999
      vertex -7 -1 0.849999
    endloop
  endfacet
  facet normal 0.19509 0 -0.980785
    outer loop
      vertex -7 1 0.849999
      vertex -7.32528 -1 0.785297
      vertex -7.32528 1 0.785297
    endloop
  endfacet
  facet normal -0.19509 0 -0.980785
    outer loop
      vertex -7 -1 0.849999
      vertex -6.67472 1 0.785297
      vertex -6.67472 -1 0.785297
    endloop
  endfacet
  facet normal -0.19509 0 -0.980785
    outer loop
      vertex -6.67472 1 0.785297
      vertex -7 -1 0.849999
      vertex -7 1 0.849999
    endloop
  endfacet
  facet normal 0.55557 0 0.83147
    outer loop
      vertex -7.60104 1 -0.60104
      vertex -7.32528 -1 -0.785297
      vertex -7.32528 1 -0.785297
    endloop
  endfacet
  facet normal 0.55557 0 0.83147
    outer loop
      vertex -7.32528 -1 -0.785297
      vertex -7.60104 1 -0.60104
      vertex -7.60104 -1 -0.60104
    endloop
  endfacet
  facet normal 0.980787 -0 0.195084
    outer loop
      vertex -7.85 -1 0
      vertex -7.7853 1 -0.32528
      vertex -7.85 1 0
    endloop
  endfacet
  facet normal 0.980787 0 0.195084
    outer loop
      vertex -7.7853 1 -0.32528
      vertex -7.85 -1 0
      vertex -7.7853 -1 -0.32528
    endloop
  endfacet
endsolid OpenSCAD_Model
