solid OpenSCAD_Model
  facet normal 1 0 0
    outer loop
      vertex 2.2 26 0.4
      vertex 2.2 18.85 -1.8
      vertex 2.2 26 -3.8
    endloop
  endfacet
  facet normal 1 0 0
    outer loop
      vertex 2.2 26 0.4
      vertex 2.2 18.7853 -1.47472
      vertex 2.2 18.85 -1.8
    endloop
  endfacet
  facet normal 1 0 0
    outer loop
      vertex 2.2 26 0.4
      vertex 2.2 18.601 -1.19896
      vertex 2.2 18.7853 -1.47472
    endloop
  endfacet
  facet normal 1 0 0
    outer loop
      vertex 2.2 26 0.4
      vertex 2.2 18.3253 -1.0147
      vertex 2.2 18.601 -1.19896
    endloop
  endfacet
  facet normal 1 0 0
    outer loop
      vertex 2.2 26 0.4
      vertex 2.2 18 -0.95
      vertex 2.2 18.3253 -1.0147
    endloop
  endfacet
  facet normal 1 0 0
    outer loop
      vertex 2.2 17.2147 -1.47472
      vertex 2.2 14 0.4
      vertex 2.2 17.15 -1.8
    endloop
  endfacet
  facet normal 1 0 0
    outer loop
      vertex 2.2 17.399 -1.19896
      vertex 2.2 14 0.4
      vertex 2.2 17.2147 -1.47472
    endloop
  endfacet
  facet normal 1 0 0
    outer loop
      vertex 2.2 17.6747 -1.0147
      vertex 2.2 14 0.4
      vertex 2.2 17.399 -1.19896
    endloop
  endfacet
  facet normal 1 0 0
    outer loop
      vertex 2.2 18 -0.95
      vertex 2.2 14 0.4
      vertex 2.2 17.6747 -1.0147
    endloop
  endfacet
  facet normal 1 -0 0
    outer loop
      vertex 2.2 14 0.4
      vertex 2.2 18 -0.95
      vertex 2.2 26 0.4
    endloop
  endfacet
  facet normal 1 -0 0
    outer loop
      vertex 2.2 18.7853 -2.12528
      vertex 2.2 26 -3.8
      vertex 2.2 18.85 -1.8
    endloop
  endfacet
  facet normal 1 -0 0
    outer loop
      vertex 2.2 18.601 -2.40104
      vertex 2.2 26 -3.8
      vertex 2.2 18.7853 -2.12528
    endloop
  endfacet
  facet normal 1 -0 0
    outer loop
      vertex 2.2 18.3253 -2.5853
      vertex 2.2 26 -3.8
      vertex 2.2 18.601 -2.40104
    endloop
  endfacet
  facet normal 1 -0 0
    outer loop
      vertex 2.2 18 -2.65
      vertex 2.2 26 -3.8
      vertex 2.2 18.3253 -2.5853
    endloop
  endfacet
  facet normal 1 0 0
    outer loop
      vertex 2.2 14 0.4
      vertex 2.2 17.2147 -2.12528
      vertex 2.2 17.15 -1.8
    endloop
  endfacet
  facet normal 1 0 0
    outer loop
      vertex 2.2 10 -3.8
      vertex 2.2 17.2147 -2.12528
      vertex 2.2 14 0.4
    endloop
  endfacet
  facet normal 1 0 0
    outer loop
      vertex 2.2 10 -3.8
      vertex 2.2 14 0.4
      vertex 2.2 10 0.4
    endloop
  endfacet
  facet normal 1 0 0
    outer loop
      vertex 2.2 17.2147 -2.12528
      vertex 2.2 10 -3.8
      vertex 2.2 17.399 -2.40104
    endloop
  endfacet
  facet normal 1 0 0
    outer loop
      vertex 2.2 18 -2.65
      vertex 2.2 10 -3.8
      vertex 2.2 26 -3.8
    endloop
  endfacet
  facet normal 1 0 0
    outer loop
      vertex 2.2 17.6747 -2.5853
      vertex 2.2 10 -3.8
      vertex 2.2 18 -2.65
    endloop
  endfacet
  facet normal 1 0 0
    outer loop
      vertex 2.2 17.399 -2.40104
      vertex 2.2 10 -3.8
      vertex 2.2 17.6747 -2.5853
    endloop
  endfacet
  facet normal 0 -1 0
    outer loop
      vertex 0.2 10 -3.8
      vertex 2.2 10 0.4
      vertex 0.2 10 0.4
    endloop
  endfacet
  facet normal 0 -1 -0
    outer loop
      vertex 2.2 10 0.4
      vertex 0.2 10 -3.8
      vertex 2.2 10 -3.8
    endloop
  endfacet
  facet normal 0 1 -0
    outer loop
      vertex 2.2 26 -3.8
      vertex 0.2 26 0.4
      vertex 2.2 26 0.4
    endloop
  endfacet
  facet normal 0 1 0
    outer loop
      vertex 0.2 26 0.4
      vertex 2.2 26 -3.8
      vertex 0.2 26 -3.8
    endloop
  endfacet
  facet normal -1 0 0
    outer loop
      vertex 0.2 26 -3.8
      vertex 0.2 18.85 -1.8
      vertex 0.2 26 0.4
    endloop
  endfacet
  facet normal -1 0 0
    outer loop
      vertex 0.2 26 -3.8
      vertex 0.2 18.7853 -2.12528
      vertex 0.2 18.85 -1.8
    endloop
  endfacet
  facet normal -1 0 0
    outer loop
      vertex 0.2 26 -3.8
      vertex 0.2 18.601 -2.40104
      vertex 0.2 18.7853 -2.12528
    endloop
  endfacet
  facet normal -1 0 0
    outer loop
      vertex 0.2 26 -3.8
      vertex 0.2 18.3253 -2.5853
      vertex 0.2 18.601 -2.40104
    endloop
  endfacet
  facet normal -1 0 0
    outer loop
      vertex 0.2 26 -3.8
      vertex 0.2 18 -2.65
      vertex 0.2 18.3253 -2.5853
    endloop
  endfacet
  facet normal -1 0 0
    outer loop
      vertex 0.2 17.2147 -2.12528
      vertex 0.2 14 0.4
      vertex 0.2 17.15 -1.8
    endloop
  endfacet
  facet normal -1 0 0
    outer loop
      vertex 0.2 10 -3.8
      vertex 0.2 17.2147 -2.12528
      vertex 0.2 17.399 -2.40104
    endloop
  endfacet
  facet normal -1 0 0
    outer loop
      vertex 0.2 10 -3.8
      vertex 0.2 18 -2.65
      vertex 0.2 26 -3.8
    endloop
  endfacet
  facet normal -1 0 0
    outer loop
      vertex 0.2 10 -3.8
      vertex 0.2 17.6747 -2.5853
      vertex 0.2 18 -2.65
    endloop
  endfacet
  facet normal -1 0 0
    outer loop
      vertex 0.2 10 -3.8
      vertex 0.2 17.399 -2.40104
      vertex 0.2 17.6747 -2.5853
    endloop
  endfacet
  facet normal -1 -0 0
    outer loop
      vertex 0.2 17.2147 -2.12528
      vertex 0.2 10 -3.8
      vertex 0.2 14 0.4
    endloop
  endfacet
  facet normal -1 -0 0
    outer loop
      vertex 0.2 14 0.4
      vertex 0.2 10 -3.8
      vertex 0.2 10 0.4
    endloop
  endfacet
  facet normal -1 0 0
    outer loop
      vertex 0.2 18.7853 -1.47472
      vertex 0.2 26 0.4
      vertex 0.2 18.85 -1.8
    endloop
  endfacet
  facet normal -1 0 0
    outer loop
      vertex 0.2 18.601 -1.19896
      vertex 0.2 26 0.4
      vertex 0.2 18.7853 -1.47472
    endloop
  endfacet
  facet normal -1 0 0
    outer loop
      vertex 0.2 18.3253 -1.0147
      vertex 0.2 26 0.4
      vertex 0.2 18.601 -1.19896
    endloop
  endfacet
  facet normal -1 0 0
    outer loop
      vertex 0.2 18 -0.95
      vertex 0.2 26 0.4
      vertex 0.2 18.3253 -1.0147
    endloop
  endfacet
  facet normal -1 0 0
    outer loop
      vertex 0.2 18 -0.95
      vertex 0.2 14 0.4
      vertex 0.2 26 0.4
    endloop
  endfacet
  facet normal -1 0 0
    outer loop
      vertex 0.2 17.6747 -1.0147
      vertex 0.2 14 0.4
      vertex 0.2 18 -0.95
    endloop
  endfacet
  facet normal -1 0 0
    outer loop
      vertex 0.2 17.399 -1.19896
      vertex 0.2 14 0.4
      vertex 0.2 17.6747 -1.0147
    endloop
  endfacet
  facet normal -1 0 0
    outer loop
      vertex 0.2 17.2147 -1.47472
      vertex 0.2 14 0.4
      vertex 0.2 17.399 -1.19896
    endloop
  endfacet
  facet normal -1 0 0
    outer loop
      vertex 0.2 14 0.4
      vertex 0.2 17.2147 -1.47472
      vertex 0.2 17.15 -1.8
    endloop
  endfacet
  facet normal 0 0 -1
    outer loop
      vertex 18.8 -50 0.4
      vertex 2.2 10 0.4
      vertex 18.8 14 0.4
    endloop
  endfacet
  facet normal 0 0 -1
    outer loop
      vertex 18.8 -50 0.4
      vertex 0.2 10 0.4
      vertex 2.2 10 0.4
    endloop
  endfacet
  facet normal 0 0 -1
    outer loop
      vertex -21.2 -50 0.4
      vertex 0.2 10 0.4
      vertex 18.8 -50 0.4
    endloop
  endfacet
  facet normal 0 0 -1
    outer loop
      vertex -21.2 14 0.4
      vertex 0.2 10 0.4
      vertex -21.2 -50 0.4
    endloop
  endfacet
  facet normal 0 0 -1
    outer loop
      vertex 0.2 10 0.4
      vertex -21.2 14 0.4
      vertex 0.2 14 0.4
    endloop
  endfacet
  facet normal -0 0 -1
    outer loop
      vertex 18.8 14 0.4
      vertex 2.2 10 0.4
      vertex 2.2 14 0.4
    endloop
  endfacet
  facet normal -0 0 1
    outer loop
      vertex 0.2 26 0.4
      vertex 2.2 14 0.4
      vertex 2.2 26 0.4
    endloop
  endfacet
  facet normal 0 0 1
    outer loop
      vertex 2.2 14 0.4
      vertex 0.2 26 0.4
      vertex 0.2 14 0.4
    endloop
  endfacet
  facet normal 0 0 -1
    outer loop
      vertex 0.2 10 -3.8
      vertex 2.2 26 -3.8
      vertex 2.2 10 -3.8
    endloop
  endfacet
  facet normal -0 0 -1
    outer loop
      vertex 2.2 26 -3.8
      vertex 0.2 10 -3.8
      vertex 0.2 26 -3.8
    endloop
  endfacet
  facet normal 1 -0 0
    outer loop
      vertex 18.8 -50 3
      vertex 18.8 14 0.4
      vertex 18.8 14 3
    endloop
  endfacet
  facet normal 1 0 0
    outer loop
      vertex 18.8 14 0.4
      vertex 18.8 -50 3
      vertex 18.8 -50 0.4
    endloop
  endfacet
  facet normal 0 -1 0
    outer loop
      vertex -21.2 -50 0.4
      vertex 18.8 -50 3
      vertex -21.2 -50 3
    endloop
  endfacet
  facet normal 0 -1 -0
    outer loop
      vertex 18.8 -50 3
      vertex -21.2 -50 0.4
      vertex 18.8 -50 0.4
    endloop
  endfacet
  facet normal 0 1 0
    outer loop
      vertex 2.2 14 0.4
      vertex 18.8 14 3
      vertex 18.8 14 0.4
    endloop
  endfacet
  facet normal 0 1 0
    outer loop
      vertex 0.2 14 0.4
      vertex 18.8 14 3
      vertex 2.2 14 0.4
    endloop
  endfacet
  facet normal 0 1 0
    outer loop
      vertex 18.8 14 3
      vertex 0.2 14 0.4
      vertex -21.2 14 3
    endloop
  endfacet
  facet normal 0 1 0
    outer loop
      vertex -21.2 14 3
      vertex 0.2 14 0.4
      vertex -21.2 14 0.4
    endloop
  endfacet
  facet normal -1 0 0
    outer loop
      vertex -21.2 -50 0.4
      vertex -21.2 14 3
      vertex -21.2 14 0.4
    endloop
  endfacet
  facet normal -1 -0 0
    outer loop
      vertex -21.2 14 3
      vertex -21.2 -50 0.4
      vertex -21.2 -50 3
    endloop
  endfacet
  facet normal -0 0 1
    outer loop
      vertex -21.2 14 3
      vertex 18.8 -50 3
      vertex 18.8 14 3
    endloop
  endfacet
  facet normal 0 0 1
    outer loop
      vertex 18.8 -50 3
      vertex -21.2 14 3
      vertex -21.2 -50 3
    endloop
  endfacet
  facet normal 0 -0.83141 -0.55566
    outer loop
      vertex 0.2 18.7853 -1.47472
      vertex 2.2 18.601 -1.19896
      vertex 0.2 18.601 -1.19896
    endloop
  endfacet
  facet normal 0 -0.83141 -0.55566
    outer loop
      vertex 2.2 18.601 -1.19896
      vertex 0.2 18.7853 -1.47472
      vertex 2.2 18.7853 -1.47472
    endloop
  endfacet
  facet normal 0 0.55566 -0.831409
    outer loop
      vertex 0.2 17.399 -1.19896
      vertex 2.2 17.6747 -1.0147
      vertex 2.2 17.399 -1.19896
    endloop
  endfacet
  facet normal 0 0.55566 -0.831409
    outer loop
      vertex 2.2 17.6747 -1.0147
      vertex 0.2 17.399 -1.19896
      vertex 0.2 17.6747 -1.0147
    endloop
  endfacet
  facet normal 0 -0.195072 -0.980789
    outer loop
      vertex 0.2 18 -0.95
      vertex 2.2 18.3253 -1.0147
      vertex 2.2 18 -0.95
    endloop
  endfacet
  facet normal -0 -0.195072 -0.980789
    outer loop
      vertex 2.2 18.3253 -1.0147
      vertex 0.2 18 -0.95
      vertex 0.2 18.3253 -1.0147
    endloop
  endfacet
  facet normal 0 -0.980787 -0.195084
    outer loop
      vertex 0.2 18.85 -1.8
      vertex 2.2 18.7853 -1.47472
      vertex 0.2 18.7853 -1.47472
    endloop
  endfacet
  facet normal 0 -0.980787 -0.195084
    outer loop
      vertex 2.2 18.7853 -1.47472
      vertex 0.2 18.85 -1.8
      vertex 2.2 18.85 -1.8
    endloop
  endfacet
  facet normal 0 -0.83141 0.55566
    outer loop
      vertex 0.2 18.601 -2.40104
      vertex 2.2 18.7853 -2.12528
      vertex 0.2 18.7853 -2.12528
    endloop
  endfacet
  facet normal 0 -0.83141 0.55566
    outer loop
      vertex 2.2 18.7853 -2.12528
      vertex 0.2 18.601 -2.40104
      vertex 2.2 18.601 -2.40104
    endloop
  endfacet
  facet normal 0 0.980787 -0.195084
    outer loop
      vertex 2.2 17.15 -1.8
      vertex 0.2 17.2147 -1.47472
      vertex 2.2 17.2147 -1.47472
    endloop
  endfacet
  facet normal 0 0.980787 -0.195084
    outer loop
      vertex 0.2 17.2147 -1.47472
      vertex 2.2 17.15 -1.8
      vertex 0.2 17.15 -1.8
    endloop
  endfacet
  facet normal 0 -0.55566 -0.831409
    outer loop
      vertex 0.2 18.3253 -1.0147
      vertex 2.2 18.601 -1.19896
      vertex 2.2 18.3253 -1.0147
    endloop
  endfacet
  facet normal -0 -0.55566 -0.831409
    outer loop
      vertex 2.2 18.601 -1.19896
      vertex 0.2 18.3253 -1.0147
      vertex 0.2 18.601 -1.19896
    endloop
  endfacet
  facet normal -0 0.55566 0.831409
    outer loop
      vertex 0.2 17.6747 -2.5853
      vertex 2.2 17.399 -2.40104
      vertex 2.2 17.6747 -2.5853
    endloop
  endfacet
  facet normal 0 0.55566 0.831409
    outer loop
      vertex 2.2 17.399 -2.40104
      vertex 0.2 17.6747 -2.5853
      vertex 0.2 17.399 -2.40104
    endloop
  endfacet
  facet normal 0 0.83141 0.55566
    outer loop
      vertex 2.2 17.399 -2.40104
      vertex 0.2 17.2147 -2.12528
      vertex 2.2 17.2147 -2.12528
    endloop
  endfacet
  facet normal 0 0.83141 0.55566
    outer loop
      vertex 0.2 17.2147 -2.12528
      vertex 2.2 17.399 -2.40104
      vertex 0.2 17.399 -2.40104
    endloop
  endfacet
  facet normal 0 -0.55566 0.831409
    outer loop
      vertex 0.2 18.601 -2.40104
      vertex 2.2 18.3253 -2.5853
      vertex 2.2 18.601 -2.40104
    endloop
  endfacet
  facet normal 0 -0.55566 0.831409
    outer loop
      vertex 2.2 18.3253 -2.5853
      vertex 0.2 18.601 -2.40104
      vertex 0.2 18.3253 -2.5853
    endloop
  endfacet
  facet normal 0 -0.980787 0.195084
    outer loop
      vertex 0.2 18.7853 -2.12528
      vertex 2.2 18.85 -1.8
      vertex 0.2 18.85 -1.8
    endloop
  endfacet
  facet normal 0 -0.980787 0.195084
    outer loop
      vertex 2.2 18.85 -1.8
      vertex 0.2 18.7853 -2.12528
      vertex 2.2 18.7853 -2.12528
    endloop
  endfacet
  facet normal 0 0.980787 0.195084
    outer loop
      vertex 2.2 17.2147 -2.12528
      vertex 0.2 17.15 -1.8
      vertex 2.2 17.15 -1.8
    endloop
  endfacet
  facet normal 0 0.980787 0.195084
    outer loop
      vertex 0.2 17.15 -1.8
      vertex 2.2 17.2147 -2.12528
      vertex 0.2 17.2147 -2.12528
    endloop
  endfacet
  facet normal 0 0.195072 -0.980789
    outer loop
      vertex 0.2 17.6747 -1.0147
      vertex 2.2 18 -0.95
      vertex 2.2 17.6747 -1.0147
    endloop
  endfacet
  facet normal 0 0.195072 -0.980789
    outer loop
      vertex 2.2 18 -0.95
      vertex 0.2 17.6747 -1.0147
      vertex 0.2 18 -0.95
    endloop
  endfacet
  facet normal -0 0.195072 0.980789
    outer loop
      vertex 0.2 18 -2.65
      vertex 2.2 17.6747 -2.5853
      vertex 2.2 18 -2.65
    endloop
  endfacet
  facet normal 0 0.195072 0.980789
    outer loop
      vertex 2.2 17.6747 -2.5853
      vertex 0.2 18 -2.65
      vertex 0.2 17.6747 -2.5853
    endloop
  endfacet
  facet normal 0 -0.195072 0.980789
    outer loop
      vertex 0.2 18.3253 -2.5853
      vertex 2.2 18 -2.65
      vertex 2.2 18.3253 -2.5853
    endloop
  endfacet
  facet normal 0 -0.195072 0.980789
    outer loop
      vertex 2.2 18 -2.65
      vertex 0.2 18.3253 -2.5853
      vertex 0.2 18 -2.65
    endloop
  endfacet
  facet normal 0 0.83141 -0.55566
    outer loop
      vertex 2.2 17.2147 -1.47472
      vertex 0.2 17.399 -1.19896
      vertex 2.2 17.399 -1.19896
    endloop
  endfacet
  facet normal 0 0.83141 -0.55566
    outer loop
      vertex 0.2 17.399 -1.19896
      vertex 2.2 17.2147 -1.47472
      vertex 0.2 17.2147 -1.47472
    endloop
  endfacet
endsolid OpenSCAD_Model
