solid OpenSCAD_Model
  facet normal 1 0 0
    outer loop
      vertex 5.5 -28.9215 -1.2
      vertex 5.5 -30.2147 -6.67472
      vertex 5.5 -30.15 -7
    endloop
  endfacet
  facet normal 1 0 0
    outer loop
      vertex 5.5 -30.399 -6.39896
      vertex 5.5 -29.8 -2.07846
      vertex 5.5 -30.3788 -2.31822
    endloop
  endfacet
  facet normal 1 0 0
    outer loop
      vertex 5.5 -29.8 -2.07846
      vertex 5.5 -30.399 -6.39896
      vertex 5.5 -30.2147 -6.67472
    endloop
  endfacet
  facet normal 1 0 0
    outer loop
      vertex 5.5 -30.3788 -2.31822
      vertex 5.5 -30.6747 -6.2147
      vertex 5.5 -30.399 -6.39896
    endloop
  endfacet
  facet normal 1 -0 0
    outer loop
      vertex 5.5 -31 -2.4
      vertex 5.5 -30.6747 -6.2147
      vertex 5.5 -30.3788 -2.31822
    endloop
  endfacet
  facet normal 1 0 0
    outer loop
      vertex 5.5 -31 -2.4
      vertex 5.5 -31 -6.15
      vertex 5.5 -30.6747 -6.2147
    endloop
  endfacet
  facet normal 1 0 0
    outer loop
      vertex 5.5 -31 -2.4
      vertex 5.5 -31.3253 -6.2147
      vertex 5.5 -31 -6.15
    endloop
  endfacet
  facet normal 1 0 0
    outer loop
      vertex 5.5 -31.6212 -2.31822
      vertex 5.5 -31.3253 -6.2147
      vertex 5.5 -31 -2.4
    endloop
  endfacet
  facet normal 1 0 0
    outer loop
      vertex 5.5 -31.3253 -6.2147
      vertex 5.5 -31.6212 -2.31822
      vertex 5.5 -31.601 -6.39896
    endloop
  endfacet
  facet normal 1 0 0
    outer loop
      vertex 5.5 -32.2 -2.07846
      vertex 5.5 -31.601 -6.39896
      vertex 5.5 -31.6212 -2.31822
    endloop
  endfacet
  facet normal 1 0 0
    outer loop
      vertex 5.5 -31.601 -6.39896
      vertex 5.5 -32.2 -2.07846
      vertex 5.5 -31.7853 -6.67472
    endloop
  endfacet
  facet normal 1 0 0
    outer loop
      vertex 5.5 -32.6971 -1.69706
      vertex 5.5 -31.7853 -6.67472
      vertex 5.5 -32.2 -2.07846
    endloop
  endfacet
  facet normal 1 0 0
    outer loop
      vertex 5.5 33 8
      vertex 5.5 23.75 0
      vertex 5.5 33 -8
    endloop
  endfacet
  facet normal 1 0 0
    outer loop
      vertex 5.5 33 8
      vertex 5.5 23.6563 0.711752
      vertex 5.5 23.75 0
    endloop
  endfacet
  facet normal 1 0 0
    outer loop
      vertex 5.5 33 8
      vertex 5.5 23.3816 1.375
      vertex 5.5 23.6563 0.711752
    endloop
  endfacet
  facet normal 1 0 0
    outer loop
      vertex 5.5 33 8
      vertex 5.5 22.9445 1.94454
      vertex 5.5 23.3816 1.375
    endloop
  endfacet
  facet normal 1 0 0
    outer loop
      vertex 5.5 33 8
      vertex 5.5 22.375 2.38157
      vertex 5.5 22.9445 1.94454
    endloop
  endfacet
  facet normal 1 0 0
    outer loop
      vertex 5.5 33 8
      vertex 5.5 21.7118 2.6563
      vertex 5.5 22.375 2.38157
    endloop
  endfacet
  facet normal 1 0 0
    outer loop
      vertex 5.5 33 8
      vertex 5.5 21 2.75
      vertex 5.5 21.7118 2.6563
    endloop
  endfacet
  facet normal 1 0 0
    outer loop
      vertex 5.5 33 8
      vertex 5.5 20.2882 2.6563
      vertex 5.5 21 2.75
    endloop
  endfacet
  facet normal 1 -0 0
    outer loop
      vertex 5.5 -30.6747 7.7853
      vertex 5.5 20.2882 2.6563
      vertex 5.5 33 8
    endloop
  endfacet
  facet normal 1 0 0
    outer loop
      vertex 5.5 18.3437 0.711752
      vertex 5.5 -28.6 0
      vertex 5.5 18.25 0
    endloop
  endfacet
  facet normal 1 0 0
    outer loop
      vertex 5.5 -30.15 7
      vertex 5.5 18.3437 0.711752
      vertex 5.5 18.6184 1.375
    endloop
  endfacet
  facet normal 1 0 0
    outer loop
      vertex 5.5 -30.2147 7.32528
      vertex 5.5 18.6184 1.375
      vertex 5.5 19.0555 1.94454
    endloop
  endfacet
  facet normal 1 0 0
    outer loop
      vertex 5.5 -30.399 7.60104
      vertex 5.5 19.0555 1.94454
      vertex 5.5 19.625 2.38157
    endloop
  endfacet
  facet normal 1 0 0
    outer loop
      vertex 5.5 20.2882 2.6563
      vertex 5.5 -30.6747 7.7853
      vertex 5.5 19.625 2.38157
    endloop
  endfacet
  facet normal 1 0 0
    outer loop
      vertex 5.5 18.3437 0.711752
      vertex 5.5 -28.6818 0.621165
      vertex 5.5 -28.6 0
    endloop
  endfacet
  facet normal 1 0 0
    outer loop
      vertex 5.5 18.3437 0.711752
      vertex 5.5 -30.15 7
      vertex 5.5 -28.6818 0.621165
    endloop
  endfacet
  facet normal 1 0 0
    outer loop
      vertex 5.5 -28.6818 0.621165
      vertex 5.5 -30.15 7
      vertex 5.5 -28.9215 1.2
    endloop
  endfacet
  facet normal 1 -0 0
    outer loop
      vertex 5.5 -30.2147 6.67472
      vertex 5.5 -28.9215 1.2
      vertex 5.5 -30.15 7
    endloop
  endfacet
  facet normal 1 0 0
    outer loop
      vertex 5.5 -28.9215 1.2
      vertex 5.5 -30.2147 6.67472
      vertex 5.5 -29.3029 1.69706
    endloop
  endfacet
  facet normal 1 0 0
    outer loop
      vertex 5.5 18.6184 1.375
      vertex 5.5 -30.2147 7.32528
      vertex 5.5 -30.15 7
    endloop
  endfacet
  facet normal 1 0 0
    outer loop
      vertex 5.5 19.0555 1.94454
      vertex 5.5 -30.399 7.60104
      vertex 5.5 -30.2147 7.32528
    endloop
  endfacet
  facet normal 1 0 0
    outer loop
      vertex 5.5 19.625 2.38157
      vertex 5.5 -30.6747 7.7853
      vertex 5.5 -30.399 7.60104
    endloop
  endfacet
  facet normal 1 0 0
    outer loop
      vertex 5.5 33 8
      vertex 5.5 -31 7.85
      vertex 5.5 -30.6747 7.7853
    endloop
  endfacet
  facet normal 1 0 0
    outer loop
      vertex 5.5 -31.7853 6.67472
      vertex 5.5 -32.6971 1.69706
      vertex 5.5 -32.2 2.07846
    endloop
  endfacet
  facet normal 1 0 0
    outer loop
      vertex 5.5 -31.7853 6.67472
      vertex 5.5 -43 8
      vertex 5.5 -32.6971 1.69706
    endloop
  endfacet
  facet normal 1 0 0
    outer loop
      vertex 5.5 -43 8
      vertex 5.5 -31.85 7
      vertex 5.5 -31.7853 7.32528
    endloop
  endfacet
  facet normal 1 0 0
    outer loop
      vertex 5.5 -32.6971 1.69706
      vertex 5.5 -43 8
      vertex 5.5 -33.0785 1.2
    endloop
  endfacet
  facet normal 1 0 0
    outer loop
      vertex 5.5 -33.3182 0.621165
      vertex 5.5 -43 8
      vertex 5.5 -33.4 0
    endloop
  endfacet
  facet normal 1 0 0
    outer loop
      vertex 5.5 -33.0785 1.2
      vertex 5.5 -43 8
      vertex 5.5 -33.3182 0.621165
    endloop
  endfacet
  facet normal 1 0 0
    outer loop
      vertex 5.5 -31.601 7.60104
      vertex 5.5 -43 8
      vertex 5.5 -31.7853 7.32528
    endloop
  endfacet
  facet normal 1 0 0
    outer loop
      vertex 5.5 -31.3253 7.7853
      vertex 5.5 -43 8
      vertex 5.5 -31.601 7.60104
    endloop
  endfacet
  facet normal 1 0 0
    outer loop
      vertex 5.5 -31 7.85
      vertex 5.5 -43 8
      vertex 5.5 -31.3253 7.7853
    endloop
  endfacet
  facet normal 1 -0 0
    outer loop
      vertex 5.5 -43 8
      vertex 5.5 -31 7.85
      vertex 5.5 33 8
    endloop
  endfacet
  facet normal 1 -0 0
    outer loop
      vertex 5.5 23.6563 -0.711752
      vertex 5.5 33 -8
      vertex 5.5 23.75 0
    endloop
  endfacet
  facet normal 1 -0 0
    outer loop
      vertex 5.5 23.3816 -1.375
      vertex 5.5 33 -8
      vertex 5.5 23.6563 -0.711752
    endloop
  endfacet
  facet normal 1 -0 0
    outer loop
      vertex 5.5 22.9445 -1.94454
      vertex 5.5 33 -8
      vertex 5.5 23.3816 -1.375
    endloop
  endfacet
  facet normal 1 -0 0
    outer loop
      vertex 5.5 22.375 -2.38157
      vertex 5.5 33 -8
      vertex 5.5 22.9445 -1.94454
    endloop
  endfacet
  facet normal 1 -0 0
    outer loop
      vertex 5.5 21.7118 -2.6563
      vertex 5.5 33 -8
      vertex 5.5 22.375 -2.38157
    endloop
  endfacet
  facet normal 1 -0 0
    outer loop
      vertex 5.5 21 -2.75
      vertex 5.5 33 -8
      vertex 5.5 21.7118 -2.6563
    endloop
  endfacet
  facet normal 1 0 0
    outer loop
      vertex 5.5 20.2882 -2.6563
      vertex 5.5 33 -8
      vertex 5.5 21 -2.75
    endloop
  endfacet
  facet normal 1 0 0
    outer loop
      vertex 5.5 -30.6747 -7.7853
      vertex 5.5 20.2882 -2.6563
      vertex 5.5 19.625 -2.38157
    endloop
  endfacet
  facet normal 1 -0 0
    outer loop
      vertex 5.5 -28.6 0
      vertex 5.5 18.3437 -0.711752
      vertex 5.5 18.25 0
    endloop
  endfacet
  facet normal 1 -0 0
    outer loop
      vertex 5.5 -28.6818 -0.621165
      vertex 5.5 18.3437 -0.711752
      vertex 5.5 -28.6 0
    endloop
  endfacet
  facet normal 1 0 0
    outer loop
      vertex 5.5 -30.15 -7
      vertex 5.5 18.3437 -0.711752
      vertex 5.5 -28.6818 -0.621165
    endloop
  endfacet
  facet normal 1 0 0
    outer loop
      vertex 5.5 18.3437 -0.711752
      vertex 5.5 -30.15 -7
      vertex 5.5 18.6184 -1.375
    endloop
  endfacet
  facet normal 1 0 0
    outer loop
      vertex 5.5 -30.2147 -7.32528
      vertex 5.5 18.6184 -1.375
      vertex 5.5 -30.15 -7
    endloop
  endfacet
  facet normal 1 0 0
    outer loop
      vertex 5.5 18.6184 -1.375
      vertex 5.5 -30.2147 -7.32528
      vertex 5.5 19.0555 -1.94454
    endloop
  endfacet
  facet normal 1 0 0
    outer loop
      vertex 5.5 -30.15 -7
      vertex 5.5 -28.6818 -0.621165
      vertex 5.5 -28.9215 -1.2
    endloop
  endfacet
  facet normal 1 0 0
    outer loop
      vertex 5.5 -30.2147 -6.67472
      vertex 5.5 -28.9215 -1.2
      vertex 5.5 -29.3029 -1.69706
    endloop
  endfacet
  facet normal 1 0 0
    outer loop
      vertex 5.5 -30.2147 -6.67472
      vertex 5.5 -29.3029 -1.69706
      vertex 5.5 -29.8 -2.07846
    endloop
  endfacet
  facet normal 1 0 0
    outer loop
      vertex 5.5 -30.399 -7.60104
      vertex 5.5 19.0555 -1.94454
      vertex 5.5 -30.2147 -7.32528
    endloop
  endfacet
  facet normal 1 0 0
    outer loop
      vertex 5.5 19.0555 -1.94454
      vertex 5.5 -30.399 -7.60104
      vertex 5.5 19.625 -2.38157
    endloop
  endfacet
  facet normal 1 0 0
    outer loop
      vertex 5.5 -30.6747 -7.7853
      vertex 5.5 19.625 -2.38157
      vertex 5.5 -30.399 -7.60104
    endloop
  endfacet
  facet normal 1 0 0
    outer loop
      vertex 5.5 20.2882 -2.6563
      vertex 5.5 -30.6747 -7.7853
      vertex 5.5 33 -8
    endloop
  endfacet
  facet normal 1 -0 0
    outer loop
      vertex 5.5 -31 -7.85
      vertex 5.5 33 -8
      vertex 5.5 -30.6747 -7.7853
    endloop
  endfacet
  facet normal 1 0 0
    outer loop
      vertex 5.5 -43 -8
      vertex 5.5 -31.7853 -6.67472
      vertex 5.5 -32.6971 -1.69706
    endloop
  endfacet
  facet normal 1 0 0
    outer loop
      vertex 5.5 -43 -8
      vertex 5.5 -32.6971 -1.69706
      vertex 5.5 -33.0785 -1.2
    endloop
  endfacet
  facet normal 1 0 0
    outer loop
      vertex 5.5 -31.7853 -6.67472
      vertex 5.5 -43 -8
      vertex 5.5 -31.85 -7
    endloop
  endfacet
  facet normal 1 0 0
    outer loop
      vertex 5.5 -43 -8
      vertex 5.5 -33.0785 -1.2
      vertex 5.5 -33.3182 -0.621165
    endloop
  endfacet
  facet normal 1 0 0
    outer loop
      vertex 5.5 -43 -8
      vertex 5.5 -33.4 0
      vertex 5.5 -43 8
    endloop
  endfacet
  facet normal 1 0 0
    outer loop
      vertex 5.5 -33.4 0
      vertex 5.5 -43 -8
      vertex 5.5 -33.3182 -0.621165
    endloop
  endfacet
  facet normal 1 0 0
    outer loop
      vertex 5.5 -31.85 -7
      vertex 5.5 -43 -8
      vertex 5.5 -31.7853 -7.32528
    endloop
  endfacet
  facet normal 1 0 0
    outer loop
      vertex 5.5 -31 -7.85
      vertex 5.5 -43 -8
      vertex 5.5 33 -8
    endloop
  endfacet
  facet normal 1 0 0
    outer loop
      vertex 5.5 -31.3253 -7.7853
      vertex 5.5 -43 -8
      vertex 5.5 -31 -7.85
    endloop
  endfacet
  facet normal 1 0 0
    outer loop
      vertex 5.5 -31.601 -7.60104
      vertex 5.5 -43 -8
      vertex 5.5 -31.3253 -7.7853
    endloop
  endfacet
  facet normal 1 0 0
    outer loop
      vertex 5.5 -31.7853 -7.32528
      vertex 5.5 -43 -8
      vertex 5.5 -31.601 -7.60104
    endloop
  endfacet
  facet normal 1 0 0
    outer loop
      vertex 5.5 -29.3029 1.69706
      vertex 5.5 -30.2147 6.67472
      vertex 5.5 -29.8 2.07846
    endloop
  endfacet
  facet normal 1 -0 0
    outer loop
      vertex 5.5 -30.399 6.39896
      vertex 5.5 -29.8 2.07846
      vertex 5.5 -30.2147 6.67472
    endloop
  endfacet
  facet normal 1 0 0
    outer loop
      vertex 5.5 -29.8 2.07846
      vertex 5.5 -30.399 6.39896
      vertex 5.5 -30.3788 2.31822
    endloop
  endfacet
  facet normal 1 -0 0
    outer loop
      vertex 5.5 -30.6747 6.2147
      vertex 5.5 -30.3788 2.31822
      vertex 5.5 -30.399 6.39896
    endloop
  endfacet
  facet normal 1 0 0
    outer loop
      vertex 5.5 -31 2.4
      vertex 5.5 -30.6747 6.2147
      vertex 5.5 -31 6.15
    endloop
  endfacet
  facet normal 1 0 0
    outer loop
      vertex 5.5 -30.6747 6.2147
      vertex 5.5 -31 2.4
      vertex 5.5 -30.3788 2.31822
    endloop
  endfacet
  facet normal 1 0 0
    outer loop
      vertex 5.5 -31.3253 6.2147
      vertex 5.5 -31 2.4
      vertex 5.5 -31 6.15
    endloop
  endfacet
  facet normal 1 0 0
    outer loop
      vertex 5.5 -31.6212 2.31822
      vertex 5.5 -31.3253 6.2147
      vertex 5.5 -31.601 6.39896
    endloop
  endfacet
  facet normal 1 0 0
    outer loop
      vertex 5.5 -31.3253 6.2147
      vertex 5.5 -31.6212 2.31822
      vertex 5.5 -31 2.4
    endloop
  endfacet
  facet normal 1 0 0
    outer loop
      vertex 5.5 -32.2 2.07846
      vertex 5.5 -31.601 6.39896
      vertex 5.5 -31.7853 6.67472
    endloop
  endfacet
  facet normal 1 0 0
    outer loop
      vertex 5.5 -43 8
      vertex 5.5 -31.7853 6.67472
      vertex 5.5 -31.85 7
    endloop
  endfacet
  facet normal 1 0 0
    outer loop
      vertex 5.5 -31.601 6.39896
      vertex 5.5 -32.2 2.07846
      vertex 5.5 -31.6212 2.31822
    endloop
  endfacet
  facet normal 0 -1 0
    outer loop
      vertex 3.5 -43 -8
      vertex 5.5 -43 8
      vertex 3.5 -43 8
    endloop
  endfacet
  facet normal 0 -1 -0
    outer loop
      vertex 5.5 -43 8
      vertex 3.5 -43 -8
      vertex 5.5 -43 -8
    endloop
  endfacet
  facet normal 0 1 -0
    outer loop
      vertex 5.5 33 -8
      vertex 3.5 33 8
      vertex 5.5 33 8
    endloop
  endfacet
  facet normal 0 1 0
    outer loop
      vertex 3.5 33 8
      vertex 5.5 33 -8
      vertex 3.5 33 -8
    endloop
  endfacet
  facet normal -1 0 0
    outer loop
      vertex 3.5 -28.9215 1.2
      vertex 3.5 -30.2147 6.67472
      vertex 3.5 -30.15 7
    endloop
  endfacet
  facet normal -1 0 0
    outer loop
      vertex 3.5 -30.399 6.39896
      vertex 3.5 -29.8 2.07846
      vertex 3.5 -30.3788 2.31822
    endloop
  endfacet
  facet normal -1 0 0
    outer loop
      vertex 3.5 -29.8 2.07846
      vertex 3.5 -30.399 6.39896
      vertex 3.5 -30.2147 6.67472
    endloop
  endfacet
  facet normal -1 0 0
    outer loop
      vertex 3.5 -30.3788 2.31822
      vertex 3.5 -30.6747 6.2147
      vertex 3.5 -30.399 6.39896
    endloop
  endfacet
  facet normal -1 0 0
    outer loop
      vertex 3.5 -31 2.4
      vertex 3.5 -30.6747 6.2147
      vertex 3.5 -30.3788 2.31822
    endloop
  endfacet
  facet normal -1 0 0
    outer loop
      vertex 3.5 -31 2.4
      vertex 3.5 -31 6.15
      vertex 3.5 -30.6747 6.2147
    endloop
  endfacet
  facet normal -1 0 0
    outer loop
      vertex 3.5 -31 2.4
      vertex 3.5 -31.3253 6.2147
      vertex 3.5 -31 6.15
    endloop
  endfacet
  facet normal -1 0 0
    outer loop
      vertex 3.5 -31.6212 2.31822
      vertex 3.5 -31.3253 6.2147
      vertex 3.5 -31 2.4
    endloop
  endfacet
  facet normal -1 -0 0
    outer loop
      vertex 3.5 -31.3253 6.2147
      vertex 3.5 -31.6212 2.31822
      vertex 3.5 -31.601 6.39896
    endloop
  endfacet
  facet normal -1 0 0
    outer loop
      vertex 3.5 -32.2 2.07846
      vertex 3.5 -31.601 6.39896
      vertex 3.5 -31.6212 2.31822
    endloop
  endfacet
  facet normal -1 -0 0
    outer loop
      vertex 3.5 -31.601 6.39896
      vertex 3.5 -32.2 2.07846
      vertex 3.5 -31.7853 6.67472
    endloop
  endfacet
  facet normal -1 0 0
    outer loop
      vertex 3.5 -32.6971 1.69706
      vertex 3.5 -31.7853 6.67472
      vertex 3.5 -32.2 2.07846
    endloop
  endfacet
  facet normal -1 0 0
    outer loop
      vertex 3.5 4 -8
      vertex 3.5 -28.6 0
      vertex 3.5 4 8
    endloop
  endfacet
  facet normal -1 0 0
    outer loop
      vertex 3.5 4 -8
      vertex 3.5 -28.6818 -0.621165
      vertex 3.5 -28.6 0
    endloop
  endfacet
  facet normal -1 0 0
    outer loop
      vertex 3.5 4 -8
      vertex 3.5 -28.9215 -1.2
      vertex 3.5 -28.6818 -0.621165
    endloop
  endfacet
  facet normal -1 0 0
    outer loop
      vertex 3.5 -30.15 -7
      vertex 3.5 -28.9215 -1.2
      vertex 3.5 4 -8
    endloop
  endfacet
  facet normal -1 0 0
    outer loop
      vertex 3.5 -30.2147 -6.67472
      vertex 3.5 -28.9215 -1.2
      vertex 3.5 -30.15 -7
    endloop
  endfacet
  facet normal -1 0 0
    outer loop
      vertex 3.5 -28.9215 -1.2
      vertex 3.5 -30.2147 -6.67472
      vertex 3.5 -29.3029 -1.69706
    endloop
  endfacet
  facet normal -1 0 0
    outer loop
      vertex 3.5 4 -8
      vertex 3.5 -30.2147 -7.32528
      vertex 3.5 -30.15 -7
    endloop
  endfacet
  facet normal -1 0 0
    outer loop
      vertex 3.5 4 -8
      vertex 3.5 -30.399 -7.60104
      vertex 3.5 -30.2147 -7.32528
    endloop
  endfacet
  facet normal -1 0 0
    outer loop
      vertex 3.5 4 -8
      vertex 3.5 -30.6747 -7.7853
      vertex 3.5 -30.399 -7.60104
    endloop
  endfacet
  facet normal -1 0 0
    outer loop
      vertex 3.5 4 -8
      vertex 3.5 -31 -7.85
      vertex 3.5 -30.6747 -7.7853
    endloop
  endfacet
  facet normal -1 0 0
    outer loop
      vertex 3.5 -31.7853 -6.67472
      vertex 3.5 -32.6971 -1.69706
      vertex 3.5 -32.2 -2.07846
    endloop
  endfacet
  facet normal -1 -0 0
    outer loop
      vertex 3.5 -31.7853 -6.67472
      vertex 3.5 -43 -8
      vertex 3.5 -32.6971 -1.69706
    endloop
  endfacet
  facet normal -1 0 0
    outer loop
      vertex 3.5 -43 -8
      vertex 3.5 -31.85 -7
      vertex 3.5 -31.7853 -7.32528
    endloop
  endfacet
  facet normal -1 -0 0
    outer loop
      vertex 3.5 -32.6971 -1.69706
      vertex 3.5 -43 -8
      vertex 3.5 -33.0785 -1.2
    endloop
  endfacet
  facet normal -1 -0 0
    outer loop
      vertex 3.5 -33.3182 -0.621165
      vertex 3.5 -43 -8
      vertex 3.5 -33.4 0
    endloop
  endfacet
  facet normal -1 -0 0
    outer loop
      vertex 3.5 -33.0785 -1.2
      vertex 3.5 -43 -8
      vertex 3.5 -33.3182 -0.621165
    endloop
  endfacet
  facet normal -1 -0 0
    outer loop
      vertex 3.5 -31.601 -7.60104
      vertex 3.5 -43 -8
      vertex 3.5 -31.7853 -7.32528
    endloop
  endfacet
  facet normal -1 -0 0
    outer loop
      vertex 3.5 -31.3253 -7.7853
      vertex 3.5 -43 -8
      vertex 3.5 -31.601 -7.60104
    endloop
  endfacet
  facet normal -1 -0 0
    outer loop
      vertex 3.5 -31 -7.85
      vertex 3.5 -43 -8
      vertex 3.5 -31.3253 -7.7853
    endloop
  endfacet
  facet normal -1 0 0
    outer loop
      vertex 3.5 -43 -8
      vertex 3.5 -31 -7.85
      vertex 3.5 4 -8
    endloop
  endfacet
  facet normal -1 0 0
    outer loop
      vertex 3.5 -28.6818 0.621165
      vertex 3.5 4 8
      vertex 3.5 -28.6 0
    endloop
  endfacet
  facet normal -1 0 0
    outer loop
      vertex 3.5 -28.9215 1.2
      vertex 3.5 4 8
      vertex 3.5 -28.6818 0.621165
    endloop
  endfacet
  facet normal -1 0 0
    outer loop
      vertex 3.5 -30.2147 6.67472
      vertex 3.5 -28.9215 1.2
      vertex 3.5 -29.3029 1.69706
    endloop
  endfacet
  facet normal -1 0 0
    outer loop
      vertex 3.5 -30.2147 6.67472
      vertex 3.5 -29.3029 1.69706
      vertex 3.5 -29.8 2.07846
    endloop
  endfacet
  facet normal -1 0 0
    outer loop
      vertex 3.5 -28.9215 1.2
      vertex 3.5 -30.15 7
      vertex 3.5 4 8
    endloop
  endfacet
  facet normal -1 0 0
    outer loop
      vertex 3.5 -30.2147 7.32528
      vertex 3.5 4 8
      vertex 3.5 -30.15 7
    endloop
  endfacet
  facet normal -1 0 0
    outer loop
      vertex 3.5 -30.399 7.60104
      vertex 3.5 4 8
      vertex 3.5 -30.2147 7.32528
    endloop
  endfacet
  facet normal -1 0 0
    outer loop
      vertex 3.5 -30.6747 7.7853
      vertex 3.5 4 8
      vertex 3.5 -30.399 7.60104
    endloop
  endfacet
  facet normal -1 0 0
    outer loop
      vertex 3.5 -31 7.85
      vertex 3.5 4 8
      vertex 3.5 -30.6747 7.7853
    endloop
  endfacet
  facet normal -1 0 0
    outer loop
      vertex 3.5 -43 8
      vertex 3.5 -31.7853 6.67472
      vertex 3.5 -32.6971 1.69706
    endloop
  endfacet
  facet normal -1 0 0
    outer loop
      vertex 3.5 -43 8
      vertex 3.5 -32.6971 1.69706
      vertex 3.5 -33.0785 1.2
    endloop
  endfacet
  facet normal -1 0 0
    outer loop
      vertex 3.5 -31.7853 6.67472
      vertex 3.5 -43 8
      vertex 3.5 -31.85 7
    endloop
  endfacet
  facet normal -1 0 0
    outer loop
      vertex 3.5 -43 8
      vertex 3.5 -33.0785 1.2
      vertex 3.5 -33.3182 0.621165
    endloop
  endfacet
  facet normal -1 0 0
    outer loop
      vertex 3.5 -43 8
      vertex 3.5 -33.4 0
      vertex 3.5 -43 -8
    endloop
  endfacet
  facet normal -1 0 0
    outer loop
      vertex 3.5 -33.4 0
      vertex 3.5 -43 8
      vertex 3.5 -33.3182 0.621165
    endloop
  endfacet
  facet normal -1 0 0
    outer loop
      vertex 3.5 -31.85 7
      vertex 3.5 -43 8
      vertex 3.5 -31.7853 7.32528
    endloop
  endfacet
  facet normal -1 0 0
    outer loop
      vertex 3.5 -31 7.85
      vertex 3.5 -43 8
      vertex 3.5 4 8
    endloop
  endfacet
  facet normal -1 0 0
    outer loop
      vertex 3.5 -31.3253 7.7853
      vertex 3.5 -43 8
      vertex 3.5 -31 7.85
    endloop
  endfacet
  facet normal -1 0 0
    outer loop
      vertex 3.5 -31.601 7.60104
      vertex 3.5 -43 8
      vertex 3.5 -31.3253 7.7853
    endloop
  endfacet
  facet normal -1 0 0
    outer loop
      vertex 3.5 -31.7853 7.32528
      vertex 3.5 -43 8
      vertex 3.5 -31.601 7.60104
    endloop
  endfacet
  facet normal -1 0 0
    outer loop
      vertex 3.5 -29.3029 -1.69706
      vertex 3.5 -30.2147 -6.67472
      vertex 3.5 -29.8 -2.07846
    endloop
  endfacet
  facet normal -1 0 0
    outer loop
      vertex 3.5 -30.399 -6.39896
      vertex 3.5 -29.8 -2.07846
      vertex 3.5 -30.2147 -6.67472
    endloop
  endfacet
  facet normal -1 0 0
    outer loop
      vertex 3.5 -29.8 -2.07846
      vertex 3.5 -30.399 -6.39896
      vertex 3.5 -30.3788 -2.31822
    endloop
  endfacet
  facet normal -1 0 0
    outer loop
      vertex 3.5 -30.6747 -6.2147
      vertex 3.5 -30.3788 -2.31822
      vertex 3.5 -30.399 -6.39896
    endloop
  endfacet
  facet normal -1 0 0
    outer loop
      vertex 3.5 -31 -2.4
      vertex 3.5 -30.6747 -6.2147
      vertex 3.5 -31 -6.15
    endloop
  endfacet
  facet normal -1 0 0
    outer loop
      vertex 3.5 -30.6747 -6.2147
      vertex 3.5 -31 -2.4
      vertex 3.5 -30.3788 -2.31822
    endloop
  endfacet
  facet normal -1 0 0
    outer loop
      vertex 3.5 -31.3253 -6.2147
      vertex 3.5 -31 -2.4
      vertex 3.5 -31 -6.15
    endloop
  endfacet
  facet normal -1 0 0
    outer loop
      vertex 3.5 -31.6212 -2.31822
      vertex 3.5 -31.3253 -6.2147
      vertex 3.5 -31.601 -6.39896
    endloop
  endfacet
  facet normal -1 0 0
    outer loop
      vertex 3.5 -31.3253 -6.2147
      vertex 3.5 -31.6212 -2.31822
      vertex 3.5 -31 -2.4
    endloop
  endfacet
  facet normal -1 0 0
    outer loop
      vertex 3.5 -32.2 -2.07846
      vertex 3.5 -31.601 -6.39896
      vertex 3.5 -31.7853 -6.67472
    endloop
  endfacet
  facet normal -1 0 0
    outer loop
      vertex 3.5 -43 -8
      vertex 3.5 -31.7853 -6.67472
      vertex 3.5 -31.85 -7
    endloop
  endfacet
  facet normal -1 0 0
    outer loop
      vertex 3.5 -31.601 -6.39896
      vertex 3.5 -32.2 -2.07846
      vertex 3.5 -31.6212 -2.31822
    endloop
  endfacet
  facet normal -1 0 0
    outer loop
      vertex 3.5 33 -8
      vertex 3.5 23.75 0
      vertex 3.5 33 8
    endloop
  endfacet
  facet normal -1 0 0
    outer loop
      vertex 3.5 33 -8
      vertex 3.5 23.6563 -0.711752
      vertex 3.5 23.75 0
    endloop
  endfacet
  facet normal -1 0 0
    outer loop
      vertex 3.5 33 -8
      vertex 3.5 23.3816 -1.375
      vertex 3.5 23.6563 -0.711752
    endloop
  endfacet
  facet normal -1 0 0
    outer loop
      vertex 3.5 33 -8
      vertex 3.5 22.9445 -1.94454
      vertex 3.5 23.3816 -1.375
    endloop
  endfacet
  facet normal -1 0 0
    outer loop
      vertex 3.5 33 -8
      vertex 3.5 22.375 -2.38157
      vertex 3.5 22.9445 -1.94454
    endloop
  endfacet
  facet normal -1 0 0
    outer loop
      vertex 3.5 33 -8
      vertex 3.5 21.7118 -2.6563
      vertex 3.5 22.375 -2.38157
    endloop
  endfacet
  facet normal -1 0 0
    outer loop
      vertex 3.5 33 -8
      vertex 3.5 21 -2.75
      vertex 3.5 21.7118 -2.6563
    endloop
  endfacet
  facet normal -1 0 0
    outer loop
      vertex 3.5 6 -8
      vertex 3.5 21 -2.75
      vertex 3.5 33 -8
    endloop
  endfacet
  facet normal -1 -0 0
    outer loop
      vertex 3.5 21 -2.75
      vertex 3.5 6 -8
      vertex 3.5 20.2882 -2.6563
    endloop
  endfacet
  facet normal -1 -0 0
    outer loop
      vertex 3.5 18.3437 -0.711752
      vertex 3.5 6 -8
      vertex 3.5 18.25 0
    endloop
  endfacet
  facet normal -1 -0 0
    outer loop
      vertex 3.5 18.6184 -1.375
      vertex 3.5 6 -8
      vertex 3.5 18.3437 -0.711752
    endloop
  endfacet
  facet normal -1 -0 0
    outer loop
      vertex 3.5 19.0555 -1.94454
      vertex 3.5 6 -8
      vertex 3.5 18.6184 -1.375
    endloop
  endfacet
  facet normal -1 -0 0
    outer loop
      vertex 3.5 19.625 -2.38157
      vertex 3.5 6 -8
      vertex 3.5 19.0555 -1.94454
    endloop
  endfacet
  facet normal -1 -0 0
    outer loop
      vertex 3.5 20.2882 -2.6563
      vertex 3.5 6 -8
      vertex 3.5 19.625 -2.38157
    endloop
  endfacet
  facet normal -1 0 0
    outer loop
      vertex 3.5 23.6563 0.711752
      vertex 3.5 33 8
      vertex 3.5 23.75 0
    endloop
  endfacet
  facet normal -1 0 0
    outer loop
      vertex 3.5 23.3816 1.375
      vertex 3.5 33 8
      vertex 3.5 23.6563 0.711752
    endloop
  endfacet
  facet normal -1 0 0
    outer loop
      vertex 3.5 22.9445 1.94454
      vertex 3.5 33 8
      vertex 3.5 23.3816 1.375
    endloop
  endfacet
  facet normal -1 0 0
    outer loop
      vertex 3.5 22.375 2.38157
      vertex 3.5 33 8
      vertex 3.5 22.9445 1.94454
    endloop
  endfacet
  facet normal -1 0 0
    outer loop
      vertex 3.5 21.7118 2.6563
      vertex 3.5 33 8
      vertex 3.5 22.375 2.38157
    endloop
  endfacet
  facet normal -1 0 0
    outer loop
      vertex 3.5 21 2.75
      vertex 3.5 33 8
      vertex 3.5 21.7118 2.6563
    endloop
  endfacet
  facet normal -1 0 0
    outer loop
      vertex 3.5 6 8
      vertex 3.5 21 2.75
      vertex 3.5 20.2882 2.6563
    endloop
  endfacet
  facet normal -1 0 0
    outer loop
      vertex 3.5 6 8
      vertex 3.5 20.2882 2.6563
      vertex 3.5 19.625 2.38157
    endloop
  endfacet
  facet normal -1 0 0
    outer loop
      vertex 3.5 6 8
      vertex 3.5 18.25 0
      vertex 3.5 6 -8
    endloop
  endfacet
  facet normal -1 0 0
    outer loop
      vertex 3.5 18.25 0
      vertex 3.5 6 8
      vertex 3.5 18.3437 0.711752
    endloop
  endfacet
  facet normal -1 0 0
    outer loop
      vertex 3.5 18.3437 0.711752
      vertex 3.5 6 8
      vertex 3.5 18.6184 1.375
    endloop
  endfacet
  facet normal -1 0 0
    outer loop
      vertex 3.5 18.6184 1.375
      vertex 3.5 6 8
      vertex 3.5 19.0555 1.94454
    endloop
  endfacet
  facet normal -1 0 0
    outer loop
      vertex 3.5 21 2.75
      vertex 3.5 6 8
      vertex 3.5 33 8
    endloop
  endfacet
  facet normal -1 0 0
    outer loop
      vertex 3.5 19.0555 1.94454
      vertex 3.5 6 8
      vertex 3.5 19.625 2.38157
    endloop
  endfacet
  facet normal -0 0 1
    outer loop
      vertex -12.5 6 8
      vertex 3.5 4 8
      vertex 3.5 6 8
    endloop
  endfacet
  facet normal 0 0 1
    outer loop
      vertex 3.5 4 8
      vertex -12.5 6 8
      vertex -12.5 4 8
    endloop
  endfacet
  facet normal 0 0 1
    outer loop
      vertex 3.5 6 8
      vertex 5.5 33 8
      vertex 3.5 33 8
    endloop
  endfacet
  facet normal 0 0 1
    outer loop
      vertex 3.5 4 8
      vertex 5.5 33 8
      vertex 3.5 6 8
    endloop
  endfacet
  facet normal 0 0 1
    outer loop
      vertex 5.5 33 8
      vertex 3.5 4 8
      vertex 5.5 -43 8
    endloop
  endfacet
  facet normal 0 0 1
    outer loop
      vertex 5.5 -43 8
      vertex 3.5 4 8
      vertex 3.5 -43 8
    endloop
  endfacet
  facet normal 0 0 -1
    outer loop
      vertex -12.5 4 -8
      vertex 3.5 6 -8
      vertex 3.5 4 -8
    endloop
  endfacet
  facet normal -0 0 -1
    outer loop
      vertex 3.5 6 -8
      vertex -12.5 4 -8
      vertex -12.5 6 -8
    endloop
  endfacet
  facet normal 0 0 -1
    outer loop
      vertex 3.5 4 -8
      vertex 5.5 -43 -8
      vertex 3.5 -43 -8
    endloop
  endfacet
  facet normal 0 0 -1
    outer loop
      vertex 5.5 -43 -8
      vertex 3.5 4 -8
      vertex 5.5 33 -8
    endloop
  endfacet
  facet normal 0 0 -1
    outer loop
      vertex 3.5 6 -8
      vertex 5.5 33 -8
      vertex 3.5 4 -8
    endloop
  endfacet
  facet normal -0 0 -1
    outer loop
      vertex 5.5 33 -8
      vertex 3.5 6 -8
      vertex 3.5 33 -8
    endloop
  endfacet
  facet normal 0 -1 0
    outer loop
      vertex -12.5 4 -8
      vertex 3.5 4 8
      vertex -12.5 4 8
    endloop
  endfacet
  facet normal 0 -1 -0
    outer loop
      vertex 3.5 4 8
      vertex -12.5 4 -8
      vertex 3.5 4 -8
    endloop
  endfacet
  facet normal 0 1 -0
    outer loop
      vertex 3.5 6 -8
      vertex -12.5 6 8
      vertex 3.5 6 8
    endloop
  endfacet
  facet normal 0 1 0
    outer loop
      vertex -12.5 6 8
      vertex 3.5 6 -8
      vertex -12.5 6 -8
    endloop
  endfacet
  facet normal -1 0 0
    outer loop
      vertex -12.5 4 -8
      vertex -12.5 6 8
      vertex -12.5 6 -8
    endloop
  endfacet
  facet normal -1 -0 0
    outer loop
      vertex -12.5 6 8
      vertex -12.5 4 -8
      vertex -12.5 4 8
    endloop
  endfacet
  facet normal 0 0.608723 -0.793383
    outer loop
      vertex 3.5 -32.6971 1.69706
      vertex 5.5 -32.2 2.07846
      vertex 5.5 -32.6971 1.69706
    endloop
  endfacet
  facet normal 0 0.608723 -0.793383
    outer loop
      vertex 5.5 -32.2 2.07846
      vertex 3.5 -32.6971 1.69706
      vertex 3.5 -32.2 2.07846
    endloop
  endfacet
  facet normal 0 0.382701 -0.923872
    outer loop
      vertex 3.5 -32.2 2.07846
      vertex 5.5 -31.6212 2.31822
      vertex 5.5 -32.2 2.07846
    endloop
  endfacet
  facet normal 0 0.382701 -0.923872
    outer loop
      vertex 5.5 -31.6212 2.31822
      vertex 3.5 -32.2 2.07846
      vertex 3.5 -31.6212 2.31822
    endloop
  endfacet
  facet normal -0 0.382701 0.923872
    outer loop
      vertex 3.5 -31.6212 -2.31822
      vertex 5.5 -32.2 -2.07846
      vertex 5.5 -31.6212 -2.31822
    endloop
  endfacet
  facet normal 0 0.382701 0.923872
    outer loop
      vertex 5.5 -32.2 -2.07846
      vertex 3.5 -31.6212 -2.31822
      vertex 3.5 -32.2 -2.07846
    endloop
  endfacet
  facet normal 0 -0.99144 -0.130561
    outer loop
      vertex 3.5 -28.6 0
      vertex 5.5 -28.6818 0.621165
      vertex 3.5 -28.6818 0.621165
    endloop
  endfacet
  facet normal 0 -0.99144 -0.130561
    outer loop
      vertex 5.5 -28.6818 0.621165
      vertex 3.5 -28.6 0
      vertex 5.5 -28.6 0
    endloop
  endfacet
  facet normal 0 -0.608723 0.793383
    outer loop
      vertex 3.5 -29.3029 -1.69706
      vertex 5.5 -29.8 -2.07846
      vertex 5.5 -29.3029 -1.69706
    endloop
  endfacet
  facet normal 0 -0.608723 0.793383
    outer loop
      vertex 5.5 -29.8 -2.07846
      vertex 3.5 -29.3029 -1.69706
      vertex 3.5 -29.8 -2.07846
    endloop
  endfacet
  facet normal -0 0.130522 0.991445
    outer loop
      vertex 3.5 -31 -2.4
      vertex 5.5 -31.6212 -2.31822
      vertex 5.5 -31 -2.4
    endloop
  endfacet
  facet normal 0 0.130522 0.991445
    outer loop
      vertex 5.5 -31.6212 -2.31822
      vertex 3.5 -31 -2.4
      vertex 3.5 -31.6212 -2.31822
    endloop
  endfacet
  facet normal -0 0.608723 0.793383
    outer loop
      vertex 3.5 -32.2 -2.07846
      vertex 5.5 -32.6971 -1.69706
      vertex 5.5 -32.2 -2.07846
    endloop
  endfacet
  facet normal 0 0.608723 0.793383
    outer loop
      vertex 5.5 -32.6971 -1.69706
      vertex 3.5 -32.2 -2.07846
      vertex 3.5 -32.6971 -1.69706
    endloop
  endfacet
  facet normal 0 -0.382701 -0.923872
    outer loop
      vertex 3.5 -30.3788 2.31822
      vertex 5.5 -29.8 2.07846
      vertex 5.5 -30.3788 2.31822
    endloop
  endfacet
  facet normal -0 -0.382701 -0.923872
    outer loop
      vertex 5.5 -29.8 2.07846
      vertex 3.5 -30.3788 2.31822
      vertex 3.5 -29.8 2.07846
    endloop
  endfacet
  facet normal 0 -0.923914 -0.3826
    outer loop
      vertex 3.5 -28.6818 0.621165
      vertex 5.5 -28.9215 1.2
      vertex 3.5 -28.9215 1.2
    endloop
  endfacet
  facet normal 0 -0.923914 -0.3826
    outer loop
      vertex 5.5 -28.9215 1.2
      vertex 3.5 -28.6818 0.621165
      vertex 5.5 -28.6818 0.621165
    endloop
  endfacet
  facet normal 0 -0.793359 0.608754
    outer loop
      vertex 3.5 -29.3029 -1.69706
      vertex 5.5 -28.9215 -1.2
      vertex 3.5 -28.9215 -1.2
    endloop
  endfacet
  facet normal 0 -0.793359 0.608754
    outer loop
      vertex 5.5 -28.9215 -1.2
      vertex 3.5 -29.3029 -1.69706
      vertex 5.5 -29.3029 -1.69706
    endloop
  endfacet
  facet normal 0 -0.382701 0.923872
    outer loop
      vertex 3.5 -29.8 -2.07846
      vertex 5.5 -30.3788 -2.31822
      vertex 5.5 -29.8 -2.07846
    endloop
  endfacet
  facet normal 0 -0.382701 0.923872
    outer loop
      vertex 5.5 -30.3788 -2.31822
      vertex 3.5 -29.8 -2.07846
      vertex 3.5 -30.3788 -2.31822
    endloop
  endfacet
  facet normal 0 0.793359 -0.608754
    outer loop
      vertex 5.5 -33.0785 1.2
      vertex 3.5 -32.6971 1.69706
      vertex 5.5 -32.6971 1.69706
    endloop
  endfacet
  facet normal 0 0.793359 -0.608754
    outer loop
      vertex 3.5 -32.6971 1.69706
      vertex 5.5 -33.0785 1.2
      vertex 3.5 -33.0785 1.2
    endloop
  endfacet
  facet normal 0 -0.130522 -0.991445
    outer loop
      vertex 3.5 -31 2.4
      vertex 5.5 -30.3788 2.31822
      vertex 5.5 -31 2.4
    endloop
  endfacet
  facet normal -0 -0.130522 -0.991445
    outer loop
      vertex 5.5 -30.3788 2.31822
      vertex 3.5 -31 2.4
      vertex 3.5 -30.3788 2.31822
    endloop
  endfacet
  facet normal 0 -0.99144 0.130561
    outer loop
      vertex 3.5 -28.6818 -0.621165
      vertex 5.5 -28.6 0
      vertex 3.5 -28.6 0
    endloop
  endfacet
  facet normal 0 -0.99144 0.130561
    outer loop
      vertex 5.5 -28.6 0
      vertex 3.5 -28.6818 -0.621165
      vertex 5.5 -28.6818 -0.621165
    endloop
  endfacet
  facet normal 0 0.793359 0.608754
    outer loop
      vertex 5.5 -32.6971 -1.69706
      vertex 3.5 -33.0785 -1.2
      vertex 5.5 -33.0785 -1.2
    endloop
  endfacet
  facet normal 0 0.793359 0.608754
    outer loop
      vertex 3.5 -33.0785 -1.2
      vertex 5.5 -32.6971 -1.69706
      vertex 3.5 -32.6971 -1.69706
    endloop
  endfacet
  facet normal 0 0.130522 -0.991445
    outer loop
      vertex 3.5 -31.6212 2.31822
      vertex 5.5 -31 2.4
      vertex 5.5 -31.6212 2.31822
    endloop
  endfacet
  facet normal 0 0.130522 -0.991445
    outer loop
      vertex 5.5 -31 2.4
      vertex 3.5 -31.6212 2.31822
      vertex 3.5 -31 2.4
    endloop
  endfacet
  facet normal 0 -0.608723 -0.793383
    outer loop
      vertex 3.5 -29.8 2.07846
      vertex 5.5 -29.3029 1.69706
      vertex 5.5 -29.8 2.07846
    endloop
  endfacet
  facet normal -0 -0.608723 -0.793383
    outer loop
      vertex 5.5 -29.3029 1.69706
      vertex 3.5 -29.8 2.07846
      vertex 3.5 -29.3029 1.69706
    endloop
  endfacet
  facet normal 0 0.99144 0.130561
    outer loop
      vertex 5.5 -33.3182 -0.621165
      vertex 3.5 -33.4 0
      vertex 5.5 -33.4 0
    endloop
  endfacet
  facet normal 0 0.99144 0.130561
    outer loop
      vertex 3.5 -33.4 0
      vertex 5.5 -33.3182 -0.621165
      vertex 3.5 -33.3182 -0.621165
    endloop
  endfacet
  facet normal 0 -0.923914 0.3826
    outer loop
      vertex 3.5 -28.9215 -1.2
      vertex 5.5 -28.6818 -0.621165
      vertex 3.5 -28.6818 -0.621165
    endloop
  endfacet
  facet normal 0 -0.923914 0.3826
    outer loop
      vertex 5.5 -28.6818 -0.621165
      vertex 3.5 -28.9215 -1.2
      vertex 5.5 -28.9215 -1.2
    endloop
  endfacet
  facet normal 0 -0.130522 0.991445
    outer loop
      vertex 3.5 -30.3788 -2.31822
      vertex 5.5 -31 -2.4
      vertex 5.5 -30.3788 -2.31822
    endloop
  endfacet
  facet normal 0 -0.130522 0.991445
    outer loop
      vertex 5.5 -31 -2.4
      vertex 3.5 -30.3788 -2.31822
      vertex 3.5 -31 -2.4
    endloop
  endfacet
  facet normal 0 -0.793359 -0.608754
    outer loop
      vertex 3.5 -28.9215 1.2
      vertex 5.5 -29.3029 1.69706
      vertex 3.5 -29.3029 1.69706
    endloop
  endfacet
  facet normal 0 -0.793359 -0.608754
    outer loop
      vertex 5.5 -29.3029 1.69706
      vertex 3.5 -28.9215 1.2
      vertex 5.5 -28.9215 1.2
    endloop
  endfacet
  facet normal 0 0.923914 0.3826
    outer loop
      vertex 5.5 -33.0785 -1.2
      vertex 3.5 -33.3182 -0.621165
      vertex 5.5 -33.3182 -0.621165
    endloop
  endfacet
  facet normal 0 0.923914 0.3826
    outer loop
      vertex 3.5 -33.3182 -0.621165
      vertex 5.5 -33.0785 -1.2
      vertex 3.5 -33.0785 -1.2
    endloop
  endfacet
  facet normal 0 0.923914 -0.3826
    outer loop
      vertex 5.5 -33.3182 0.621165
      vertex 3.5 -33.0785 1.2
      vertex 5.5 -33.0785 1.2
    endloop
  endfacet
  facet normal 0 0.923914 -0.3826
    outer loop
      vertex 3.5 -33.0785 1.2
      vertex 5.5 -33.3182 0.621165
      vertex 3.5 -33.3182 0.621165
    endloop
  endfacet
  facet normal 0 0.99144 -0.130561
    outer loop
      vertex 5.5 -33.4 0
      vertex 3.5 -33.3182 0.621165
      vertex 5.5 -33.3182 0.621165
    endloop
  endfacet
  facet normal 0 0.99144 -0.130561
    outer loop
      vertex 3.5 -33.3182 0.621165
      vertex 5.5 -33.4 0
      vertex 3.5 -33.4 0
    endloop
  endfacet
  facet normal 0 -0.55566 -0.831409
    outer loop
      vertex 3.5 -30.6747 7.7853
      vertex 5.5 -30.399 7.60104
      vertex 5.5 -30.6747 7.7853
    endloop
  endfacet
  facet normal -0 -0.55566 -0.831409
    outer loop
      vertex 5.5 -30.399 7.60104
      vertex 3.5 -30.6747 7.7853
      vertex 3.5 -30.399 7.60104
    endloop
  endfacet
  facet normal 0 0.980787 0.195084
    outer loop
      vertex 5.5 -31.7853 6.67472
      vertex 3.5 -31.85 7
      vertex 5.5 -31.85 7
    endloop
  endfacet
  facet normal 0 0.980787 0.195084
    outer loop
      vertex 3.5 -31.85 7
      vertex 5.5 -31.7853 6.67472
      vertex 3.5 -31.7853 6.67472
    endloop
  endfacet
  facet normal 0 0.195072 -0.980789
    outer loop
      vertex 3.5 -31.3253 7.7853
      vertex 5.5 -31 7.85
      vertex 5.5 -31.3253 7.7853
    endloop
  endfacet
  facet normal 0 0.195072 -0.980789
    outer loop
      vertex 5.5 -31 7.85
      vertex 3.5 -31.3253 7.7853
      vertex 3.5 -31 7.85
    endloop
  endfacet
  facet normal 0 0.83141 -0.55566
    outer loop
      vertex 5.5 -31.7853 7.32528
      vertex 3.5 -31.601 7.60104
      vertex 5.5 -31.601 7.60104
    endloop
  endfacet
  facet normal 0 0.83141 -0.55566
    outer loop
      vertex 3.5 -31.601 7.60104
      vertex 5.5 -31.7853 7.32528
      vertex 3.5 -31.7853 7.32528
    endloop
  endfacet
  facet normal 0 -0.980787 -0.195084
    outer loop
      vertex 3.5 -30.15 7
      vertex 5.5 -30.2147 7.32528
      vertex 3.5 -30.2147 7.32528
    endloop
  endfacet
  facet normal 0 -0.980787 -0.195084
    outer loop
      vertex 5.5 -30.2147 7.32528
      vertex 3.5 -30.15 7
      vertex 5.5 -30.15 7
    endloop
  endfacet
  facet normal 0 -0.195072 0.980789
    outer loop
      vertex 3.5 -30.6747 6.2147
      vertex 5.5 -31 6.15
      vertex 5.5 -30.6747 6.2147
    endloop
  endfacet
  facet normal 0 -0.195072 0.980789
    outer loop
      vertex 5.5 -31 6.15
      vertex 3.5 -30.6747 6.2147
      vertex 3.5 -31 6.15
    endloop
  endfacet
  facet normal 0 -0.980787 0.195084
    outer loop
      vertex 3.5 -30.2147 6.67472
      vertex 5.5 -30.15 7
      vertex 3.5 -30.15 7
    endloop
  endfacet
  facet normal 0 -0.980787 0.195084
    outer loop
      vertex 5.5 -30.15 7
      vertex 3.5 -30.2147 6.67472
      vertex 5.5 -30.2147 6.67472
    endloop
  endfacet
  facet normal 0 -0.195072 -0.980789
    outer loop
      vertex 3.5 -31 7.85
      vertex 5.5 -30.6747 7.7853
      vertex 5.5 -31 7.85
    endloop
  endfacet
  facet normal -0 -0.195072 -0.980789
    outer loop
      vertex 5.5 -30.6747 7.7853
      vertex 3.5 -31 7.85
      vertex 3.5 -30.6747 7.7853
    endloop
  endfacet
  facet normal -0 0.195072 0.980789
    outer loop
      vertex 3.5 -31 6.15
      vertex 5.5 -31.3253 6.2147
      vertex 5.5 -31 6.15
    endloop
  endfacet
  facet normal 0 0.195072 0.980789
    outer loop
      vertex 5.5 -31.3253 6.2147
      vertex 3.5 -31 6.15
      vertex 3.5 -31.3253 6.2147
    endloop
  endfacet
  facet normal 0 -0.83141 -0.55566
    outer loop
      vertex 3.5 -30.2147 7.32528
      vertex 5.5 -30.399 7.60104
      vertex 3.5 -30.399 7.60104
    endloop
  endfacet
  facet normal 0 -0.83141 -0.55566
    outer loop
      vertex 5.5 -30.399 7.60104
      vertex 3.5 -30.2147 7.32528
      vertex 5.5 -30.2147 7.32528
    endloop
  endfacet
  facet normal 0 -0.55566 0.831409
    outer loop
      vertex 3.5 -30.399 6.39896
      vertex 5.5 -30.6747 6.2147
      vertex 5.5 -30.399 6.39896
    endloop
  endfacet
  facet normal 0 -0.55566 0.831409
    outer loop
      vertex 5.5 -30.6747 6.2147
      vertex 3.5 -30.399 6.39896
      vertex 3.5 -30.6747 6.2147
    endloop
  endfacet
  facet normal 0 -0.83141 0.55566
    outer loop
      vertex 3.5 -30.399 6.39896
      vertex 5.5 -30.2147 6.67472
      vertex 3.5 -30.2147 6.67472
    endloop
  endfacet
  facet normal 0 -0.83141 0.55566
    outer loop
      vertex 5.5 -30.2147 6.67472
      vertex 3.5 -30.399 6.39896
      vertex 5.5 -30.399 6.39896
    endloop
  endfacet
  facet normal 0 0.83141 0.55566
    outer loop
      vertex 5.5 -31.601 6.39896
      vertex 3.5 -31.7853 6.67472
      vertex 5.5 -31.7853 6.67472
    endloop
  endfacet
  facet normal 0 0.83141 0.55566
    outer loop
      vertex 3.5 -31.7853 6.67472
      vertex 5.5 -31.601 6.39896
      vertex 3.5 -31.601 6.39896
    endloop
  endfacet
  facet normal 0 0.980787 -0.195084
    outer loop
      vertex 5.5 -31.85 7
      vertex 3.5 -31.7853 7.32528
      vertex 5.5 -31.7853 7.32528
    endloop
  endfacet
  facet normal 0 0.980787 -0.195084
    outer loop
      vertex 3.5 -31.7853 7.32528
      vertex 5.5 -31.85 7
      vertex 3.5 -31.85 7
    endloop
  endfacet
  facet normal 0 0.55566 -0.831409
    outer loop
      vertex 3.5 -31.601 7.60104
      vertex 5.5 -31.3253 7.7853
      vertex 5.5 -31.601 7.60104
    endloop
  endfacet
  facet normal 0 0.55566 -0.831409
    outer loop
      vertex 5.5 -31.3253 7.7853
      vertex 3.5 -31.601 7.60104
      vertex 3.5 -31.3253 7.7853
    endloop
  endfacet
  facet normal -0 0.55566 0.831409
    outer loop
      vertex 3.5 -31.3253 6.2147
      vertex 5.5 -31.601 6.39896
      vertex 5.5 -31.3253 6.2147
    endloop
  endfacet
  facet normal 0 0.55566 0.831409
    outer loop
      vertex 5.5 -31.601 6.39896
      vertex 3.5 -31.3253 6.2147
      vertex 3.5 -31.601 6.39896
    endloop
  endfacet
  facet normal 0 -0.55566 -0.831409
    outer loop
      vertex 3.5 -30.6747 -6.2147
      vertex 5.5 -30.399 -6.39896
      vertex 5.5 -30.6747 -6.2147
    endloop
  endfacet
  facet normal -0 -0.55566 -0.831409
    outer loop
      vertex 5.5 -30.399 -6.39896
      vertex 3.5 -30.6747 -6.2147
      vertex 3.5 -30.399 -6.39896
    endloop
  endfacet
  facet normal 0 -0.195072 -0.980789
    outer loop
      vertex 3.5 -31 -6.15
      vertex 5.5 -30.6747 -6.2147
      vertex 5.5 -31 -6.15
    endloop
  endfacet
  facet normal -0 -0.195072 -0.980789
    outer loop
      vertex 5.5 -30.6747 -6.2147
      vertex 3.5 -31 -6.15
      vertex 3.5 -30.6747 -6.2147
    endloop
  endfacet
  facet normal 0 0.980787 -0.195084
    outer loop
      vertex 5.5 -31.85 -7
      vertex 3.5 -31.7853 -6.67472
      vertex 5.5 -31.7853 -6.67472
    endloop
  endfacet
  facet normal 0 0.980787 -0.195084
    outer loop
      vertex 3.5 -31.7853 -6.67472
      vertex 5.5 -31.85 -7
      vertex 3.5 -31.85 -7
    endloop
  endfacet
  facet normal 0 -0.980787 0.195084
    outer loop
      vertex 3.5 -30.2147 -7.32528
      vertex 5.5 -30.15 -7
      vertex 3.5 -30.15 -7
    endloop
  endfacet
  facet normal 0 -0.980787 0.195084
    outer loop
      vertex 5.5 -30.15 -7
      vertex 3.5 -30.2147 -7.32528
      vertex 5.5 -30.2147 -7.32528
    endloop
  endfacet
  facet normal 0 -0.980787 -0.195084
    outer loop
      vertex 3.5 -30.15 -7
      vertex 5.5 -30.2147 -6.67472
      vertex 3.5 -30.2147 -6.67472
    endloop
  endfacet
  facet normal 0 -0.980787 -0.195084
    outer loop
      vertex 5.5 -30.2147 -6.67472
      vertex 3.5 -30.15 -7
      vertex 5.5 -30.15 -7
    endloop
  endfacet
  facet normal 0 0.55566 -0.831409
    outer loop
      vertex 3.5 -31.601 -6.39896
      vertex 5.5 -31.3253 -6.2147
      vertex 5.5 -31.601 -6.39896
    endloop
  endfacet
  facet normal 0 0.55566 -0.831409
    outer loop
      vertex 5.5 -31.3253 -6.2147
      vertex 3.5 -31.601 -6.39896
      vertex 3.5 -31.3253 -6.2147
    endloop
  endfacet
  facet normal 0 0.980787 0.195084
    outer loop
      vertex 5.5 -31.7853 -7.32528
      vertex 3.5 -31.85 -7
      vertex 5.5 -31.85 -7
    endloop
  endfacet
  facet normal 0 0.980787 0.195084
    outer loop
      vertex 3.5 -31.85 -7
      vertex 5.5 -31.7853 -7.32528
      vertex 3.5 -31.7853 -7.32528
    endloop
  endfacet
  facet normal 0 -0.55566 0.831409
    outer loop
      vertex 3.5 -30.399 -7.60104
      vertex 5.5 -30.6747 -7.7853
      vertex 5.5 -30.399 -7.60104
    endloop
  endfacet
  facet normal 0 -0.55566 0.831409
    outer loop
      vertex 5.5 -30.6747 -7.7853
      vertex 3.5 -30.399 -7.60104
      vertex 3.5 -30.6747 -7.7853
    endloop
  endfacet
  facet normal 0 0.83141 0.55566
    outer loop
      vertex 5.5 -31.601 -7.60104
      vertex 3.5 -31.7853 -7.32528
      vertex 5.5 -31.7853 -7.32528
    endloop
  endfacet
  facet normal 0 0.83141 0.55566
    outer loop
      vertex 3.5 -31.7853 -7.32528
      vertex 5.5 -31.601 -7.60104
      vertex 3.5 -31.601 -7.60104
    endloop
  endfacet
  facet normal 0 -0.195072 0.980789
    outer loop
      vertex 3.5 -30.6747 -7.7853
      vertex 5.5 -31 -7.85
      vertex 5.5 -30.6747 -7.7853
    endloop
  endfacet
  facet normal 0 -0.195072 0.980789
    outer loop
      vertex 5.5 -31 -7.85
      vertex 3.5 -30.6747 -7.7853
      vertex 3.5 -31 -7.85
    endloop
  endfacet
  facet normal 0 0.83141 -0.55566
    outer loop
      vertex 5.5 -31.7853 -6.67472
      vertex 3.5 -31.601 -6.39896
      vertex 5.5 -31.601 -6.39896
    endloop
  endfacet
  facet normal 0 0.83141 -0.55566
    outer loop
      vertex 3.5 -31.601 -6.39896
      vertex 5.5 -31.7853 -6.67472
      vertex 3.5 -31.7853 -6.67472
    endloop
  endfacet
  facet normal 0 -0.83141 -0.55566
    outer loop
      vertex 3.5 -30.2147 -6.67472
      vertex 5.5 -30.399 -6.39896
      vertex 3.5 -30.399 -6.39896
    endloop
  endfacet
  facet normal 0 -0.83141 -0.55566
    outer loop
      vertex 5.5 -30.399 -6.39896
      vertex 3.5 -30.2147 -6.67472
      vertex 5.5 -30.2147 -6.67472
    endloop
  endfacet
  facet normal 0 0.195072 -0.980789
    outer loop
      vertex 3.5 -31.3253 -6.2147
      vertex 5.5 -31 -6.15
      vertex 5.5 -31.3253 -6.2147
    endloop
  endfacet
  facet normal 0 0.195072 -0.980789
    outer loop
      vertex 5.5 -31 -6.15
      vertex 3.5 -31.3253 -6.2147
      vertex 3.5 -31 -6.15
    endloop
  endfacet
  facet normal -0 0.195072 0.980789
    outer loop
      vertex 3.5 -31 -7.85
      vertex 5.5 -31.3253 -7.7853
      vertex 5.5 -31 -7.85
    endloop
  endfacet
  facet normal 0 0.195072 0.980789
    outer loop
      vertex 5.5 -31.3253 -7.7853
      vertex 3.5 -31 -7.85
      vertex 3.5 -31.3253 -7.7853
    endloop
  endfacet
  facet normal 0 -0.83141 0.55566
    outer loop
      vertex 3.5 -30.399 -7.60104
      vertex 5.5 -30.2147 -7.32528
      vertex 3.5 -30.2147 -7.32528
    endloop
  endfacet
  facet normal 0 -0.83141 0.55566
    outer loop
      vertex 5.5 -30.2147 -7.32528
      vertex 3.5 -30.399 -7.60104
      vertex 5.5 -30.399 -7.60104
    endloop
  endfacet
  facet normal -0 0.55566 0.831409
    outer loop
      vertex 3.5 -31.3253 -7.7853
      vertex 5.5 -31.601 -7.60104
      vertex 5.5 -31.3253 -7.7853
    endloop
  endfacet
  facet normal 0 0.55566 0.831409
    outer loop
      vertex 5.5 -31.601 -7.60104
      vertex 3.5 -31.3253 -7.7853
      vertex 3.5 -31.601 -7.60104
    endloop
  endfacet
  facet normal 0 -0.923892 0.382652
    outer loop
      vertex 3.5 23.3816 -1.375
      vertex 5.5 23.6563 -0.711752
      vertex 3.5 23.6563 -0.711752
    endloop
  endfacet
  facet normal 0 -0.923892 0.382652
    outer loop
      vertex 5.5 23.6563 -0.711752
      vertex 3.5 23.3816 -1.375
      vertex 5.5 23.3816 -1.375
    endloop
  endfacet
  facet normal -0 0.382711 0.923868
    outer loop
      vertex 3.5 20.2882 -2.6563
      vertex 5.5 19.625 -2.38157
      vertex 5.5 20.2882 -2.6563
    endloop
  endfacet
  facet normal 0 0.382711 0.923868
    outer loop
      vertex 5.5 19.625 -2.38157
      vertex 3.5 20.2882 -2.6563
      vertex 3.5 19.625 -2.38157
    endloop
  endfacet
  facet normal 0 -0.382711 0.923868
    outer loop
      vertex 3.5 22.375 -2.38157
      vertex 5.5 21.7118 -2.6563
      vertex 5.5 22.375 -2.38157
    endloop
  endfacet
  facet normal 0 -0.382711 0.923868
    outer loop
      vertex 5.5 21.7118 -2.6563
      vertex 3.5 22.375 -2.38157
      vertex 3.5 21.7118 -2.6563
    endloop
  endfacet
  facet normal 0 -0.991446 -0.130521
    outer loop
      vertex 3.5 23.75 0
      vertex 5.5 23.6563 0.711752
      vertex 3.5 23.6563 0.711752
    endloop
  endfacet
  facet normal 0 -0.991446 -0.130521
    outer loop
      vertex 5.5 23.6563 0.711752
      vertex 3.5 23.75 0
      vertex 5.5 23.75 0
    endloop
  endfacet
  facet normal 0 -0.130512 -0.991447
    outer loop
      vertex 3.5 21 2.75
      vertex 5.5 21.7118 2.6563
      vertex 5.5 21 2.75
    endloop
  endfacet
  facet normal -0 -0.130512 -0.991447
    outer loop
      vertex 5.5 21.7118 2.6563
      vertex 3.5 21 2.75
      vertex 3.5 21.7118 2.6563
    endloop
  endfacet
  facet normal 0 0.793302 -0.608829
    outer loop
      vertex 5.5 18.6184 1.375
      vertex 3.5 19.0555 1.94454
      vertex 5.5 19.0555 1.94454
    endloop
  endfacet
  facet normal 0 0.793302 -0.608829
    outer loop
      vertex 3.5 19.0555 1.94454
      vertex 5.5 18.6184 1.375
      vertex 3.5 18.6184 1.375
    endloop
  endfacet
  facet normal 0 0.991446 0.130521
    outer loop
      vertex 5.5 18.3437 -0.711752
      vertex 3.5 18.25 0
      vertex 5.5 18.25 0
    endloop
  endfacet
  facet normal 0 0.991446 0.130521
    outer loop
      vertex 3.5 18.25 0
      vertex 5.5 18.3437 -0.711752
      vertex 3.5 18.3437 -0.711752
    endloop
  endfacet
  facet normal 0 -0.130512 0.991447
    outer loop
      vertex 3.5 21.7118 -2.6563
      vertex 5.5 21 -2.75
      vertex 5.5 21.7118 -2.6563
    endloop
  endfacet
  facet normal 0 -0.130512 0.991447
    outer loop
      vertex 5.5 21 -2.75
      vertex 3.5 21.7118 -2.6563
      vertex 3.5 21 -2.75
    endloop
  endfacet
  facet normal 0 0.608794 -0.793328
    outer loop
      vertex 3.5 19.0555 1.94454
      vertex 5.5 19.625 2.38157
      vertex 5.5 19.0555 1.94454
    endloop
  endfacet
  facet normal 0 0.608794 -0.793328
    outer loop
      vertex 5.5 19.625 2.38157
      vertex 3.5 19.0555 1.94454
      vertex 3.5 19.625 2.38157
    endloop
  endfacet
  facet normal 0 -0.923892 -0.382652
    outer loop
      vertex 3.5 23.6563 0.711752
      vertex 5.5 23.3816 1.375
      vertex 3.5 23.3816 1.375
    endloop
  endfacet
  facet normal 0 -0.923892 -0.382652
    outer loop
      vertex 5.5 23.3816 1.375
      vertex 3.5 23.6563 0.711752
      vertex 5.5 23.6563 0.711752
    endloop
  endfacet
  facet normal 0 0.382711 -0.923868
    outer loop
      vertex 3.5 19.625 2.38157
      vertex 5.5 20.2882 2.6563
      vertex 5.5 19.625 2.38157
    endloop
  endfacet
  facet normal 0 0.382711 -0.923868
    outer loop
      vertex 5.5 20.2882 2.6563
      vertex 3.5 19.625 2.38157
      vertex 3.5 20.2882 2.6563
    endloop
  endfacet
  facet normal -0 0.130512 0.991447
    outer loop
      vertex 3.5 21 -2.75
      vertex 5.5 20.2882 -2.6563
      vertex 5.5 21 -2.75
    endloop
  endfacet
  facet normal 0 0.130512 0.991447
    outer loop
      vertex 5.5 20.2882 -2.6563
      vertex 3.5 21 -2.75
      vertex 3.5 20.2882 -2.6563
    endloop
  endfacet
  facet normal 0 0.991446 -0.130521
    outer loop
      vertex 5.5 18.25 0
      vertex 3.5 18.3437 0.711752
      vertex 5.5 18.3437 0.711752
    endloop
  endfacet
  facet normal 0 0.991446 -0.130521
    outer loop
      vertex 3.5 18.3437 0.711752
      vertex 5.5 18.25 0
      vertex 3.5 18.25 0
    endloop
  endfacet
  facet normal 0 0.130512 -0.991447
    outer loop
      vertex 3.5 20.2882 2.6563
      vertex 5.5 21 2.75
      vertex 5.5 20.2882 2.6563
    endloop
  endfacet
  facet normal 0 0.130512 -0.991447
    outer loop
      vertex 5.5 21 2.75
      vertex 3.5 20.2882 2.6563
      vertex 3.5 21 2.75
    endloop
  endfacet
  facet normal 0 -0.382711 -0.923868
    outer loop
      vertex 3.5 21.7118 2.6563
      vertex 5.5 22.375 2.38157
      vertex 5.5 21.7118 2.6563
    endloop
  endfacet
  facet normal -0 -0.382711 -0.923868
    outer loop
      vertex 5.5 22.375 2.38157
      vertex 3.5 21.7118 2.6563
      vertex 3.5 22.375 2.38157
    endloop
  endfacet
  facet normal 0 -0.991446 0.130521
    outer loop
      vertex 3.5 23.6563 -0.711752
      vertex 5.5 23.75 0
      vertex 3.5 23.75 0
    endloop
  endfacet
  facet normal 0 -0.991446 0.130521
    outer loop
      vertex 5.5 23.75 0
      vertex 3.5 23.6563 -0.711752
      vertex 5.5 23.6563 -0.711752
    endloop
  endfacet
  facet normal 0 0.923892 -0.382652
    outer loop
      vertex 5.5 18.3437 0.711752
      vertex 3.5 18.6184 1.375
      vertex 5.5 18.6184 1.375
    endloop
  endfacet
  facet normal 0 0.923892 -0.382652
    outer loop
      vertex 3.5 18.6184 1.375
      vertex 5.5 18.3437 0.711752
      vertex 3.5 18.3437 0.711752
    endloop
  endfacet
  facet normal 0 -0.608794 -0.793328
    outer loop
      vertex 3.5 22.375 2.38157
      vertex 5.5 22.9445 1.94454
      vertex 5.5 22.375 2.38157
    endloop
  endfacet
  facet normal -0 -0.608794 -0.793328
    outer loop
      vertex 5.5 22.9445 1.94454
      vertex 3.5 22.375 2.38157
      vertex 3.5 22.9445 1.94454
    endloop
  endfacet
  facet normal 0 0.923892 0.382652
    outer loop
      vertex 5.5 18.6184 -1.375
      vertex 3.5 18.3437 -0.711752
      vertex 5.5 18.3437 -0.711752
    endloop
  endfacet
  facet normal 0 0.923892 0.382652
    outer loop
      vertex 3.5 18.3437 -0.711752
      vertex 5.5 18.6184 -1.375
      vertex 3.5 18.6184 -1.375
    endloop
  endfacet
  facet normal -0 0.608794 0.793328
    outer loop
      vertex 3.5 19.625 -2.38157
      vertex 5.5 19.0555 -1.94454
      vertex 5.5 19.625 -2.38157
    endloop
  endfacet
  facet normal 0 0.608794 0.793328
    outer loop
      vertex 5.5 19.0555 -1.94454
      vertex 3.5 19.625 -2.38157
      vertex 3.5 19.0555 -1.94454
    endloop
  endfacet
  facet normal 0 -0.793302 -0.608829
    outer loop
      vertex 3.5 23.3816 1.375
      vertex 5.5 22.9445 1.94454
      vertex 3.5 22.9445 1.94454
    endloop
  endfacet
  facet normal 0 -0.793302 -0.608829
    outer loop
      vertex 5.5 22.9445 1.94454
      vertex 3.5 23.3816 1.375
      vertex 5.5 23.3816 1.375
    endloop
  endfacet
  facet normal 0 -0.608794 0.793328
    outer loop
      vertex 3.5 22.9445 -1.94454
      vertex 5.5 22.375 -2.38157
      vertex 5.5 22.9445 -1.94454
    endloop
  endfacet
  facet normal 0 -0.608794 0.793328
    outer loop
      vertex 5.5 22.375 -2.38157
      vertex 3.5 22.9445 -1.94454
      vertex 3.5 22.375 -2.38157
    endloop
  endfacet
  facet normal 0 -0.793302 0.608829
    outer loop
      vertex 3.5 22.9445 -1.94454
      vertex 5.5 23.3816 -1.375
      vertex 3.5 23.3816 -1.375
    endloop
  endfacet
  facet normal 0 -0.793302 0.608829
    outer loop
      vertex 5.5 23.3816 -1.375
      vertex 3.5 22.9445 -1.94454
      vertex 5.5 22.9445 -1.94454
    endloop
  endfacet
  facet normal 0 0.793302 0.608829
    outer loop
      vertex 5.5 19.0555 -1.94454
      vertex 3.5 18.6184 -1.375
      vertex 5.5 18.6184 -1.375
    endloop
  endfacet
  facet normal 0 0.793302 0.608829
    outer loop
      vertex 3.5 18.6184 -1.375
      vertex 5.5 19.0555 -1.94454
      vertex 3.5 19.0555 -1.94454
    endloop
  endfacet
endsolid OpenSCAD_Model
