solid OpenSCAD_Model
  facet normal 1 -0 0
    outer loop
      vertex 8 -2.1 1
      vertex 8 2.1 -1
      vertex 8 2.1 1
    endloop
  endfacet
  facet normal 1 0 0
    outer loop
      vertex 8 2.1 -1
      vertex 8 -2.1 1
      vertex 8 -2.1 -1
    endloop
  endfacet
  facet normal 0 -1 0
    outer loop
      vertex -8 -2.1 -1
      vertex 8 -2.1 1
      vertex -8 -2.1 1
    endloop
  endfacet
  facet normal 0 -1 -0
    outer loop
      vertex 8 -2.1 1
      vertex -8 -2.1 -1
      vertex 8 -2.1 -1
    endloop
  endfacet
  facet normal 0 1 -0
    outer loop
      vertex 8 2.1 -1
      vertex -8 2.1 1
      vertex 8 2.1 1
    endloop
  endfacet
  facet normal 0 1 0
    outer loop
      vertex -8 2.1 1
      vertex 8 2.1 -1
      vertex -8 2.1 -1
    endloop
  endfacet
  facet normal -1 0 0
    outer loop
      vertex -8 -2.1 -1
      vertex -8 2.1 1
      vertex -8 2.1 -1
    endloop
  endfacet
  facet normal -1 -0 0
    outer loop
      vertex -8 2.1 1
      vertex -8 -2.1 -1
      vertex -8 -2.1 1
    endloop
  endfacet
  facet normal 0 0 1
    outer loop
      vertex 8 2.1 1
      vertex 0.849999 -0.0999994 1
      vertex 8 -2.1 1
    endloop
  endfacet
  facet normal 0 0 1
    outer loop
      vertex 8 2.1 1
      vertex 0.785297 0.225281 1
      vertex 0.849999 -0.0999994 1
    endloop
  endfacet
  facet normal 0 0 1
    outer loop
      vertex 8 2.1 1
      vertex 0.60104 0.50104 1
      vertex 0.785297 0.225281 1
    endloop
  endfacet
  facet normal 0 0 1
    outer loop
      vertex 8 2.1 1
      vertex 0.32528 0.685297 1
      vertex 0.60104 0.50104 1
    endloop
  endfacet
  facet normal 0 0 1
    outer loop
      vertex 8 2.1 1
      vertex 0 0.75 1
      vertex 0.32528 0.685297 1
    endloop
  endfacet
  facet normal 0 0 1
    outer loop
      vertex -0.785297 0.225281 1
      vertex -8 2.1 1
      vertex -0.849999 -0.0999994 1
    endloop
  endfacet
  facet normal 0 0 1
    outer loop
      vertex -0.60104 0.50104 1
      vertex -8 2.1 1
      vertex -0.785297 0.225281 1
    endloop
  endfacet
  facet normal 0 0 1
    outer loop
      vertex -0.32528 0.685297 1
      vertex -8 2.1 1
      vertex -0.60104 0.50104 1
    endloop
  endfacet
  facet normal 0 0 1
    outer loop
      vertex 0 0.75 1
      vertex -8 2.1 1
      vertex -0.32528 0.685297 1
    endloop
  endfacet
  facet normal -0 0 1
    outer loop
      vertex -8 2.1 1
      vertex 0 0.75 1
      vertex 8 2.1 1
    endloop
  endfacet
  facet normal -0 0 1
    outer loop
      vertex 0.785297 -0.425281 1
      vertex 8 -2.1 1
      vertex 0.849999 -0.0999994 1
    endloop
  endfacet
  facet normal -0 0 1
    outer loop
      vertex 0.60104 -0.70104 1
      vertex 8 -2.1 1
      vertex 0.785297 -0.425281 1
    endloop
  endfacet
  facet normal -0 0 1
    outer loop
      vertex 0.32528 -0.885297 1
      vertex 8 -2.1 1
      vertex 0.60104 -0.70104 1
    endloop
  endfacet
  facet normal -0 0 1
    outer loop
      vertex 0 -0.95 1
      vertex 8 -2.1 1
      vertex 0.32528 -0.885297 1
    endloop
  endfacet
  facet normal 0 0 1
    outer loop
      vertex -8 -2.1 1
      vertex -0.849999 -0.0999994 1
      vertex -8 2.1 1
    endloop
  endfacet
  facet normal 0 0 1
    outer loop
      vertex -0.849999 -0.0999994 1
      vertex -8 -2.1 1
      vertex -0.785297 -0.425281 1
    endloop
  endfacet
  facet normal 0 0 1
    outer loop
      vertex -0.785297 -0.425281 1
      vertex -8 -2.1 1
      vertex -0.60104 -0.70104 1
    endloop
  endfacet
  facet normal 0 0 1
    outer loop
      vertex 0 -0.95 1
      vertex -8 -2.1 1
      vertex 8 -2.1 1
    endloop
  endfacet
  facet normal 0 0 1
    outer loop
      vertex -0.32528 -0.885297 1
      vertex -8 -2.1 1
      vertex 0 -0.95 1
    endloop
  endfacet
  facet normal 0 0 1
    outer loop
      vertex -0.60104 -0.70104 1
      vertex -8 -2.1 1
      vertex -0.32528 -0.885297 1
    endloop
  endfacet
  facet normal 0 0 -1
    outer loop
      vertex 8 -2.1 -1
      vertex 0.849999 -0.0999994 -1
      vertex 8 2.1 -1
    endloop
  endfacet
  facet normal 0 0 -1
    outer loop
      vertex 8 -2.1 -1
      vertex 0.785297 -0.425281 -1
      vertex 0.849999 -0.0999994 -1
    endloop
  endfacet
  facet normal 0 0 -1
    outer loop
      vertex 8 -2.1 -1
      vertex 0.60104 -0.70104 -1
      vertex 0.785297 -0.425281 -1
    endloop
  endfacet
  facet normal 0 0 -1
    outer loop
      vertex 8 -2.1 -1
      vertex 0.32528 -0.885297 -1
      vertex 0.60104 -0.70104 -1
    endloop
  endfacet
  facet normal 0 0 -1
    outer loop
      vertex 8 -2.1 -1
      vertex 0 -0.95 -1
      vertex 0.32528 -0.885297 -1
    endloop
  endfacet
  facet normal -0 0 -1
    outer loop
      vertex -0.785297 -0.425281 -1
      vertex -8 -2.1 -1
      vertex -0.849999 -0.0999994 -1
    endloop
  endfacet
  facet normal -0 0 -1
    outer loop
      vertex -0.60104 -0.70104 -1
      vertex -8 -2.1 -1
      vertex -0.785297 -0.425281 -1
    endloop
  endfacet
  facet normal -0 0 -1
    outer loop
      vertex -0.32528 -0.885297 -1
      vertex -8 -2.1 -1
      vertex -0.60104 -0.70104 -1
    endloop
  endfacet
  facet normal -0 0 -1
    outer loop
      vertex 0 -0.95 -1
      vertex -8 -2.1 -1
      vertex -0.32528 -0.885297 -1
    endloop
  endfacet
  facet normal 0 0 -1
    outer loop
      vertex -8 -2.1 -1
      vertex 0 -0.95 -1
      vertex 8 -2.1 -1
    endloop
  endfacet
  facet normal 0 0 -1
    outer loop
      vertex 0.785297 0.225281 -1
      vertex 8 2.1 -1
      vertex 0.849999 -0.0999994 -1
    endloop
  endfacet
  facet normal 0 0 -1
    outer loop
      vertex 0.60104 0.50104 -1
      vertex 8 2.1 -1
      vertex 0.785297 0.225281 -1
    endloop
  endfacet
  facet normal 0 0 -1
    outer loop
      vertex 0.32528 0.685297 -1
      vertex 8 2.1 -1
      vertex 0.60104 0.50104 -1
    endloop
  endfacet
  facet normal 0 0 -1
    outer loop
      vertex 0 0.75 -1
      vertex 8 2.1 -1
      vertex 0.32528 0.685297 -1
    endloop
  endfacet
  facet normal 0 0 -1
    outer loop
      vertex -8 2.1 -1
      vertex -0.849999 -0.0999994 -1
      vertex -8 -2.1 -1
    endloop
  endfacet
  facet normal 0 0 -1
    outer loop
      vertex -0.849999 -0.0999994 -1
      vertex -8 2.1 -1
      vertex -0.785297 0.225281 -1
    endloop
  endfacet
  facet normal 0 0 -1
    outer loop
      vertex -0.785297 0.225281 -1
      vertex -8 2.1 -1
      vertex -0.60104 0.50104 -1
    endloop
  endfacet
  facet normal 0 0 -1
    outer loop
      vertex 0 0.75 -1
      vertex -8 2.1 -1
      vertex 8 2.1 -1
    endloop
  endfacet
  facet normal 0 0 -1
    outer loop
      vertex -0.32528 0.685297 -1
      vertex -8 2.1 -1
      vertex 0 0.75 -1
    endloop
  endfacet
  facet normal 0 0 -1
    outer loop
      vertex -0.60104 0.50104 -1
      vertex -8 2.1 -1
      vertex -0.32528 0.685297 -1
    endloop
  endfacet
  facet normal -0.831469 0.555572 0
    outer loop
      vertex 0.60104 -0.70104 -1
      vertex 0.785297 -0.425281 1
      vertex 0.785297 -0.425281 -1
    endloop
  endfacet
  facet normal -0.831469 0.555572 0
    outer loop
      vertex 0.785297 -0.425281 1
      vertex 0.60104 -0.70104 -1
      vertex 0.60104 -0.70104 1
    endloop
  endfacet
  facet normal -0.980786 0.195089 0
    outer loop
      vertex 0.785297 -0.425281 -1
      vertex 0.849999 -0.0999994 1
      vertex 0.849999 -0.0999994 -1
    endloop
  endfacet
  facet normal -0.980786 0.195089 0
    outer loop
      vertex 0.849999 -0.0999994 1
      vertex 0.785297 -0.425281 -1
      vertex 0.785297 -0.425281 1
    endloop
  endfacet
  facet normal -0.980785 -0.195089 0
    outer loop
      vertex 0.849999 -0.0999994 -1
      vertex 0.785297 0.225281 1
      vertex 0.785297 0.225281 -1
    endloop
  endfacet
  facet normal -0.980785 -0.195089 0
    outer loop
      vertex 0.785297 0.225281 1
      vertex 0.849999 -0.0999994 -1
      vertex 0.849999 -0.0999994 1
    endloop
  endfacet
  facet normal -0.195093 0.980785 0
    outer loop
      vertex 0.32528 -0.885297 -1
      vertex 0 -0.95 1
      vertex 0.32528 -0.885297 1
    endloop
  endfacet
  facet normal -0.195093 0.980785 0
    outer loop
      vertex 0 -0.95 1
      vertex 0.32528 -0.885297 -1
      vertex 0 -0.95 -1
    endloop
  endfacet
  facet normal -0.55557 -0.83147 0
    outer loop
      vertex 0.32528 0.685297 -1
      vertex 0.60104 0.50104 1
      vertex 0.32528 0.685297 1
    endloop
  endfacet
  facet normal -0.55557 -0.83147 -0
    outer loop
      vertex 0.60104 0.50104 1
      vertex 0.32528 0.685297 -1
      vertex 0.60104 0.50104 -1
    endloop
  endfacet
  facet normal -0.195093 -0.980785 0
    outer loop
      vertex 0 0.75 -1
      vertex 0.32528 0.685297 1
      vertex 0 0.75 1
    endloop
  endfacet
  facet normal -0.195093 -0.980785 -0
    outer loop
      vertex 0.32528 0.685297 1
      vertex 0 0.75 -1
      vertex 0.32528 0.685297 -1
    endloop
  endfacet
  facet normal 0.195093 -0.980785 0
    outer loop
      vertex -0.32528 0.685297 -1
      vertex 0 0.75 1
      vertex -0.32528 0.685297 1
    endloop
  endfacet
  facet normal 0.195093 -0.980785 0
    outer loop
      vertex 0 0.75 1
      vertex -0.32528 0.685297 -1
      vertex 0 0.75 -1
    endloop
  endfacet
  facet normal -0.55557 0.83147 0
    outer loop
      vertex 0.60104 -0.70104 -1
      vertex 0.32528 -0.885297 1
      vertex 0.60104 -0.70104 1
    endloop
  endfacet
  facet normal -0.55557 0.83147 0
    outer loop
      vertex 0.32528 -0.885297 1
      vertex 0.60104 -0.70104 -1
      vertex 0.32528 -0.885297 -1
    endloop
  endfacet
  facet normal 0.55557 0.83147 -0
    outer loop
      vertex -0.32528 -0.885297 -1
      vertex -0.60104 -0.70104 1
      vertex -0.32528 -0.885297 1
    endloop
  endfacet
  facet normal 0.55557 0.83147 0
    outer loop
      vertex -0.60104 -0.70104 1
      vertex -0.32528 -0.885297 -1
      vertex -0.60104 -0.70104 -1
    endloop
  endfacet
  facet normal 0.980786 0.195089 0
    outer loop
      vertex -0.785297 -0.425281 1
      vertex -0.849999 -0.0999994 -1
      vertex -0.849999 -0.0999994 1
    endloop
  endfacet
  facet normal 0.980786 0.195089 0
    outer loop
      vertex -0.849999 -0.0999994 -1
      vertex -0.785297 -0.425281 1
      vertex -0.785297 -0.425281 -1
    endloop
  endfacet
  facet normal 0.195093 0.980785 -0
    outer loop
      vertex 0 -0.95 -1
      vertex -0.32528 -0.885297 1
      vertex 0 -0.95 1
    endloop
  endfacet
  facet normal 0.195093 0.980785 0
    outer loop
      vertex -0.32528 -0.885297 1
      vertex 0 -0.95 -1
      vertex -0.32528 -0.885297 -1
    endloop
  endfacet
  facet normal -0.831469 -0.555572 0
    outer loop
      vertex 0.785297 0.225281 -1
      vertex 0.60104 0.50104 1
      vertex 0.60104 0.50104 -1
    endloop
  endfacet
  facet normal -0.831469 -0.555572 0
    outer loop
      vertex 0.60104 0.50104 1
      vertex 0.785297 0.225281 -1
      vertex 0.785297 0.225281 1
    endloop
  endfacet
  facet normal 0.831469 -0.555572 0
    outer loop
      vertex -0.785297 0.225281 1
      vertex -0.60104 0.50104 -1
      vertex -0.60104 0.50104 1
    endloop
  endfacet
  facet normal 0.831469 -0.555572 0
    outer loop
      vertex -0.60104 0.50104 -1
      vertex -0.785297 0.225281 1
      vertex -0.785297 0.225281 -1
    endloop
  endfacet
  facet normal 0.980785 -0.195089 0
    outer loop
      vertex -0.849999 -0.0999994 1
      vertex -0.785297 0.225281 -1
      vertex -0.785297 0.225281 1
    endloop
  endfacet
  facet normal 0.980785 -0.195089 0
    outer loop
      vertex -0.785297 0.225281 -1
      vertex -0.849999 -0.0999994 1
      vertex -0.849999 -0.0999994 -1
    endloop
  endfacet
  facet normal 0.831469 0.555572 0
    outer loop
      vertex -0.60104 -0.70104 1
      vertex -0.785297 -0.425281 -1
      vertex -0.785297 -0.425281 1
    endloop
  endfacet
  facet normal 0.831469 0.555572 0
    outer loop
      vertex -0.785297 -0.425281 -1
      vertex -0.60104 -0.70104 1
      vertex -0.60104 -0.70104 -1
    endloop
  endfacet
  facet normal 0.55557 -0.83147 0
    outer loop
      vertex -0.60104 0.50104 -1
      vertex -0.32528 0.685297 1
      vertex -0.60104 0.50104 1
    endloop
  endfacet
  facet normal 0.55557 -0.83147 0
    outer loop
      vertex -0.32528 0.685297 1
      vertex -0.60104 0.50104 -1
      vertex -0.32528 0.685297 -1
    endloop
  endfacet
endsolid OpenSCAD_Model
