solid OpenSCAD_Model
  facet normal 1 0 0
    outer loop
      vertex 5.5 -30.4215 -1.2
      vertex 5.5 -31.7147 -6.67472
      vertex 5.5 -31.65 -7
    endloop
  endfacet
  facet normal 1 0 0
    outer loop
      vertex 5.5 -31.899 -6.39896
      vertex 5.5 -31.3 -2.07846
      vertex 5.5 -31.8788 -2.31822
    endloop
  endfacet
  facet normal 1 0 0
    outer loop
      vertex 5.5 -31.3 -2.07846
      vertex 5.5 -31.899 -6.39896
      vertex 5.5 -31.7147 -6.67472
    endloop
  endfacet
  facet normal 1 0 0
    outer loop
      vertex 5.5 -31.8788 -2.31822
      vertex 5.5 -32.1747 -6.2147
      vertex 5.5 -31.899 -6.39896
    endloop
  endfacet
  facet normal 1 -0 0
    outer loop
      vertex 5.5 -32.5 -2.4
      vertex 5.5 -32.1747 -6.2147
      vertex 5.5 -31.8788 -2.31822
    endloop
  endfacet
  facet normal 1 0 0
    outer loop
      vertex 5.5 -32.5 -2.4
      vertex 5.5 -32.5 -6.15
      vertex 5.5 -32.1747 -6.2147
    endloop
  endfacet
  facet normal 1 0 0
    outer loop
      vertex 5.5 -32.5 -2.4
      vertex 5.5 -32.8253 -6.2147
      vertex 5.5 -32.5 -6.15
    endloop
  endfacet
  facet normal 1 0 0
    outer loop
      vertex 5.5 -33.1212 -2.31822
      vertex 5.5 -32.8253 -6.2147
      vertex 5.5 -32.5 -2.4
    endloop
  endfacet
  facet normal 1 0 0
    outer loop
      vertex 5.5 -32.8253 -6.2147
      vertex 5.5 -33.1212 -2.31822
      vertex 5.5 -33.101 -6.39896
    endloop
  endfacet
  facet normal 1 0 0
    outer loop
      vertex 5.5 -33.7 -2.07846
      vertex 5.5 -33.101 -6.39896
      vertex 5.5 -33.1212 -2.31822
    endloop
  endfacet
  facet normal 1 0 0
    outer loop
      vertex 5.5 -33.101 -6.39896
      vertex 5.5 -33.7 -2.07846
      vertex 5.5 -33.2853 -6.67472
    endloop
  endfacet
  facet normal 1 0 0
    outer loop
      vertex 5.5 -34.1971 -1.69706
      vertex 5.5 -33.2853 -6.67472
      vertex 5.5 -33.7 -2.07846
    endloop
  endfacet
  facet normal 1 0 0
    outer loop
      vertex 5.5 37.5 8
      vertex 5.5 28.25 0
      vertex 5.5 37.5 -8
    endloop
  endfacet
  facet normal 1 0 0
    outer loop
      vertex 5.5 37.5 8
      vertex 5.5 28.1563 0.711752
      vertex 5.5 28.25 0
    endloop
  endfacet
  facet normal 1 0 0
    outer loop
      vertex 5.5 37.5 8
      vertex 5.5 27.8816 1.375
      vertex 5.5 28.1563 0.711752
    endloop
  endfacet
  facet normal 1 0 0
    outer loop
      vertex 5.5 37.5 8
      vertex 5.5 27.4445 1.94454
      vertex 5.5 27.8816 1.375
    endloop
  endfacet
  facet normal 1 0 0
    outer loop
      vertex 5.5 37.5 8
      vertex 5.5 26.875 2.38157
      vertex 5.5 27.4445 1.94454
    endloop
  endfacet
  facet normal 1 0 0
    outer loop
      vertex 5.5 37.5 8
      vertex 5.5 26.2118 2.6563
      vertex 5.5 26.875 2.38157
    endloop
  endfacet
  facet normal 1 0 0
    outer loop
      vertex 5.5 37.5 8
      vertex 5.5 25.5 2.75
      vertex 5.5 26.2118 2.6563
    endloop
  endfacet
  facet normal 1 0 0
    outer loop
      vertex 5.5 37.5 8
      vertex 5.5 24.7882 2.6563
      vertex 5.5 25.5 2.75
    endloop
  endfacet
  facet normal 1 -0 0
    outer loop
      vertex 5.5 -32.1747 7.7853
      vertex 5.5 24.7882 2.6563
      vertex 5.5 37.5 8
    endloop
  endfacet
  facet normal 1 0 0
    outer loop
      vertex 5.5 22.8437 0.711752
      vertex 5.5 -30.1 0
      vertex 5.5 22.75 0
    endloop
  endfacet
  facet normal 1 0 0
    outer loop
      vertex 5.5 -31.65 7
      vertex 5.5 22.8437 0.711752
      vertex 5.5 23.1184 1.375
    endloop
  endfacet
  facet normal 1 0 0
    outer loop
      vertex 5.5 -31.7147 7.32528
      vertex 5.5 23.1184 1.375
      vertex 5.5 23.5555 1.94454
    endloop
  endfacet
  facet normal 1 0 0
    outer loop
      vertex 5.5 -31.899 7.60104
      vertex 5.5 23.5555 1.94454
      vertex 5.5 24.125 2.38157
    endloop
  endfacet
  facet normal 1 0 0
    outer loop
      vertex 5.5 24.7882 2.6563
      vertex 5.5 -32.1747 7.7853
      vertex 5.5 24.125 2.38157
    endloop
  endfacet
  facet normal 1 0 0
    outer loop
      vertex 5.5 22.8437 0.711752
      vertex 5.5 -30.1818 0.621165
      vertex 5.5 -30.1 0
    endloop
  endfacet
  facet normal 1 0 0
    outer loop
      vertex 5.5 22.8437 0.711752
      vertex 5.5 -31.65 7
      vertex 5.5 -30.1818 0.621165
    endloop
  endfacet
  facet normal 1 0 0
    outer loop
      vertex 5.5 -30.1818 0.621165
      vertex 5.5 -31.65 7
      vertex 5.5 -30.4215 1.2
    endloop
  endfacet
  facet normal 1 -0 0
    outer loop
      vertex 5.5 -31.7147 6.67472
      vertex 5.5 -30.4215 1.2
      vertex 5.5 -31.65 7
    endloop
  endfacet
  facet normal 1 0 0
    outer loop
      vertex 5.5 -30.4215 1.2
      vertex 5.5 -31.7147 6.67472
      vertex 5.5 -30.8029 1.69706
    endloop
  endfacet
  facet normal 1 0 0
    outer loop
      vertex 5.5 23.1184 1.375
      vertex 5.5 -31.7147 7.32528
      vertex 5.5 -31.65 7
    endloop
  endfacet
  facet normal 1 0 0
    outer loop
      vertex 5.5 23.5555 1.94454
      vertex 5.5 -31.899 7.60104
      vertex 5.5 -31.7147 7.32528
    endloop
  endfacet
  facet normal 1 0 0
    outer loop
      vertex 5.5 24.125 2.38157
      vertex 5.5 -32.1747 7.7853
      vertex 5.5 -31.899 7.60104
    endloop
  endfacet
  facet normal 1 0 0
    outer loop
      vertex 5.5 37.5 8
      vertex 5.5 -32.5 7.85
      vertex 5.5 -32.1747 7.7853
    endloop
  endfacet
  facet normal 1 0 0
    outer loop
      vertex 5.5 -33.2853 6.67472
      vertex 5.5 -34.1971 1.69706
      vertex 5.5 -33.7 2.07846
    endloop
  endfacet
  facet normal 1 0 0
    outer loop
      vertex 5.5 -33.2853 6.67472
      vertex 5.5 -44.5 8
      vertex 5.5 -34.1971 1.69706
    endloop
  endfacet
  facet normal 1 0 0
    outer loop
      vertex 5.5 -44.5 8
      vertex 5.5 -33.35 7
      vertex 5.5 -33.2853 7.32528
    endloop
  endfacet
  facet normal 1 0 0
    outer loop
      vertex 5.5 -34.1971 1.69706
      vertex 5.5 -44.5 8
      vertex 5.5 -34.5785 1.2
    endloop
  endfacet
  facet normal 1 0 0
    outer loop
      vertex 5.5 -34.8182 0.621165
      vertex 5.5 -44.5 8
      vertex 5.5 -34.9 0
    endloop
  endfacet
  facet normal 1 0 0
    outer loop
      vertex 5.5 -34.5785 1.2
      vertex 5.5 -44.5 8
      vertex 5.5 -34.8182 0.621165
    endloop
  endfacet
  facet normal 1 0 0
    outer loop
      vertex 5.5 -33.101 7.60104
      vertex 5.5 -44.5 8
      vertex 5.5 -33.2853 7.32528
    endloop
  endfacet
  facet normal 1 0 0
    outer loop
      vertex 5.5 -32.8253 7.7853
      vertex 5.5 -44.5 8
      vertex 5.5 -33.101 7.60104
    endloop
  endfacet
  facet normal 1 0 0
    outer loop
      vertex 5.5 -32.5 7.85
      vertex 5.5 -44.5 8
      vertex 5.5 -32.8253 7.7853
    endloop
  endfacet
  facet normal 1 -0 0
    outer loop
      vertex 5.5 -44.5 8
      vertex 5.5 -32.5 7.85
      vertex 5.5 37.5 8
    endloop
  endfacet
  facet normal 1 -0 0
    outer loop
      vertex 5.5 28.1563 -0.711752
      vertex 5.5 37.5 -8
      vertex 5.5 28.25 0
    endloop
  endfacet
  facet normal 1 -0 0
    outer loop
      vertex 5.5 27.8816 -1.375
      vertex 5.5 37.5 -8
      vertex 5.5 28.1563 -0.711752
    endloop
  endfacet
  facet normal 1 -0 0
    outer loop
      vertex 5.5 27.4445 -1.94454
      vertex 5.5 37.5 -8
      vertex 5.5 27.8816 -1.375
    endloop
  endfacet
  facet normal 1 -0 0
    outer loop
      vertex 5.5 26.875 -2.38157
      vertex 5.5 37.5 -8
      vertex 5.5 27.4445 -1.94454
    endloop
  endfacet
  facet normal 1 -0 0
    outer loop
      vertex 5.5 26.2118 -2.6563
      vertex 5.5 37.5 -8
      vertex 5.5 26.875 -2.38157
    endloop
  endfacet
  facet normal 1 -0 0
    outer loop
      vertex 5.5 25.5 -2.75
      vertex 5.5 37.5 -8
      vertex 5.5 26.2118 -2.6563
    endloop
  endfacet
  facet normal 1 0 0
    outer loop
      vertex 5.5 24.7882 -2.6563
      vertex 5.5 37.5 -8
      vertex 5.5 25.5 -2.75
    endloop
  endfacet
  facet normal 1 0 0
    outer loop
      vertex 5.5 -32.1747 -7.7853
      vertex 5.5 24.7882 -2.6563
      vertex 5.5 24.125 -2.38157
    endloop
  endfacet
  facet normal 1 -0 0
    outer loop
      vertex 5.5 -30.1 0
      vertex 5.5 22.8437 -0.711752
      vertex 5.5 22.75 0
    endloop
  endfacet
  facet normal 1 -0 0
    outer loop
      vertex 5.5 -30.1818 -0.621165
      vertex 5.5 22.8437 -0.711752
      vertex 5.5 -30.1 0
    endloop
  endfacet
  facet normal 1 0 0
    outer loop
      vertex 5.5 -31.65 -7
      vertex 5.5 22.8437 -0.711752
      vertex 5.5 -30.1818 -0.621165
    endloop
  endfacet
  facet normal 1 0 0
    outer loop
      vertex 5.5 22.8437 -0.711752
      vertex 5.5 -31.65 -7
      vertex 5.5 23.1184 -1.375
    endloop
  endfacet
  facet normal 1 0 0
    outer loop
      vertex 5.5 -31.7147 -7.32528
      vertex 5.5 23.1184 -1.375
      vertex 5.5 -31.65 -7
    endloop
  endfacet
  facet normal 1 0 0
    outer loop
      vertex 5.5 23.1184 -1.375
      vertex 5.5 -31.7147 -7.32528
      vertex 5.5 23.5555 -1.94454
    endloop
  endfacet
  facet normal 1 0 0
    outer loop
      vertex 5.5 -31.65 -7
      vertex 5.5 -30.1818 -0.621165
      vertex 5.5 -30.4215 -1.2
    endloop
  endfacet
  facet normal 1 0 0
    outer loop
      vertex 5.5 -31.7147 -6.67472
      vertex 5.5 -30.4215 -1.2
      vertex 5.5 -30.8029 -1.69706
    endloop
  endfacet
  facet normal 1 0 0
    outer loop
      vertex 5.5 -31.7147 -6.67472
      vertex 5.5 -30.8029 -1.69706
      vertex 5.5 -31.3 -2.07846
    endloop
  endfacet
  facet normal 1 0 0
    outer loop
      vertex 5.5 -31.899 -7.60104
      vertex 5.5 23.5555 -1.94454
      vertex 5.5 -31.7147 -7.32528
    endloop
  endfacet
  facet normal 1 0 0
    outer loop
      vertex 5.5 23.5555 -1.94454
      vertex 5.5 -31.899 -7.60104
      vertex 5.5 24.125 -2.38157
    endloop
  endfacet
  facet normal 1 0 0
    outer loop
      vertex 5.5 -32.1747 -7.7853
      vertex 5.5 24.125 -2.38157
      vertex 5.5 -31.899 -7.60104
    endloop
  endfacet
  facet normal 1 0 0
    outer loop
      vertex 5.5 24.7882 -2.6563
      vertex 5.5 -32.1747 -7.7853
      vertex 5.5 37.5 -8
    endloop
  endfacet
  facet normal 1 -0 0
    outer loop
      vertex 5.5 -32.5 -7.85
      vertex 5.5 37.5 -8
      vertex 5.5 -32.1747 -7.7853
    endloop
  endfacet
  facet normal 1 0 0
    outer loop
      vertex 5.5 -44.5 -8
      vertex 5.5 -33.2853 -6.67472
      vertex 5.5 -34.1971 -1.69706
    endloop
  endfacet
  facet normal 1 0 0
    outer loop
      vertex 5.5 -44.5 -8
      vertex 5.5 -34.1971 -1.69706
      vertex 5.5 -34.5785 -1.2
    endloop
  endfacet
  facet normal 1 0 0
    outer loop
      vertex 5.5 -33.2853 -6.67472
      vertex 5.5 -44.5 -8
      vertex 5.5 -33.35 -7
    endloop
  endfacet
  facet normal 1 0 0
    outer loop
      vertex 5.5 -44.5 -8
      vertex 5.5 -34.5785 -1.2
      vertex 5.5 -34.8182 -0.621165
    endloop
  endfacet
  facet normal 1 0 0
    outer loop
      vertex 5.5 -44.5 -8
      vertex 5.5 -34.9 0
      vertex 5.5 -44.5 8
    endloop
  endfacet
  facet normal 1 0 0
    outer loop
      vertex 5.5 -34.9 0
      vertex 5.5 -44.5 -8
      vertex 5.5 -34.8182 -0.621165
    endloop
  endfacet
  facet normal 1 0 0
    outer loop
      vertex 5.5 -33.35 -7
      vertex 5.5 -44.5 -8
      vertex 5.5 -33.2853 -7.32528
    endloop
  endfacet
  facet normal 1 0 0
    outer loop
      vertex 5.5 -32.5 -7.85
      vertex 5.5 -44.5 -8
      vertex 5.5 37.5 -8
    endloop
  endfacet
  facet normal 1 0 0
    outer loop
      vertex 5.5 -32.8253 -7.7853
      vertex 5.5 -44.5 -8
      vertex 5.5 -32.5 -7.85
    endloop
  endfacet
  facet normal 1 0 0
    outer loop
      vertex 5.5 -33.101 -7.60104
      vertex 5.5 -44.5 -8
      vertex 5.5 -32.8253 -7.7853
    endloop
  endfacet
  facet normal 1 0 0
    outer loop
      vertex 5.5 -33.2853 -7.32528
      vertex 5.5 -44.5 -8
      vertex 5.5 -33.101 -7.60104
    endloop
  endfacet
  facet normal 1 0 0
    outer loop
      vertex 5.5 -30.8029 1.69706
      vertex 5.5 -31.7147 6.67472
      vertex 5.5 -31.3 2.07846
    endloop
  endfacet
  facet normal 1 -0 0
    outer loop
      vertex 5.5 -31.899 6.39896
      vertex 5.5 -31.3 2.07846
      vertex 5.5 -31.7147 6.67472
    endloop
  endfacet
  facet normal 1 0 0
    outer loop
      vertex 5.5 -31.3 2.07846
      vertex 5.5 -31.899 6.39896
      vertex 5.5 -31.8788 2.31822
    endloop
  endfacet
  facet normal 1 -0 0
    outer loop
      vertex 5.5 -32.1747 6.2147
      vertex 5.5 -31.8788 2.31822
      vertex 5.5 -31.899 6.39896
    endloop
  endfacet
  facet normal 1 0 0
    outer loop
      vertex 5.5 -32.5 2.4
      vertex 5.5 -32.1747 6.2147
      vertex 5.5 -32.5 6.15
    endloop
  endfacet
  facet normal 1 0 0
    outer loop
      vertex 5.5 -32.1747 6.2147
      vertex 5.5 -32.5 2.4
      vertex 5.5 -31.8788 2.31822
    endloop
  endfacet
  facet normal 1 0 0
    outer loop
      vertex 5.5 -32.8253 6.2147
      vertex 5.5 -32.5 2.4
      vertex 5.5 -32.5 6.15
    endloop
  endfacet
  facet normal 1 0 0
    outer loop
      vertex 5.5 -33.1212 2.31822
      vertex 5.5 -32.8253 6.2147
      vertex 5.5 -33.101 6.39896
    endloop
  endfacet
  facet normal 1 0 0
    outer loop
      vertex 5.5 -32.8253 6.2147
      vertex 5.5 -33.1212 2.31822
      vertex 5.5 -32.5 2.4
    endloop
  endfacet
  facet normal 1 0 0
    outer loop
      vertex 5.5 -33.7 2.07846
      vertex 5.5 -33.101 6.39896
      vertex 5.5 -33.2853 6.67472
    endloop
  endfacet
  facet normal 1 0 0
    outer loop
      vertex 5.5 -44.5 8
      vertex 5.5 -33.2853 6.67472
      vertex 5.5 -33.35 7
    endloop
  endfacet
  facet normal 1 0 0
    outer loop
      vertex 5.5 -33.101 6.39896
      vertex 5.5 -33.7 2.07846
      vertex 5.5 -33.1212 2.31822
    endloop
  endfacet
  facet normal 0 -1 0
    outer loop
      vertex 3.5 -44.5 -8
      vertex 5.5 -44.5 8
      vertex 3.5 -44.5 8
    endloop
  endfacet
  facet normal 0 -1 -0
    outer loop
      vertex 5.5 -44.5 8
      vertex 3.5 -44.5 -8
      vertex 5.5 -44.5 -8
    endloop
  endfacet
  facet normal 0 1 -0
    outer loop
      vertex 5.5 37.5 -8
      vertex 3.5 37.5 8
      vertex 5.5 37.5 8
    endloop
  endfacet
  facet normal 0 1 0
    outer loop
      vertex 3.5 37.5 8
      vertex 5.5 37.5 -8
      vertex 3.5 37.5 -8
    endloop
  endfacet
  facet normal -1 0 0
    outer loop
      vertex 3.5 -30.4215 1.2
      vertex 3.5 -31.7147 6.67472
      vertex 3.5 -31.65 7
    endloop
  endfacet
  facet normal -1 0 0
    outer loop
      vertex 3.5 -31.899 6.39896
      vertex 3.5 -31.3 2.07846
      vertex 3.5 -31.8788 2.31822
    endloop
  endfacet
  facet normal -1 0 0
    outer loop
      vertex 3.5 -31.3 2.07846
      vertex 3.5 -31.899 6.39896
      vertex 3.5 -31.7147 6.67472
    endloop
  endfacet
  facet normal -1 0 0
    outer loop
      vertex 3.5 -31.8788 2.31822
      vertex 3.5 -32.1747 6.2147
      vertex 3.5 -31.899 6.39896
    endloop
  endfacet
  facet normal -1 0 0
    outer loop
      vertex 3.5 -32.5 2.4
      vertex 3.5 -32.1747 6.2147
      vertex 3.5 -31.8788 2.31822
    endloop
  endfacet
  facet normal -1 0 0
    outer loop
      vertex 3.5 -32.5 2.4
      vertex 3.5 -32.5 6.15
      vertex 3.5 -32.1747 6.2147
    endloop
  endfacet
  facet normal -1 0 0
    outer loop
      vertex 3.5 -32.5 2.4
      vertex 3.5 -32.8253 6.2147
      vertex 3.5 -32.5 6.15
    endloop
  endfacet
  facet normal -1 0 0
    outer loop
      vertex 3.5 -33.1212 2.31822
      vertex 3.5 -32.8253 6.2147
      vertex 3.5 -32.5 2.4
    endloop
  endfacet
  facet normal -1 -0 0
    outer loop
      vertex 3.5 -32.8253 6.2147
      vertex 3.5 -33.1212 2.31822
      vertex 3.5 -33.101 6.39896
    endloop
  endfacet
  facet normal -1 0 0
    outer loop
      vertex 3.5 -33.7 2.07846
      vertex 3.5 -33.101 6.39896
      vertex 3.5 -33.1212 2.31822
    endloop
  endfacet
  facet normal -1 -0 0
    outer loop
      vertex 3.5 -33.101 6.39896
      vertex 3.5 -33.7 2.07846
      vertex 3.5 -33.2853 6.67472
    endloop
  endfacet
  facet normal -1 0 0
    outer loop
      vertex 3.5 -34.1971 1.69706
      vertex 3.5 -33.2853 6.67472
      vertex 3.5 -33.7 2.07846
    endloop
  endfacet
  facet normal -1 0 0
    outer loop
      vertex 3.5 2.5 -8
      vertex 3.5 -30.1 0
      vertex 3.5 2.5 8
    endloop
  endfacet
  facet normal -1 0 0
    outer loop
      vertex 3.5 2.5 -8
      vertex 3.5 -30.1818 -0.621165
      vertex 3.5 -30.1 0
    endloop
  endfacet
  facet normal -1 0 0
    outer loop
      vertex 3.5 2.5 -8
      vertex 3.5 -30.4215 -1.2
      vertex 3.5 -30.1818 -0.621165
    endloop
  endfacet
  facet normal -1 0 0
    outer loop
      vertex 3.5 -31.65 -7
      vertex 3.5 -30.4215 -1.2
      vertex 3.5 2.5 -8
    endloop
  endfacet
  facet normal -1 0 0
    outer loop
      vertex 3.5 -31.7147 -6.67472
      vertex 3.5 -30.4215 -1.2
      vertex 3.5 -31.65 -7
    endloop
  endfacet
  facet normal -1 0 0
    outer loop
      vertex 3.5 -30.4215 -1.2
      vertex 3.5 -31.7147 -6.67472
      vertex 3.5 -30.8029 -1.69706
    endloop
  endfacet
  facet normal -1 0 0
    outer loop
      vertex 3.5 2.5 -8
      vertex 3.5 -31.7147 -7.32528
      vertex 3.5 -31.65 -7
    endloop
  endfacet
  facet normal -1 0 0
    outer loop
      vertex 3.5 2.5 -8
      vertex 3.5 -31.899 -7.60104
      vertex 3.5 -31.7147 -7.32528
    endloop
  endfacet
  facet normal -1 0 0
    outer loop
      vertex 3.5 2.5 -8
      vertex 3.5 -32.1747 -7.7853
      vertex 3.5 -31.899 -7.60104
    endloop
  endfacet
  facet normal -1 0 0
    outer loop
      vertex 3.5 2.5 -8
      vertex 3.5 -32.5 -7.85
      vertex 3.5 -32.1747 -7.7853
    endloop
  endfacet
  facet normal -1 0 0
    outer loop
      vertex 3.5 -33.2853 -6.67472
      vertex 3.5 -34.1971 -1.69706
      vertex 3.5 -33.7 -2.07846
    endloop
  endfacet
  facet normal -1 -0 0
    outer loop
      vertex 3.5 -33.2853 -6.67472
      vertex 3.5 -44.5 -8
      vertex 3.5 -34.1971 -1.69706
    endloop
  endfacet
  facet normal -1 0 0
    outer loop
      vertex 3.5 -44.5 -8
      vertex 3.5 -33.35 -7
      vertex 3.5 -33.2853 -7.32528
    endloop
  endfacet
  facet normal -1 -0 0
    outer loop
      vertex 3.5 -34.1971 -1.69706
      vertex 3.5 -44.5 -8
      vertex 3.5 -34.5785 -1.2
    endloop
  endfacet
  facet normal -1 -0 0
    outer loop
      vertex 3.5 -34.8182 -0.621165
      vertex 3.5 -44.5 -8
      vertex 3.5 -34.9 0
    endloop
  endfacet
  facet normal -1 -0 0
    outer loop
      vertex 3.5 -34.5785 -1.2
      vertex 3.5 -44.5 -8
      vertex 3.5 -34.8182 -0.621165
    endloop
  endfacet
  facet normal -1 -0 0
    outer loop
      vertex 3.5 -33.101 -7.60104
      vertex 3.5 -44.5 -8
      vertex 3.5 -33.2853 -7.32528
    endloop
  endfacet
  facet normal -1 -0 0
    outer loop
      vertex 3.5 -32.8253 -7.7853
      vertex 3.5 -44.5 -8
      vertex 3.5 -33.101 -7.60104
    endloop
  endfacet
  facet normal -1 -0 0
    outer loop
      vertex 3.5 -32.5 -7.85
      vertex 3.5 -44.5 -8
      vertex 3.5 -32.8253 -7.7853
    endloop
  endfacet
  facet normal -1 0 0
    outer loop
      vertex 3.5 -44.5 -8
      vertex 3.5 -32.5 -7.85
      vertex 3.5 2.5 -8
    endloop
  endfacet
  facet normal -1 0 0
    outer loop
      vertex 3.5 -30.1818 0.621165
      vertex 3.5 2.5 8
      vertex 3.5 -30.1 0
    endloop
  endfacet
  facet normal -1 0 0
    outer loop
      vertex 3.5 -30.4215 1.2
      vertex 3.5 2.5 8
      vertex 3.5 -30.1818 0.621165
    endloop
  endfacet
  facet normal -1 0 0
    outer loop
      vertex 3.5 -31.7147 6.67472
      vertex 3.5 -30.4215 1.2
      vertex 3.5 -30.8029 1.69706
    endloop
  endfacet
  facet normal -1 0 0
    outer loop
      vertex 3.5 -31.7147 6.67472
      vertex 3.5 -30.8029 1.69706
      vertex 3.5 -31.3 2.07846
    endloop
  endfacet
  facet normal -1 0 0
    outer loop
      vertex 3.5 -30.4215 1.2
      vertex 3.5 -31.65 7
      vertex 3.5 2.5 8
    endloop
  endfacet
  facet normal -1 0 0
    outer loop
      vertex 3.5 -31.7147 7.32528
      vertex 3.5 2.5 8
      vertex 3.5 -31.65 7
    endloop
  endfacet
  facet normal -1 0 0
    outer loop
      vertex 3.5 -31.899 7.60104
      vertex 3.5 2.5 8
      vertex 3.5 -31.7147 7.32528
    endloop
  endfacet
  facet normal -1 0 0
    outer loop
      vertex 3.5 -32.1747 7.7853
      vertex 3.5 2.5 8
      vertex 3.5 -31.899 7.60104
    endloop
  endfacet
  facet normal -1 0 0
    outer loop
      vertex 3.5 -32.5 7.85
      vertex 3.5 2.5 8
      vertex 3.5 -32.1747 7.7853
    endloop
  endfacet
  facet normal -1 0 0
    outer loop
      vertex 3.5 -44.5 8
      vertex 3.5 -33.2853 6.67472
      vertex 3.5 -34.1971 1.69706
    endloop
  endfacet
  facet normal -1 0 0
    outer loop
      vertex 3.5 -44.5 8
      vertex 3.5 -34.1971 1.69706
      vertex 3.5 -34.5785 1.2
    endloop
  endfacet
  facet normal -1 0 0
    outer loop
      vertex 3.5 -33.2853 6.67472
      vertex 3.5 -44.5 8
      vertex 3.5 -33.35 7
    endloop
  endfacet
  facet normal -1 0 0
    outer loop
      vertex 3.5 -44.5 8
      vertex 3.5 -34.5785 1.2
      vertex 3.5 -34.8182 0.621165
    endloop
  endfacet
  facet normal -1 0 0
    outer loop
      vertex 3.5 -44.5 8
      vertex 3.5 -34.9 0
      vertex 3.5 -44.5 -8
    endloop
  endfacet
  facet normal -1 0 0
    outer loop
      vertex 3.5 -34.9 0
      vertex 3.5 -44.5 8
      vertex 3.5 -34.8182 0.621165
    endloop
  endfacet
  facet normal -1 0 0
    outer loop
      vertex 3.5 -33.35 7
      vertex 3.5 -44.5 8
      vertex 3.5 -33.2853 7.32528
    endloop
  endfacet
  facet normal -1 0 0
    outer loop
      vertex 3.5 -32.5 7.85
      vertex 3.5 -44.5 8
      vertex 3.5 2.5 8
    endloop
  endfacet
  facet normal -1 0 0
    outer loop
      vertex 3.5 -32.8253 7.7853
      vertex 3.5 -44.5 8
      vertex 3.5 -32.5 7.85
    endloop
  endfacet
  facet normal -1 0 0
    outer loop
      vertex 3.5 -33.101 7.60104
      vertex 3.5 -44.5 8
      vertex 3.5 -32.8253 7.7853
    endloop
  endfacet
  facet normal -1 0 0
    outer loop
      vertex 3.5 -33.2853 7.32528
      vertex 3.5 -44.5 8
      vertex 3.5 -33.101 7.60104
    endloop
  endfacet
  facet normal -1 0 0
    outer loop
      vertex 3.5 -30.8029 -1.69706
      vertex 3.5 -31.7147 -6.67472
      vertex 3.5 -31.3 -2.07846
    endloop
  endfacet
  facet normal -1 0 0
    outer loop
      vertex 3.5 -31.899 -6.39896
      vertex 3.5 -31.3 -2.07846
      vertex 3.5 -31.7147 -6.67472
    endloop
  endfacet
  facet normal -1 0 0
    outer loop
      vertex 3.5 -31.3 -2.07846
      vertex 3.5 -31.899 -6.39896
      vertex 3.5 -31.8788 -2.31822
    endloop
  endfacet
  facet normal -1 0 0
    outer loop
      vertex 3.5 -32.1747 -6.2147
      vertex 3.5 -31.8788 -2.31822
      vertex 3.5 -31.899 -6.39896
    endloop
  endfacet
  facet normal -1 0 0
    outer loop
      vertex 3.5 -32.5 -2.4
      vertex 3.5 -32.1747 -6.2147
      vertex 3.5 -32.5 -6.15
    endloop
  endfacet
  facet normal -1 0 0
    outer loop
      vertex 3.5 -32.1747 -6.2147
      vertex 3.5 -32.5 -2.4
      vertex 3.5 -31.8788 -2.31822
    endloop
  endfacet
  facet normal -1 0 0
    outer loop
      vertex 3.5 -32.8253 -6.2147
      vertex 3.5 -32.5 -2.4
      vertex 3.5 -32.5 -6.15
    endloop
  endfacet
  facet normal -1 0 0
    outer loop
      vertex 3.5 -33.1212 -2.31822
      vertex 3.5 -32.8253 -6.2147
      vertex 3.5 -33.101 -6.39896
    endloop
  endfacet
  facet normal -1 0 0
    outer loop
      vertex 3.5 -32.8253 -6.2147
      vertex 3.5 -33.1212 -2.31822
      vertex 3.5 -32.5 -2.4
    endloop
  endfacet
  facet normal -1 0 0
    outer loop
      vertex 3.5 -33.7 -2.07846
      vertex 3.5 -33.101 -6.39896
      vertex 3.5 -33.2853 -6.67472
    endloop
  endfacet
  facet normal -1 0 0
    outer loop
      vertex 3.5 -44.5 -8
      vertex 3.5 -33.2853 -6.67472
      vertex 3.5 -33.35 -7
    endloop
  endfacet
  facet normal -1 0 0
    outer loop
      vertex 3.5 -33.101 -6.39896
      vertex 3.5 -33.7 -2.07846
      vertex 3.5 -33.1212 -2.31822
    endloop
  endfacet
  facet normal -1 0 0
    outer loop
      vertex 3.5 37.5 -8
      vertex 3.5 28.25 0
      vertex 3.5 37.5 8
    endloop
  endfacet
  facet normal -1 0 0
    outer loop
      vertex 3.5 37.5 -8
      vertex 3.5 28.1563 -0.711752
      vertex 3.5 28.25 0
    endloop
  endfacet
  facet normal -1 0 0
    outer loop
      vertex 3.5 37.5 -8
      vertex 3.5 27.8816 -1.375
      vertex 3.5 28.1563 -0.711752
    endloop
  endfacet
  facet normal -1 0 0
    outer loop
      vertex 3.5 37.5 -8
      vertex 3.5 27.4445 -1.94454
      vertex 3.5 27.8816 -1.375
    endloop
  endfacet
  facet normal -1 0 0
    outer loop
      vertex 3.5 37.5 -8
      vertex 3.5 26.875 -2.38157
      vertex 3.5 27.4445 -1.94454
    endloop
  endfacet
  facet normal -1 0 0
    outer loop
      vertex 3.5 37.5 -8
      vertex 3.5 26.2118 -2.6563
      vertex 3.5 26.875 -2.38157
    endloop
  endfacet
  facet normal -1 0 0
    outer loop
      vertex 3.5 37.5 -8
      vertex 3.5 25.5 -2.75
      vertex 3.5 26.2118 -2.6563
    endloop
  endfacet
  facet normal -1 0 0
    outer loop
      vertex 3.5 37.5 -8
      vertex 3.5 24.7882 -2.6563
      vertex 3.5 25.5 -2.75
    endloop
  endfacet
  facet normal -1 0 0
    outer loop
      vertex 3.5 4.5 -8
      vertex 3.5 24.7882 -2.6563
      vertex 3.5 37.5 -8
    endloop
  endfacet
  facet normal -1 -0 0
    outer loop
      vertex 3.5 22.8437 -0.711752
      vertex 3.5 4.5 -8
      vertex 3.5 22.75 0
    endloop
  endfacet
  facet normal -1 -0 0
    outer loop
      vertex 3.5 23.1184 -1.375
      vertex 3.5 4.5 -8
      vertex 3.5 22.8437 -0.711752
    endloop
  endfacet
  facet normal -1 -0 0
    outer loop
      vertex 3.5 23.5555 -1.94454
      vertex 3.5 4.5 -8
      vertex 3.5 23.1184 -1.375
    endloop
  endfacet
  facet normal -1 -0 0
    outer loop
      vertex 3.5 24.125 -2.38157
      vertex 3.5 4.5 -8
      vertex 3.5 23.5555 -1.94454
    endloop
  endfacet
  facet normal -1 -0 0
    outer loop
      vertex 3.5 24.7882 -2.6563
      vertex 3.5 4.5 -8
      vertex 3.5 24.125 -2.38157
    endloop
  endfacet
  facet normal -1 0 0
    outer loop
      vertex 3.5 28.1563 0.711752
      vertex 3.5 37.5 8
      vertex 3.5 28.25 0
    endloop
  endfacet
  facet normal -1 0 0
    outer loop
      vertex 3.5 27.8816 1.375
      vertex 3.5 37.5 8
      vertex 3.5 28.1563 0.711752
    endloop
  endfacet
  facet normal -1 0 0
    outer loop
      vertex 3.5 27.4445 1.94454
      vertex 3.5 37.5 8
      vertex 3.5 27.8816 1.375
    endloop
  endfacet
  facet normal -1 0 0
    outer loop
      vertex 3.5 26.875 2.38157
      vertex 3.5 37.5 8
      vertex 3.5 27.4445 1.94454
    endloop
  endfacet
  facet normal -1 0 0
    outer loop
      vertex 3.5 26.2118 2.6563
      vertex 3.5 37.5 8
      vertex 3.5 26.875 2.38157
    endloop
  endfacet
  facet normal -1 0 0
    outer loop
      vertex 3.5 25.5 2.75
      vertex 3.5 37.5 8
      vertex 3.5 26.2118 2.6563
    endloop
  endfacet
  facet normal -1 0 0
    outer loop
      vertex 3.5 24.7882 2.6563
      vertex 3.5 37.5 8
      vertex 3.5 25.5 2.75
    endloop
  endfacet
  facet normal -1 0 0
    outer loop
      vertex 3.5 4.5 8
      vertex 3.5 24.7882 2.6563
      vertex 3.5 24.125 2.38157
    endloop
  endfacet
  facet normal -1 0 0
    outer loop
      vertex 3.5 4.5 8
      vertex 3.5 22.75 0
      vertex 3.5 4.5 -8
    endloop
  endfacet
  facet normal -1 0 0
    outer loop
      vertex 3.5 22.75 0
      vertex 3.5 4.5 8
      vertex 3.5 22.8437 0.711752
    endloop
  endfacet
  facet normal -1 0 0
    outer loop
      vertex 3.5 22.8437 0.711752
      vertex 3.5 4.5 8
      vertex 3.5 23.1184 1.375
    endloop
  endfacet
  facet normal -1 0 0
    outer loop
      vertex 3.5 23.1184 1.375
      vertex 3.5 4.5 8
      vertex 3.5 23.5555 1.94454
    endloop
  endfacet
  facet normal -1 0 0
    outer loop
      vertex 3.5 24.7882 2.6563
      vertex 3.5 4.5 8
      vertex 3.5 37.5 8
    endloop
  endfacet
  facet normal -1 0 0
    outer loop
      vertex 3.5 23.5555 1.94454
      vertex 3.5 4.5 8
      vertex 3.5 24.125 2.38157
    endloop
  endfacet
  facet normal -0 0 1
    outer loop
      vertex -12.5 4.5 8
      vertex 3.5 2.5 8
      vertex 3.5 4.5 8
    endloop
  endfacet
  facet normal 0 0 1
    outer loop
      vertex 3.5 2.5 8
      vertex -12.5 4.5 8
      vertex -12.5 2.5 8
    endloop
  endfacet
  facet normal 0 0 1
    outer loop
      vertex 3.5 4.5 8
      vertex 5.5 37.5 8
      vertex 3.5 37.5 8
    endloop
  endfacet
  facet normal 0 0 1
    outer loop
      vertex 3.5 2.5 8
      vertex 5.5 37.5 8
      vertex 3.5 4.5 8
    endloop
  endfacet
  facet normal 0 0 1
    outer loop
      vertex 5.5 37.5 8
      vertex 3.5 2.5 8
      vertex 5.5 -44.5 8
    endloop
  endfacet
  facet normal 0 0 1
    outer loop
      vertex 5.5 -44.5 8
      vertex 3.5 2.5 8
      vertex 3.5 -44.5 8
    endloop
  endfacet
  facet normal 0 0 -1
    outer loop
      vertex -12.5 2.5 -8
      vertex 3.5 4.5 -8
      vertex 3.5 2.5 -8
    endloop
  endfacet
  facet normal -0 0 -1
    outer loop
      vertex 3.5 4.5 -8
      vertex -12.5 2.5 -8
      vertex -12.5 4.5 -8
    endloop
  endfacet
  facet normal 0 0 -1
    outer loop
      vertex 3.5 2.5 -8
      vertex 5.5 -44.5 -8
      vertex 3.5 -44.5 -8
    endloop
  endfacet
  facet normal 0 0 -1
    outer loop
      vertex 5.5 -44.5 -8
      vertex 3.5 2.5 -8
      vertex 5.5 37.5 -8
    endloop
  endfacet
  facet normal 0 0 -1
    outer loop
      vertex 3.5 4.5 -8
      vertex 5.5 37.5 -8
      vertex 3.5 2.5 -8
    endloop
  endfacet
  facet normal -0 0 -1
    outer loop
      vertex 5.5 37.5 -8
      vertex 3.5 4.5 -8
      vertex 3.5 37.5 -8
    endloop
  endfacet
  facet normal 0 -1 0
    outer loop
      vertex -12.5 2.5 -8
      vertex 3.5 2.5 8
      vertex -12.5 2.5 8
    endloop
  endfacet
  facet normal 0 -1 -0
    outer loop
      vertex 3.5 2.5 8
      vertex -12.5 2.5 -8
      vertex 3.5 2.5 -8
    endloop
  endfacet
  facet normal 0 1 -0
    outer loop
      vertex 3.5 4.5 -8
      vertex -12.5 4.5 8
      vertex 3.5 4.5 8
    endloop
  endfacet
  facet normal 0 1 0
    outer loop
      vertex -12.5 4.5 8
      vertex 3.5 4.5 -8
      vertex -12.5 4.5 -8
    endloop
  endfacet
  facet normal -1 0 0
    outer loop
      vertex -12.5 2.5 -8
      vertex -12.5 4.5 8
      vertex -12.5 4.5 -8
    endloop
  endfacet
  facet normal -1 -0 0
    outer loop
      vertex -12.5 4.5 8
      vertex -12.5 2.5 -8
      vertex -12.5 2.5 8
    endloop
  endfacet
  facet normal 0 0.608723 -0.793383
    outer loop
      vertex 3.5 -34.1971 1.69706
      vertex 5.5 -33.7 2.07846
      vertex 5.5 -34.1971 1.69706
    endloop
  endfacet
  facet normal 0 0.608723 -0.793383
    outer loop
      vertex 5.5 -33.7 2.07846
      vertex 3.5 -34.1971 1.69706
      vertex 3.5 -33.7 2.07846
    endloop
  endfacet
  facet normal 0 0.382701 -0.923872
    outer loop
      vertex 3.5 -33.7 2.07846
      vertex 5.5 -33.1212 2.31822
      vertex 5.5 -33.7 2.07846
    endloop
  endfacet
  facet normal 0 0.382701 -0.923872
    outer loop
      vertex 5.5 -33.1212 2.31822
      vertex 3.5 -33.7 2.07846
      vertex 3.5 -33.1212 2.31822
    endloop
  endfacet
  facet normal -0 0.382701 0.923872
    outer loop
      vertex 3.5 -33.1212 -2.31822
      vertex 5.5 -33.7 -2.07846
      vertex 5.5 -33.1212 -2.31822
    endloop
  endfacet
  facet normal 0 0.382701 0.923872
    outer loop
      vertex 5.5 -33.7 -2.07846
      vertex 3.5 -33.1212 -2.31822
      vertex 3.5 -33.7 -2.07846
    endloop
  endfacet
  facet normal 0 -0.99144 -0.130561
    outer loop
      vertex 3.5 -30.1 0
      vertex 5.5 -30.1818 0.621165
      vertex 3.5 -30.1818 0.621165
    endloop
  endfacet
  facet normal 0 -0.99144 -0.130561
    outer loop
      vertex 5.5 -30.1818 0.621165
      vertex 3.5 -30.1 0
      vertex 5.5 -30.1 0
    endloop
  endfacet
  facet normal 0 -0.608723 0.793383
    outer loop
      vertex 3.5 -30.8029 -1.69706
      vertex 5.5 -31.3 -2.07846
      vertex 5.5 -30.8029 -1.69706
    endloop
  endfacet
  facet normal 0 -0.608723 0.793383
    outer loop
      vertex 5.5 -31.3 -2.07846
      vertex 3.5 -30.8029 -1.69706
      vertex 3.5 -31.3 -2.07846
    endloop
  endfacet
  facet normal -0 0.130522 0.991445
    outer loop
      vertex 3.5 -32.5 -2.4
      vertex 5.5 -33.1212 -2.31822
      vertex 5.5 -32.5 -2.4
    endloop
  endfacet
  facet normal 0 0.130522 0.991445
    outer loop
      vertex 5.5 -33.1212 -2.31822
      vertex 3.5 -32.5 -2.4
      vertex 3.5 -33.1212 -2.31822
    endloop
  endfacet
  facet normal -0 0.608723 0.793383
    outer loop
      vertex 3.5 -33.7 -2.07846
      vertex 5.5 -34.1971 -1.69706
      vertex 5.5 -33.7 -2.07846
    endloop
  endfacet
  facet normal 0 0.608723 0.793383
    outer loop
      vertex 5.5 -34.1971 -1.69706
      vertex 3.5 -33.7 -2.07846
      vertex 3.5 -34.1971 -1.69706
    endloop
  endfacet
  facet normal 0 -0.382701 -0.923872
    outer loop
      vertex 3.5 -31.8788 2.31822
      vertex 5.5 -31.3 2.07846
      vertex 5.5 -31.8788 2.31822
    endloop
  endfacet
  facet normal -0 -0.382701 -0.923872
    outer loop
      vertex 5.5 -31.3 2.07846
      vertex 3.5 -31.8788 2.31822
      vertex 3.5 -31.3 2.07846
    endloop
  endfacet
  facet normal 0 -0.923914 -0.3826
    outer loop
      vertex 3.5 -30.1818 0.621165
      vertex 5.5 -30.4215 1.2
      vertex 3.5 -30.4215 1.2
    endloop
  endfacet
  facet normal 0 -0.923914 -0.3826
    outer loop
      vertex 5.5 -30.4215 1.2
      vertex 3.5 -30.1818 0.621165
      vertex 5.5 -30.1818 0.621165
    endloop
  endfacet
  facet normal 0 -0.130522 0.991445
    outer loop
      vertex 3.5 -31.8788 -2.31822
      vertex 5.5 -32.5 -2.4
      vertex 5.5 -31.8788 -2.31822
    endloop
  endfacet
  facet normal 0 -0.130522 0.991445
    outer loop
      vertex 5.5 -32.5 -2.4
      vertex 3.5 -31.8788 -2.31822
      vertex 3.5 -32.5 -2.4
    endloop
  endfacet
  facet normal 0 -0.793359 0.608754
    outer loop
      vertex 3.5 -30.8029 -1.69706
      vertex 5.5 -30.4215 -1.2
      vertex 3.5 -30.4215 -1.2
    endloop
  endfacet
  facet normal 0 -0.793359 0.608754
    outer loop
      vertex 5.5 -30.4215 -1.2
      vertex 3.5 -30.8029 -1.69706
      vertex 5.5 -30.8029 -1.69706
    endloop
  endfacet
  facet normal 0 -0.382701 0.923872
    outer loop
      vertex 3.5 -31.3 -2.07846
      vertex 5.5 -31.8788 -2.31822
      vertex 5.5 -31.3 -2.07846
    endloop
  endfacet
  facet normal 0 -0.382701 0.923872
    outer loop
      vertex 5.5 -31.8788 -2.31822
      vertex 3.5 -31.3 -2.07846
      vertex 3.5 -31.8788 -2.31822
    endloop
  endfacet
  facet normal 0 0.793359 -0.608754
    outer loop
      vertex 5.5 -34.5785 1.2
      vertex 3.5 -34.1971 1.69706
      vertex 5.5 -34.1971 1.69706
    endloop
  endfacet
  facet normal 0 0.793359 -0.608754
    outer loop
      vertex 3.5 -34.1971 1.69706
      vertex 5.5 -34.5785 1.2
      vertex 3.5 -34.5785 1.2
    endloop
  endfacet
  facet normal 0 -0.130522 -0.991445
    outer loop
      vertex 3.5 -32.5 2.4
      vertex 5.5 -31.8788 2.31822
      vertex 5.5 -32.5 2.4
    endloop
  endfacet
  facet normal -0 -0.130522 -0.991445
    outer loop
      vertex 5.5 -31.8788 2.31822
      vertex 3.5 -32.5 2.4
      vertex 3.5 -31.8788 2.31822
    endloop
  endfacet
  facet normal 0 -0.99144 0.130561
    outer loop
      vertex 3.5 -30.1818 -0.621165
      vertex 5.5 -30.1 0
      vertex 3.5 -30.1 0
    endloop
  endfacet
  facet normal 0 -0.99144 0.130561
    outer loop
      vertex 5.5 -30.1 0
      vertex 3.5 -30.1818 -0.621165
      vertex 5.5 -30.1818 -0.621165
    endloop
  endfacet
  facet normal 0 0.793359 0.608754
    outer loop
      vertex 5.5 -34.1971 -1.69706
      vertex 3.5 -34.5785 -1.2
      vertex 5.5 -34.5785 -1.2
    endloop
  endfacet
  facet normal 0 0.793359 0.608754
    outer loop
      vertex 3.5 -34.5785 -1.2
      vertex 5.5 -34.1971 -1.69706
      vertex 3.5 -34.1971 -1.69706
    endloop
  endfacet
  facet normal 0 0.130522 -0.991445
    outer loop
      vertex 3.5 -33.1212 2.31822
      vertex 5.5 -32.5 2.4
      vertex 5.5 -33.1212 2.31822
    endloop
  endfacet
  facet normal 0 0.130522 -0.991445
    outer loop
      vertex 5.5 -32.5 2.4
      vertex 3.5 -33.1212 2.31822
      vertex 3.5 -32.5 2.4
    endloop
  endfacet
  facet normal 0 -0.608723 -0.793383
    outer loop
      vertex 3.5 -31.3 2.07846
      vertex 5.5 -30.8029 1.69706
      vertex 5.5 -31.3 2.07846
    endloop
  endfacet
  facet normal -0 -0.608723 -0.793383
    outer loop
      vertex 5.5 -30.8029 1.69706
      vertex 3.5 -31.3 2.07846
      vertex 3.5 -30.8029 1.69706
    endloop
  endfacet
  facet normal 0 0.99144 0.130561
    outer loop
      vertex 5.5 -34.8182 -0.621165
      vertex 3.5 -34.9 0
      vertex 5.5 -34.9 0
    endloop
  endfacet
  facet normal 0 0.99144 0.130561
    outer loop
      vertex 3.5 -34.9 0
      vertex 5.5 -34.8182 -0.621165
      vertex 3.5 -34.8182 -0.621165
    endloop
  endfacet
  facet normal 0 -0.923914 0.3826
    outer loop
      vertex 3.5 -30.4215 -1.2
      vertex 5.5 -30.1818 -0.621165
      vertex 3.5 -30.1818 -0.621165
    endloop
  endfacet
  facet normal 0 -0.923914 0.3826
    outer loop
      vertex 5.5 -30.1818 -0.621165
      vertex 3.5 -30.4215 -1.2
      vertex 5.5 -30.4215 -1.2
    endloop
  endfacet
  facet normal 0 -0.793359 -0.608754
    outer loop
      vertex 3.5 -30.4215 1.2
      vertex 5.5 -30.8029 1.69706
      vertex 3.5 -30.8029 1.69706
    endloop
  endfacet
  facet normal 0 -0.793359 -0.608754
    outer loop
      vertex 5.5 -30.8029 1.69706
      vertex 3.5 -30.4215 1.2
      vertex 5.5 -30.4215 1.2
    endloop
  endfacet
  facet normal 0 0.923914 0.3826
    outer loop
      vertex 5.5 -34.5785 -1.2
      vertex 3.5 -34.8182 -0.621165
      vertex 5.5 -34.8182 -0.621165
    endloop
  endfacet
  facet normal 0 0.923914 0.3826
    outer loop
      vertex 3.5 -34.8182 -0.621165
      vertex 5.5 -34.5785 -1.2
      vertex 3.5 -34.5785 -1.2
    endloop
  endfacet
  facet normal 0 0.923914 -0.3826
    outer loop
      vertex 5.5 -34.8182 0.621165
      vertex 3.5 -34.5785 1.2
      vertex 5.5 -34.5785 1.2
    endloop
  endfacet
  facet normal 0 0.923914 -0.3826
    outer loop
      vertex 3.5 -34.5785 1.2
      vertex 5.5 -34.8182 0.621165
      vertex 3.5 -34.8182 0.621165
    endloop
  endfacet
  facet normal 0 0.99144 -0.130561
    outer loop
      vertex 5.5 -34.9 0
      vertex 3.5 -34.8182 0.621165
      vertex 5.5 -34.8182 0.621165
    endloop
  endfacet
  facet normal 0 0.99144 -0.130561
    outer loop
      vertex 3.5 -34.8182 0.621165
      vertex 5.5 -34.9 0
      vertex 3.5 -34.9 0
    endloop
  endfacet
  facet normal 0 -0.55566 -0.831409
    outer loop
      vertex 3.5 -32.1747 7.7853
      vertex 5.5 -31.899 7.60104
      vertex 5.5 -32.1747 7.7853
    endloop
  endfacet
  facet normal -0 -0.55566 -0.831409
    outer loop
      vertex 5.5 -31.899 7.60104
      vertex 3.5 -32.1747 7.7853
      vertex 3.5 -31.899 7.60104
    endloop
  endfacet
  facet normal 0 0.980787 0.195084
    outer loop
      vertex 5.5 -33.2853 6.67472
      vertex 3.5 -33.35 7
      vertex 5.5 -33.35 7
    endloop
  endfacet
  facet normal 0 0.980787 0.195084
    outer loop
      vertex 3.5 -33.35 7
      vertex 5.5 -33.2853 6.67472
      vertex 3.5 -33.2853 6.67472
    endloop
  endfacet
  facet normal 0 0.195072 -0.980789
    outer loop
      vertex 3.5 -32.8253 7.7853
      vertex 5.5 -32.5 7.85
      vertex 5.5 -32.8253 7.7853
    endloop
  endfacet
  facet normal 0 0.195072 -0.980789
    outer loop
      vertex 5.5 -32.5 7.85
      vertex 3.5 -32.8253 7.7853
      vertex 3.5 -32.5 7.85
    endloop
  endfacet
  facet normal 0 0.83141 -0.55566
    outer loop
      vertex 5.5 -33.2853 7.32528
      vertex 3.5 -33.101 7.60104
      vertex 5.5 -33.101 7.60104
    endloop
  endfacet
  facet normal 0 0.83141 -0.55566
    outer loop
      vertex 3.5 -33.101 7.60104
      vertex 5.5 -33.2853 7.32528
      vertex 3.5 -33.2853 7.32528
    endloop
  endfacet
  facet normal 0 -0.980787 -0.195084
    outer loop
      vertex 3.5 -31.65 7
      vertex 5.5 -31.7147 7.32528
      vertex 3.5 -31.7147 7.32528
    endloop
  endfacet
  facet normal 0 -0.980787 -0.195084
    outer loop
      vertex 5.5 -31.7147 7.32528
      vertex 3.5 -31.65 7
      vertex 5.5 -31.65 7
    endloop
  endfacet
  facet normal 0 -0.195072 0.980789
    outer loop
      vertex 3.5 -32.1747 6.2147
      vertex 5.5 -32.5 6.15
      vertex 5.5 -32.1747 6.2147
    endloop
  endfacet
  facet normal 0 -0.195072 0.980789
    outer loop
      vertex 5.5 -32.5 6.15
      vertex 3.5 -32.1747 6.2147
      vertex 3.5 -32.5 6.15
    endloop
  endfacet
  facet normal 0 -0.980787 0.195084
    outer loop
      vertex 3.5 -31.7147 6.67472
      vertex 5.5 -31.65 7
      vertex 3.5 -31.65 7
    endloop
  endfacet
  facet normal 0 -0.980787 0.195084
    outer loop
      vertex 5.5 -31.65 7
      vertex 3.5 -31.7147 6.67472
      vertex 5.5 -31.7147 6.67472
    endloop
  endfacet
  facet normal 0 -0.195072 -0.980789
    outer loop
      vertex 3.5 -32.5 7.85
      vertex 5.5 -32.1747 7.7853
      vertex 5.5 -32.5 7.85
    endloop
  endfacet
  facet normal -0 -0.195072 -0.980789
    outer loop
      vertex 5.5 -32.1747 7.7853
      vertex 3.5 -32.5 7.85
      vertex 3.5 -32.1747 7.7853
    endloop
  endfacet
  facet normal -0 0.195072 0.980789
    outer loop
      vertex 3.5 -32.5 6.15
      vertex 5.5 -32.8253 6.2147
      vertex 5.5 -32.5 6.15
    endloop
  endfacet
  facet normal 0 0.195072 0.980789
    outer loop
      vertex 5.5 -32.8253 6.2147
      vertex 3.5 -32.5 6.15
      vertex 3.5 -32.8253 6.2147
    endloop
  endfacet
  facet normal 0 -0.83141 -0.55566
    outer loop
      vertex 3.5 -31.7147 7.32528
      vertex 5.5 -31.899 7.60104
      vertex 3.5 -31.899 7.60104
    endloop
  endfacet
  facet normal 0 -0.83141 -0.55566
    outer loop
      vertex 5.5 -31.899 7.60104
      vertex 3.5 -31.7147 7.32528
      vertex 5.5 -31.7147 7.32528
    endloop
  endfacet
  facet normal 0 -0.55566 0.831409
    outer loop
      vertex 3.5 -31.899 6.39896
      vertex 5.5 -32.1747 6.2147
      vertex 5.5 -31.899 6.39896
    endloop
  endfacet
  facet normal 0 -0.55566 0.831409
    outer loop
      vertex 5.5 -32.1747 6.2147
      vertex 3.5 -31.899 6.39896
      vertex 3.5 -32.1747 6.2147
    endloop
  endfacet
  facet normal 0 -0.83141 0.55566
    outer loop
      vertex 3.5 -31.899 6.39896
      vertex 5.5 -31.7147 6.67472
      vertex 3.5 -31.7147 6.67472
    endloop
  endfacet
  facet normal 0 -0.83141 0.55566
    outer loop
      vertex 5.5 -31.7147 6.67472
      vertex 3.5 -31.899 6.39896
      vertex 5.5 -31.899 6.39896
    endloop
  endfacet
  facet normal 0 0.83141 0.55566
    outer loop
      vertex 5.5 -33.101 6.39896
      vertex 3.5 -33.2853 6.67472
      vertex 5.5 -33.2853 6.67472
    endloop
  endfacet
  facet normal 0 0.83141 0.55566
    outer loop
      vertex 3.5 -33.2853 6.67472
      vertex 5.5 -33.101 6.39896
      vertex 3.5 -33.101 6.39896
    endloop
  endfacet
  facet normal 0 0.55566 -0.831409
    outer loop
      vertex 3.5 -33.101 7.60104
      vertex 5.5 -32.8253 7.7853
      vertex 5.5 -33.101 7.60104
    endloop
  endfacet
  facet normal 0 0.55566 -0.831409
    outer loop
      vertex 5.5 -32.8253 7.7853
      vertex 3.5 -33.101 7.60104
      vertex 3.5 -32.8253 7.7853
    endloop
  endfacet
  facet normal 0 0.980787 -0.195084
    outer loop
      vertex 5.5 -33.35 7
      vertex 3.5 -33.2853 7.32528
      vertex 5.5 -33.2853 7.32528
    endloop
  endfacet
  facet normal 0 0.980787 -0.195084
    outer loop
      vertex 3.5 -33.2853 7.32528
      vertex 5.5 -33.35 7
      vertex 3.5 -33.35 7
    endloop
  endfacet
  facet normal -0 0.55566 0.831409
    outer loop
      vertex 3.5 -32.8253 6.2147
      vertex 5.5 -33.101 6.39896
      vertex 5.5 -32.8253 6.2147
    endloop
  endfacet
  facet normal 0 0.55566 0.831409
    outer loop
      vertex 5.5 -33.101 6.39896
      vertex 3.5 -32.8253 6.2147
      vertex 3.5 -33.101 6.39896
    endloop
  endfacet
  facet normal 0 -0.55566 -0.831409
    outer loop
      vertex 3.5 -32.1747 -6.2147
      vertex 5.5 -31.899 -6.39896
      vertex 5.5 -32.1747 -6.2147
    endloop
  endfacet
  facet normal -0 -0.55566 -0.831409
    outer loop
      vertex 5.5 -31.899 -6.39896
      vertex 3.5 -32.1747 -6.2147
      vertex 3.5 -31.899 -6.39896
    endloop
  endfacet
  facet normal 0 -0.195072 -0.980789
    outer loop
      vertex 3.5 -32.5 -6.15
      vertex 5.5 -32.1747 -6.2147
      vertex 5.5 -32.5 -6.15
    endloop
  endfacet
  facet normal -0 -0.195072 -0.980789
    outer loop
      vertex 5.5 -32.1747 -6.2147
      vertex 3.5 -32.5 -6.15
      vertex 3.5 -32.1747 -6.2147
    endloop
  endfacet
  facet normal 0 0.980787 -0.195084
    outer loop
      vertex 5.5 -33.35 -7
      vertex 3.5 -33.2853 -6.67472
      vertex 5.5 -33.2853 -6.67472
    endloop
  endfacet
  facet normal 0 0.980787 -0.195084
    outer loop
      vertex 3.5 -33.2853 -6.67472
      vertex 5.5 -33.35 -7
      vertex 3.5 -33.35 -7
    endloop
  endfacet
  facet normal 0 -0.980787 0.195084
    outer loop
      vertex 3.5 -31.7147 -7.32528
      vertex 5.5 -31.65 -7
      vertex 3.5 -31.65 -7
    endloop
  endfacet
  facet normal 0 -0.980787 0.195084
    outer loop
      vertex 5.5 -31.65 -7
      vertex 3.5 -31.7147 -7.32528
      vertex 5.5 -31.7147 -7.32528
    endloop
  endfacet
  facet normal 0 -0.980787 -0.195084
    outer loop
      vertex 3.5 -31.65 -7
      vertex 5.5 -31.7147 -6.67472
      vertex 3.5 -31.7147 -6.67472
    endloop
  endfacet
  facet normal 0 -0.980787 -0.195084
    outer loop
      vertex 5.5 -31.7147 -6.67472
      vertex 3.5 -31.65 -7
      vertex 5.5 -31.65 -7
    endloop
  endfacet
  facet normal 0 0.55566 -0.831409
    outer loop
      vertex 3.5 -33.101 -6.39896
      vertex 5.5 -32.8253 -6.2147
      vertex 5.5 -33.101 -6.39896
    endloop
  endfacet
  facet normal 0 0.55566 -0.831409
    outer loop
      vertex 5.5 -32.8253 -6.2147
      vertex 3.5 -33.101 -6.39896
      vertex 3.5 -32.8253 -6.2147
    endloop
  endfacet
  facet normal 0 0.980787 0.195084
    outer loop
      vertex 5.5 -33.2853 -7.32528
      vertex 3.5 -33.35 -7
      vertex 5.5 -33.35 -7
    endloop
  endfacet
  facet normal 0 0.980787 0.195084
    outer loop
      vertex 3.5 -33.35 -7
      vertex 5.5 -33.2853 -7.32528
      vertex 3.5 -33.2853 -7.32528
    endloop
  endfacet
  facet normal 0 -0.55566 0.831409
    outer loop
      vertex 3.5 -31.899 -7.60104
      vertex 5.5 -32.1747 -7.7853
      vertex 5.5 -31.899 -7.60104
    endloop
  endfacet
  facet normal 0 -0.55566 0.831409
    outer loop
      vertex 5.5 -32.1747 -7.7853
      vertex 3.5 -31.899 -7.60104
      vertex 3.5 -32.1747 -7.7853
    endloop
  endfacet
  facet normal 0 0.83141 0.55566
    outer loop
      vertex 5.5 -33.101 -7.60104
      vertex 3.5 -33.2853 -7.32528
      vertex 5.5 -33.2853 -7.32528
    endloop
  endfacet
  facet normal 0 0.83141 0.55566
    outer loop
      vertex 3.5 -33.2853 -7.32528
      vertex 5.5 -33.101 -7.60104
      vertex 3.5 -33.101 -7.60104
    endloop
  endfacet
  facet normal 0 -0.195072 0.980789
    outer loop
      vertex 3.5 -32.1747 -7.7853
      vertex 5.5 -32.5 -7.85
      vertex 5.5 -32.1747 -7.7853
    endloop
  endfacet
  facet normal 0 -0.195072 0.980789
    outer loop
      vertex 5.5 -32.5 -7.85
      vertex 3.5 -32.1747 -7.7853
      vertex 3.5 -32.5 -7.85
    endloop
  endfacet
  facet normal 0 0.83141 -0.55566
    outer loop
      vertex 5.5 -33.2853 -6.67472
      vertex 3.5 -33.101 -6.39896
      vertex 5.5 -33.101 -6.39896
    endloop
  endfacet
  facet normal 0 0.83141 -0.55566
    outer loop
      vertex 3.5 -33.101 -6.39896
      vertex 5.5 -33.2853 -6.67472
      vertex 3.5 -33.2853 -6.67472
    endloop
  endfacet
  facet normal 0 -0.83141 -0.55566
    outer loop
      vertex 3.5 -31.7147 -6.67472
      vertex 5.5 -31.899 -6.39896
      vertex 3.5 -31.899 -6.39896
    endloop
  endfacet
  facet normal 0 -0.83141 -0.55566
    outer loop
      vertex 5.5 -31.899 -6.39896
      vertex 3.5 -31.7147 -6.67472
      vertex 5.5 -31.7147 -6.67472
    endloop
  endfacet
  facet normal 0 0.195072 -0.980789
    outer loop
      vertex 3.5 -32.8253 -6.2147
      vertex 5.5 -32.5 -6.15
      vertex 5.5 -32.8253 -6.2147
    endloop
  endfacet
  facet normal 0 0.195072 -0.980789
    outer loop
      vertex 5.5 -32.5 -6.15
      vertex 3.5 -32.8253 -6.2147
      vertex 3.5 -32.5 -6.15
    endloop
  endfacet
  facet normal -0 0.195072 0.980789
    outer loop
      vertex 3.5 -32.5 -7.85
      vertex 5.5 -32.8253 -7.7853
      vertex 5.5 -32.5 -7.85
    endloop
  endfacet
  facet normal 0 0.195072 0.980789
    outer loop
      vertex 5.5 -32.8253 -7.7853
      vertex 3.5 -32.5 -7.85
      vertex 3.5 -32.8253 -7.7853
    endloop
  endfacet
  facet normal 0 -0.83141 0.55566
    outer loop
      vertex 3.5 -31.899 -7.60104
      vertex 5.5 -31.7147 -7.32528
      vertex 3.5 -31.7147 -7.32528
    endloop
  endfacet
  facet normal 0 -0.83141 0.55566
    outer loop
      vertex 5.5 -31.7147 -7.32528
      vertex 3.5 -31.899 -7.60104
      vertex 5.5 -31.899 -7.60104
    endloop
  endfacet
  facet normal -0 0.55566 0.831409
    outer loop
      vertex 3.5 -32.8253 -7.7853
      vertex 5.5 -33.101 -7.60104
      vertex 5.5 -32.8253 -7.7853
    endloop
  endfacet
  facet normal 0 0.55566 0.831409
    outer loop
      vertex 5.5 -33.101 -7.60104
      vertex 3.5 -32.8253 -7.7853
      vertex 3.5 -33.101 -7.60104
    endloop
  endfacet
  facet normal 0 -0.923892 0.382652
    outer loop
      vertex 3.5 27.8816 -1.375
      vertex 5.5 28.1563 -0.711752
      vertex 3.5 28.1563 -0.711752
    endloop
  endfacet
  facet normal 0 -0.923892 0.382652
    outer loop
      vertex 5.5 28.1563 -0.711752
      vertex 3.5 27.8816 -1.375
      vertex 5.5 27.8816 -1.375
    endloop
  endfacet
  facet normal -0 0.382711 0.923868
    outer loop
      vertex 3.5 24.7882 -2.6563
      vertex 5.5 24.125 -2.38157
      vertex 5.5 24.7882 -2.6563
    endloop
  endfacet
  facet normal 0 0.382711 0.923868
    outer loop
      vertex 5.5 24.125 -2.38157
      vertex 3.5 24.7882 -2.6563
      vertex 3.5 24.125 -2.38157
    endloop
  endfacet
  facet normal 0 -0.382711 0.923868
    outer loop
      vertex 3.5 26.875 -2.38157
      vertex 5.5 26.2118 -2.6563
      vertex 5.5 26.875 -2.38157
    endloop
  endfacet
  facet normal 0 -0.382711 0.923868
    outer loop
      vertex 5.5 26.2118 -2.6563
      vertex 3.5 26.875 -2.38157
      vertex 3.5 26.2118 -2.6563
    endloop
  endfacet
  facet normal 0 -0.991446 -0.130521
    outer loop
      vertex 3.5 28.25 0
      vertex 5.5 28.1563 0.711752
      vertex 3.5 28.1563 0.711752
    endloop
  endfacet
  facet normal 0 -0.991446 -0.130521
    outer loop
      vertex 5.5 28.1563 0.711752
      vertex 3.5 28.25 0
      vertex 5.5 28.25 0
    endloop
  endfacet
  facet normal 0 0.793302 -0.608829
    outer loop
      vertex 5.5 23.1184 1.375
      vertex 3.5 23.5555 1.94454
      vertex 5.5 23.5555 1.94454
    endloop
  endfacet
  facet normal 0 0.793302 -0.608829
    outer loop
      vertex 3.5 23.5555 1.94454
      vertex 5.5 23.1184 1.375
      vertex 3.5 23.1184 1.375
    endloop
  endfacet
  facet normal 0 0.991446 0.130521
    outer loop
      vertex 5.5 22.8437 -0.711752
      vertex 3.5 22.75 0
      vertex 5.5 22.75 0
    endloop
  endfacet
  facet normal 0 0.991446 0.130521
    outer loop
      vertex 3.5 22.75 0
      vertex 5.5 22.8437 -0.711752
      vertex 3.5 22.8437 -0.711752
    endloop
  endfacet
  facet normal 0 -0.130512 0.991447
    outer loop
      vertex 3.5 26.2118 -2.6563
      vertex 5.5 25.5 -2.75
      vertex 5.5 26.2118 -2.6563
    endloop
  endfacet
  facet normal 0 -0.130512 0.991447
    outer loop
      vertex 5.5 25.5 -2.75
      vertex 3.5 26.2118 -2.6563
      vertex 3.5 25.5 -2.75
    endloop
  endfacet
  facet normal 0 0.608794 -0.793328
    outer loop
      vertex 3.5 23.5555 1.94454
      vertex 5.5 24.125 2.38157
      vertex 5.5 23.5555 1.94454
    endloop
  endfacet
  facet normal 0 0.608794 -0.793328
    outer loop
      vertex 5.5 24.125 2.38157
      vertex 3.5 23.5555 1.94454
      vertex 3.5 24.125 2.38157
    endloop
  endfacet
  facet normal 0 -0.923892 -0.382652
    outer loop
      vertex 3.5 28.1563 0.711752
      vertex 5.5 27.8816 1.375
      vertex 3.5 27.8816 1.375
    endloop
  endfacet
  facet normal 0 -0.923892 -0.382652
    outer loop
      vertex 5.5 27.8816 1.375
      vertex 3.5 28.1563 0.711752
      vertex 5.5 28.1563 0.711752
    endloop
  endfacet
  facet normal 0 0.382711 -0.923868
    outer loop
      vertex 3.5 24.125 2.38157
      vertex 5.5 24.7882 2.6563
      vertex 5.5 24.125 2.38157
    endloop
  endfacet
  facet normal 0 0.382711 -0.923868
    outer loop
      vertex 5.5 24.7882 2.6563
      vertex 3.5 24.125 2.38157
      vertex 3.5 24.7882 2.6563
    endloop
  endfacet
  facet normal -0 0.130512 0.991447
    outer loop
      vertex 3.5 25.5 -2.75
      vertex 5.5 24.7882 -2.6563
      vertex 5.5 25.5 -2.75
    endloop
  endfacet
  facet normal 0 0.130512 0.991447
    outer loop
      vertex 5.5 24.7882 -2.6563
      vertex 3.5 25.5 -2.75
      vertex 3.5 24.7882 -2.6563
    endloop
  endfacet
  facet normal 0 0.991446 -0.130521
    outer loop
      vertex 5.5 22.75 0
      vertex 3.5 22.8437 0.711752
      vertex 5.5 22.8437 0.711752
    endloop
  endfacet
  facet normal 0 0.991446 -0.130521
    outer loop
      vertex 3.5 22.8437 0.711752
      vertex 5.5 22.75 0
      vertex 3.5 22.75 0
    endloop
  endfacet
  facet normal 0 0.130512 -0.991447
    outer loop
      vertex 3.5 24.7882 2.6563
      vertex 5.5 25.5 2.75
      vertex 5.5 24.7882 2.6563
    endloop
  endfacet
  facet normal 0 0.130512 -0.991447
    outer loop
      vertex 5.5 25.5 2.75
      vertex 3.5 24.7882 2.6563
      vertex 3.5 25.5 2.75
    endloop
  endfacet
  facet normal 0 -0.382711 -0.923868
    outer loop
      vertex 3.5 26.2118 2.6563
      vertex 5.5 26.875 2.38157
      vertex 5.5 26.2118 2.6563
    endloop
  endfacet
  facet normal -0 -0.382711 -0.923868
    outer loop
      vertex 5.5 26.875 2.38157
      vertex 3.5 26.2118 2.6563
      vertex 3.5 26.875 2.38157
    endloop
  endfacet
  facet normal 0 -0.991446 0.130521
    outer loop
      vertex 3.5 28.1563 -0.711752
      vertex 5.5 28.25 0
      vertex 3.5 28.25 0
    endloop
  endfacet
  facet normal 0 -0.991446 0.130521
    outer loop
      vertex 5.5 28.25 0
      vertex 3.5 28.1563 -0.711752
      vertex 5.5 28.1563 -0.711752
    endloop
  endfacet
  facet normal 0 0.923892 -0.382652
    outer loop
      vertex 5.5 22.8437 0.711752
      vertex 3.5 23.1184 1.375
      vertex 5.5 23.1184 1.375
    endloop
  endfacet
  facet normal 0 0.923892 -0.382652
    outer loop
      vertex 3.5 23.1184 1.375
      vertex 5.5 22.8437 0.711752
      vertex 3.5 22.8437 0.711752
    endloop
  endfacet
  facet normal 0 -0.608794 -0.793328
    outer loop
      vertex 3.5 26.875 2.38157
      vertex 5.5 27.4445 1.94454
      vertex 5.5 26.875 2.38157
    endloop
  endfacet
  facet normal -0 -0.608794 -0.793328
    outer loop
      vertex 5.5 27.4445 1.94454
      vertex 3.5 26.875 2.38157
      vertex 3.5 27.4445 1.94454
    endloop
  endfacet
  facet normal 0 -0.130512 -0.991447
    outer loop
      vertex 3.5 25.5 2.75
      vertex 5.5 26.2118 2.6563
      vertex 5.5 25.5 2.75
    endloop
  endfacet
  facet normal -0 -0.130512 -0.991447
    outer loop
      vertex 5.5 26.2118 2.6563
      vertex 3.5 25.5 2.75
      vertex 3.5 26.2118 2.6563
    endloop
  endfacet
  facet normal 0 0.923892 0.382652
    outer loop
      vertex 5.5 23.1184 -1.375
      vertex 3.5 22.8437 -0.711752
      vertex 5.5 22.8437 -0.711752
    endloop
  endfacet
  facet normal 0 0.923892 0.382652
    outer loop
      vertex 3.5 22.8437 -0.711752
      vertex 5.5 23.1184 -1.375
      vertex 3.5 23.1184 -1.375
    endloop
  endfacet
  facet normal -0 0.608794 0.793328
    outer loop
      vertex 3.5 24.125 -2.38157
      vertex 5.5 23.5555 -1.94454
      vertex 5.5 24.125 -2.38157
    endloop
  endfacet
  facet normal 0 0.608794 0.793328
    outer loop
      vertex 5.5 23.5555 -1.94454
      vertex 3.5 24.125 -2.38157
      vertex 3.5 23.5555 -1.94454
    endloop
  endfacet
  facet normal 0 -0.793302 -0.608829
    outer loop
      vertex 3.5 27.8816 1.375
      vertex 5.5 27.4445 1.94454
      vertex 3.5 27.4445 1.94454
    endloop
  endfacet
  facet normal 0 -0.793302 -0.608829
    outer loop
      vertex 5.5 27.4445 1.94454
      vertex 3.5 27.8816 1.375
      vertex 5.5 27.8816 1.375
    endloop
  endfacet
  facet normal 0 -0.608794 0.793328
    outer loop
      vertex 3.5 27.4445 -1.94454
      vertex 5.5 26.875 -2.38157
      vertex 5.5 27.4445 -1.94454
    endloop
  endfacet
  facet normal 0 -0.608794 0.793328
    outer loop
      vertex 5.5 26.875 -2.38157
      vertex 3.5 27.4445 -1.94454
      vertex 3.5 26.875 -2.38157
    endloop
  endfacet
  facet normal 0 -0.793302 0.608829
    outer loop
      vertex 3.5 27.4445 -1.94454
      vertex 5.5 27.8816 -1.375
      vertex 3.5 27.8816 -1.375
    endloop
  endfacet
  facet normal 0 -0.793302 0.608829
    outer loop
      vertex 5.5 27.8816 -1.375
      vertex 3.5 27.4445 -1.94454
      vertex 5.5 27.4445 -1.94454
    endloop
  endfacet
  facet normal 0 0.793302 0.608829
    outer loop
      vertex 5.5 23.5555 -1.94454
      vertex 3.5 23.1184 -1.375
      vertex 5.5 23.1184 -1.375
    endloop
  endfacet
  facet normal 0 0.793302 0.608829
    outer loop
      vertex 3.5 23.1184 -1.375
      vertex 5.5 23.5555 -1.94454
      vertex 3.5 23.5555 -1.94454
    endloop
  endfacet
endsolid OpenSCAD_Model
